SplineFontDB: 3.0
FontName: Hack-Bold
FullName: Hack Bold
FamilyName: Hack
Weight: Regular
Copyright: Copyright (c) 2017 Source Foundry Authors / Copyright (c) 2003 by Bitstream, Inc. All Rights Reserved.
Version: 3.0
StyleMapFamilyName: 
FONDName: Hack
ItalicAngle: 0
UnderlinePosition: -220
UnderlineWidth: 90
Ascent: 1556
Descent: 492
InvalidEm: 0
UFOAscent: 1556
UFODescent: -492
LayerCount: 2
Layer: 0 0 "Back" 1
Layer: 1 0 "Fore" 0
StyleMap: 0x0020
FSType: 1
OS2Version: 0
OS2_WeightWidthSlopeOnly: 0
OS2_UseTypoMetrics: 0
CreationTime: 1513717412
ModificationTime: 1513717451
PfmFamily: 16
TTFWeight: 700
TTFWidth: 5
LineGap: 0
VLineGap: 0
Panose: 2 11 8 9 3 2 2 2 2 4
OS2TypoAscent: 1556
OS2TypoAOffset: 0
OS2TypoDescent: -492
OS2TypoDOffset: 0
OS2TypoLinegap: 410
OS2WinAscent: 1901
OS2WinAOffset: 0
OS2WinDescent: 483
OS2WinDOffset: 0
HheadAscent: 1901
HheadAOffset: 0
HheadDescent: -483
HheadDOffset: 0
OS2SubXSize: 1331
OS2SubYSize: 1228
OS2SubXOff: 0
OS2SubYOff: 153
OS2SupXSize: 1331
OS2SupYSize: 1228
OS2SupXOff: 0
OS2SupYOff: 716
OS2StrikeYSize: 102
OS2StrikeYPos: 530
OS2CapHeight: 1495
OS2XHeight: 1120
OS2Vendor: 'SRC '
OS2CodePages: 2000019f.dfd70000
OS2UnicodeRanges: a50006ef.0000b8fb.00000020.00000000
Lookup: 1 0 0 "'locl' Localized Forms in Latin lookup 0" { "'locl' Localized Forms in Latin lookup 0 subtable"  } ['locl' ('latn' <'MOL ' > ) ]
Lookup: 1 0 0 "'locl' Localized Forms in Latin lookup 1" { "'locl' Localized Forms in Latin lookup 1 subtable"  } ['locl' ('latn' <'ROM ' > ) ]
Lookup: 1 0 0 "'subs' Subscript in Latin lookup 2" { "'subs' Subscript in Latin lookup 2 subtable" ("inferior") } ['subs' ('latn' <'dflt' 'MOL ' 'ROM ' > 'DFLT' <'dflt' > ) ]
Lookup: 1 0 0 "'subs' Subscript in Latin lookup 3" { "'subs' Subscript in Latin lookup 3 subtable" ("inferior") } ['subs' ('latn' <'dflt' > ) ]

StartChar: .notdef
Encoding: 0 -1 0
GlifName: _notdef
Width: 1233
VWidth: 0
Flags: W
LayerCount: 2
Fore
SplineSet
104 1444 m 257
NamedP: "hr00"
 1128 1444 l 257
NamedP: "dv02"
 1128 -362 l 257
NamedP: "sh01"
 104 -362 l 257
 104 1444 l 257
NamedP: "hr00"
1014 -248 m 257
NamedP: "ah01"
 1014 1329 l 257
NamedP: "dv01"
 219 1329 l 257
NamedP: "sh02"
 219 -248 l 257
 1014 -248 l 257
NamedP: "ah01"
EndSplineSet
PickledDataWithLists: "(dp1
S'com.schriftgestaltung.Glyphs.lastChange'
p2
S'2017-07-11 17:15:08 +0000'
p3
s."
EndChar

StartChar: A
Encoding: 1 65 1
GlifName: A_
Width: 1233
VWidth: 0
Flags: W
LayerCount: 2
Fore
SplineSet
436 1493 m 257
NamedP: "hr00"
 797 1493 l 257
 1200 0 l 257
NamedP: "ab01"
 905 0 l 257
 813 369 l 257
NamedP: "dv01"
 418 369 l 257
 328 0 l 257
NamedP: "ab02"
 33 0 l 257
 436 1493 l 257
NamedP: "hr00"
756 612 m 257
NamedP: "dv02"
 616 1223 l 257
 477 612 l 257
 756 612 l 257
NamedP: "dv02"
EndSplineSet
PickledDataWithLists: "(dp1
S'com.schriftgestaltung.Glyphs.lastChange'
p2
S'2017-07-11 17:15:08 +0000'
p3
s."
Substitution2: "Single Substitution lookup 14 subtable" ordfeminine
Substitution2: "Single Substitution lookup 11 subtable" ordfeminine
EndChar

StartChar: AE
Encoding: 2 198 2
GlifName: A_E_
Width: 1233
VWidth: 0
Flags: W
LayerCount: 2
Fore
SplineSet
358 1493 m 257
NamedP: "hr00"
 1161 1493 l 257
 1161 1233 l 257
NamedP: "sv01"
 870 1233 l 257
NamedP: "sh01"
 870 922 l 257
 1130 922 l 257
NamedP: "dv02"
 1130 662 l 257
NamedP: "dv01"
 870 662 l 257
 870 260 l 257
NamedP: "dh02"
 1180 260 l 257
 1180 0 l 257
NamedP: "ab01"
 616 0 l 257
 616 362 l 257
NamedP: "dh01"
 334 362 l 257
 248 0 l 257
NamedP: "ab02"
 0 0 l 257
 358 1493 l 257
NamedP: "hr00"
616 598 m 257
NamedP: "sh02"
 616 1233 l 257
NamedP: "sv02"
 537 1233 l 257
NamedP: "sv03"
 389 598 l 257
 616 598 l 257
NamedP: "sh02"
EndSplineSet
PickledDataWithLists: "(dp1
S'com.schriftgestaltung.Glyphs.lastChange'
p2
S'2017-07-11 17:15:08 +0000'
p3
s."
EndChar

StartChar: Aacute
Encoding: 3 193 3
GlifName: A_acute
Width: 1233
VWidth: 0
Flags: W
LayerCount: 2
Fore
SplineSet
668 1852 m 257
NamedP: "hr00"
 952 1852 l 257
 666 1588 l 257
 469 1588 l 257
NamedP: "iv01"
 668 1852 l 257
NamedP: "hr00"
436 1493 m 257
NamedP: "at01"
 797 1493 l 257
 1200 0 l 257
NamedP: "ab01"
 905 0 l 257
 813 369 l 257
NamedP: "dv01"
 418 369 l 257
 328 0 l 257
NamedP: "ab02"
 33 0 l 257
 436 1493 l 257
NamedP: "at01"
756 612 m 257
NamedP: "dv02"
 616 1223 l 257
 477 612 l 257
 756 612 l 257
NamedP: "dv02"
EndSplineSet
PickledDataWithLists: "(dp1
S'com.schriftgestaltung.Glyphs.lastChange'
p2
S'2017-07-11 17:15:08 +0000'
p3
s."
EndChar

StartChar: Abreve
Encoding: 4 258 4
GlifName: A_breve
Width: 1233
VWidth: 0
Flags: W
LayerCount: 2
Fore
SplineSet
616 1588 m 256
NamedP: "dv01"
 419 1588 301 1679 281 1852 c 257
NamedP: "sv02"
 422 1852 l 257
 449 1771 515 1731 618 1731 c 256
NamedP: "dv02"
 719 1731 782 1771 809 1852 c 257
NamedP: "sv01"
 952 1852 l 257
 932 1679 815 1588 616 1588 c 256
NamedP: "dv01"
436 1493 m 257
NamedP: "at01"
 797 1493 l 257
 1200 0 l 257
NamedP: "ab01"
 905 0 l 257
 813 369 l 257
NamedP: "dv03"
 418 369 l 257
 328 0 l 257
NamedP: "ab02"
 33 0 l 257
 436 1493 l 257
NamedP: "at01"
756 612 m 257
NamedP: "hr01"
 616 1223 l 257
NamedP: "hr02"
 477 612 l 257
 756 612 l 257
NamedP: "hr01"
EndSplineSet
PickledDataWithLists: "(dp1
S'com.schriftgestaltung.Glyphs.lastChange'
p2
S'2017-07-11 17:15:08 +0000'
p3
s."
EndChar

StartChar: Acircumflex
Encoding: 5 194 5
GlifName: A_circumflex
Width: 1233
VWidth: 0
Flags: W
LayerCount: 2
Fore
SplineSet
461 1852 m 257
NamedP: "hr00"
 770 1852 l 257
 993 1588 l 257
NamedP: "iv01"
 815 1588 l 257
 616 1749 l 257
 418 1588 l 257
 240 1588 l 257
NamedP: "iv02"
 461 1852 l 257
NamedP: "hr00"
436 1493 m 257
NamedP: "at01"
 797 1493 l 257
 1200 0 l 257
NamedP: "ab01"
 905 0 l 257
 813 369 l 257
NamedP: "dv01"
 418 369 l 257
 328 0 l 257
NamedP: "ab02"
 33 0 l 257
 436 1493 l 257
NamedP: "at01"
756 612 m 257
NamedP: "dv02"
 616 1223 l 257
 477 612 l 257
 756 612 l 257
NamedP: "dv02"
EndSplineSet
PickledDataWithLists: "(dp1
S'com.schriftgestaltung.Glyphs.lastChange'
p2
S'2017-07-11 17:15:08 +0000'
p3
s."
EndChar

StartChar: Adieresis
Encoding: 6 196 6
GlifName: A_dieresis
Width: 1233
VWidth: 0
Flags: W
LayerCount: 2
Fore
SplineSet
331 1606 m 258
NamedP: "hr00"
 311 1606 301 1616 301 1636 c 258
NamedP: "sh01"
 301 1822 l 258
 301 1842 311 1852 331 1852 c 258
NamedP: "dv01"
 507 1852 l 258
 527 1852 537 1842 537 1822 c 258
 537 1636 l 258
NamedP: "sh02"
 537 1616 527 1606 507 1606 c 258
 331 1606 l 258
NamedP: "hr00"
726 1606 m 258
NamedP: "sv01"
 706 1606 696 1616 696 1636 c 258
NamedP: "ah01"
 696 1822 l 258
 696 1842 706 1852 726 1852 c 258
NamedP: "sv02"
 902 1852 l 258
 922 1852 932 1842 932 1822 c 258
 932 1636 l 258
NamedP: "sh03"
 932 1616 922 1606 902 1606 c 258
 726 1606 l 258
NamedP: "sv01"
436 1493 m 257
NamedP: "at01"
 797 1493 l 257
 1200 0 l 257
NamedP: "ab01"
 905 0 l 257
 813 369 l 257
NamedP: "dv02"
 418 369 l 257
 328 0 l 257
NamedP: "ab02"
 33 0 l 257
 436 1493 l 257
NamedP: "at01"
756 612 m 257
NamedP: "dv03"
 616 1223 l 257
NamedP: "ih01"
 477 612 l 257
 756 612 l 257
NamedP: "dv03"
EndSplineSet
PickledDataWithLists: "(dp1
S'com.schriftgestaltung.Glyphs.lastChange'
p2
S'2017-07-11 17:15:08 +0000'
p3
s."
EndChar

StartChar: Agrave
Encoding: 7 192 7
GlifName: A_grave
Width: 1233
VWidth: 0
Flags: W
LayerCount: 2
Fore
SplineSet
283 1852 m 257
NamedP: "hr00"
 567 1852 l 257
 766 1588 l 257
NamedP: "iv01"
 569 1588 l 257
 283 1852 l 257
NamedP: "hr00"
436 1493 m 257
NamedP: "at01"
 797 1493 l 257
 1200 0 l 257
NamedP: "ab01"
 905 0 l 257
 813 369 l 257
NamedP: "dv01"
 418 369 l 257
 328 0 l 257
NamedP: "ab02"
 33 0 l 257
 436 1493 l 257
NamedP: "at01"
756 612 m 257
NamedP: "dv02"
 616 1223 l 257
 477 612 l 257
 756 612 l 257
NamedP: "dv02"
EndSplineSet
PickledDataWithLists: "(dp1
S'com.schriftgestaltung.Glyphs.lastChange'
p2
S'2017-07-11 17:15:08 +0000'
p3
s."
EndChar

StartChar: Alpha
Encoding: 8 913 8
GlifName: A_lpha
Width: 1233
VWidth: 0
Flags: W
LayerCount: 2
Fore
SplineSet
436 1493 m 257
NamedP: "hr00"
 797 1493 l 257
 1200 0 l 257
NamedP: "ab01"
 905 0 l 257
 813 369 l 257
NamedP: "dv01"
 418 369 l 257
 328 0 l 257
NamedP: "ab02"
 33 0 l 257
 436 1493 l 257
NamedP: "hr00"
756 612 m 257
NamedP: "dv02"
 616 1223 l 257
 477 612 l 257
 756 612 l 257
NamedP: "dv02"
EndSplineSet
PickledDataWithLists: "(dp1
S'com.schriftgestaltung.Glyphs.lastChange'
p2
S'2017-07-11 17:15:08 +0000'
p3
s."
EndChar

StartChar: Alphatonos
Encoding: 9 902 9
GlifName: A_lphatonos
Width: 1233
VWidth: 0
Flags: W
LayerCount: 2
Fore
SplineSet
202 1638 m 257
NamedP: "hr00"
 484 1638 l 257
 116 1262 l 257
 -81 1262 l 257
NamedP: "iv01"
 202 1638 l 257
NamedP: "hr00"
436 1493 m 257
NamedP: "at01"
 797 1493 l 257
 1200 0 l 257
NamedP: "ab01"
 905 0 l 257
 813 369 l 257
NamedP: "dv01"
 418 369 l 257
 328 0 l 257
NamedP: "ab02"
 33 0 l 257
 436 1493 l 257
NamedP: "at01"
756 612 m 257
NamedP: "dv02"
 616 1223 l 257
 477 612 l 257
 756 612 l 257
NamedP: "dv02"
EndSplineSet
PickledDataWithLists: "(dp1
S'com.schriftgestaltung.Glyphs.lastChange'
p2
S'2017-07-11 17:15:08 +0000'
p3
s."
EndChar

StartChar: Amacron
Encoding: 10 256 10
GlifName: A_macron
Width: 1233
VWidth: 0
Flags: W
LayerCount: 2
Fore
SplineSet
301 1823 m 257
NamedP: "hr00"
 932 1823 l 257
NamedP: "dv02"
 932 1635 l 257
NamedP: "dv01"
 301 1635 l 257
 301 1823 l 257
NamedP: "hr00"
436 1493 m 257
NamedP: "at01"
 797 1493 l 257
 1200 0 l 257
NamedP: "ab01"
 905 0 l 257
 813 369 l 257
NamedP: "dv03"
 418 369 l 257
 328 0 l 257
NamedP: "ab02"
 33 0 l 257
 436 1493 l 257
NamedP: "at01"
756 612 m 257
NamedP: "dv04"
 616 1223 l 257
 477 612 l 257
 756 612 l 257
NamedP: "dv04"
EndSplineSet
PickledDataWithLists: "(dp1
S'com.schriftgestaltung.Glyphs.lastChange'
p2
S'2017-07-11 17:15:08 +0000'
p3
s."
EndChar

StartChar: Aogonek
Encoding: 11 260 11
GlifName: A_ogonek
Width: 1233
VWidth: 0
Flags: W
LayerCount: 2
Fore
SplineSet
1081 -254 m 256
NamedP: "dv02"
 1122 -254 1176 -244 1229 -223 c 257
NamedP: "sh01"
 1229 -379 l 257
 1157 -394 1093 -401 1042 -401 c 256
NamedP: "dv01"
 886 -401 801 -339 801 -224 c 256
NamedP: "dh01"
 801 -151 836 -81 912 0 c 257
NamedP: "ih01"
 905 0 l 257
 813 369 l 257
NamedP: "dv03"
 418 369 l 257
 328 0 l 257
NamedP: "ab01"
 33 0 l 257
 436 1493 l 257
NamedP: "at01"
 797 1493 l 257
 1200 0 l 257
NamedP: "ih02"
 1053 0 l 257
 1007 -62 993 -87 982 -106 c 256
 969 -130 963 -147 963 -166 c 256
NamedP: "dh02"
 963 -213 998 -254 1081 -254 c 256
NamedP: "dv02"
756 612 m 257
NamedP: "dv04"
 616 1223 l 257
NamedP: "hr01"
 477 612 l 257
 756 612 l 257
NamedP: "dv04"
EndSplineSet
PickledDataWithLists: "(dp1
S'com.schriftgestaltung.Glyphs.lastChange'
p2
S'2017-07-11 17:15:08 +0000'
p3
s."
EndChar

StartChar: Aring
Encoding: 12 197 12
GlifName: A_ring
Width: 1233
VWidth: 0
Flags: W
LayerCount: 2
Fore
SplineSet
418 1421 m 257
NamedP: "hr00"
 388 1447 366 1476 353 1507 c 256
 338 1539 332 1577 332 1614 c 256
NamedP: "sh01"
 332 1698 366 1769 415 1818 c 256
 462 1865 533 1901 617 1901 c 256
NamedP: "dv02"
 692 1901 763 1873 819 1817 c 256
 867 1769 901 1699 901 1615 c 256
NamedP: "sh02"
 901 1576 895 1538 880 1507 c 256
 866 1475 844 1446 815 1421 c 257
 1200 0 l 257
NamedP: "ab01"
 905 0 l 257
NamedP: "sh03"
 813 369 l 257
NamedP: "dv03"
 418 369 l 257
 328 0 l 257
NamedP: "sh04"
 33 0 l 257
 418 1421 l 257
NamedP: "hr00"
618 1485 m 256
 653 1485 684 1498 710 1524 c 256
 735 1549 748 1580 748 1616 c 256
NamedP: "ah01"
 748 1652 735 1683 709 1709 c 256
 682 1734 652 1747 617 1747 c 256
NamedP: "dv01"
 578 1747 547 1732 524 1709 c 256
 498 1683 485 1652 485 1616 c 256
NamedP: "sh05"
 485 1577 500 1547 523 1524 c 256
 550 1497 583 1485 618 1485 c 256
756 612 m 257
NamedP: "sh06"
 616 1223 l 257
 477 612 l 257
NamedP: "sh07"
 756 612 l 257
NamedP: "sh06"
EndSplineSet
PickledDataWithLists: "(dp1
S'com.schriftgestaltung.Glyphs.lastChange'
p2
S'2017-07-11 17:15:08 +0000'
p3
s."
EndChar

StartChar: Atilde
Encoding: 13 195 13
GlifName: A_tilde
Width: 1233
VWidth: 0
Flags: W
LayerCount: 2
Fore
SplineSet
268 1618 m 258
NamedP: "hr00"
 268 1691 289 1750 322 1789 c 256
 359 1833 411 1854 466 1854 c 256
NamedP: "sv01"
 491 1854 515 1850 539 1842 c 256
 558 1835 590 1821 614 1805 c 258
 674 1766 l 258
 682 1761 695 1753 715 1745 c 256
 728 1740 738 1737 750 1737 c 256
 774 1737 793 1747 806 1767 c 256
 819 1786 825 1815 825 1854 c 257
NamedP: "dv02"
 965 1854 l 257
 965 1849 963 1829 963 1826 c 256
 963 1754 945 1696 910 1653 c 256
 871 1606 823 1588 768 1588 c 256
NamedP: "dv01"
 744 1588 720 1592 696 1599 c 256
 669 1607 646 1618 618 1637 c 258
 564 1671 l 258
 561 1672 559 1675 552 1678 c 256
 524 1693 502 1704 479 1704 c 256
 458 1704 441 1694 428 1674 c 256
 415 1653 408 1627 408 1594 c 258
 408 1588 l 257
NamedP: "sv02"
 268 1588 l 257
 268 1618 l 258
NamedP: "hr00"
436 1493 m 257
NamedP: "at01"
 797 1493 l 257
 1200 0 l 257
NamedP: "ab01"
 905 0 l 257
 813 369 l 257
NamedP: "dv03"
 418 369 l 257
 328 0 l 257
NamedP: "ab02"
 33 0 l 257
 436 1493 l 257
NamedP: "at01"
756 612 m 257
NamedP: "dv04"
 616 1223 l 257
 477 612 l 257
 756 612 l 257
NamedP: "dv04"
EndSplineSet
PickledDataWithLists: "(dp1
S'com.schriftgestaltung.Glyphs.lastChange'
p2
S'2017-07-11 17:15:08 +0000'
p3
s."
EndChar

StartChar: B
Encoding: 14 66 14
GlifName: B_
Width: 1233
VWidth: 0
Flags: W
LayerCount: 2
Fore
SplineSet
125 1495 m 257
NamedP: "dh01"
 606 1495 l 258
 773 1495 898 1464 981 1401 c 256
 1064 1338 1106 1243 1106 1118 c 256
NamedP: "dh04"
 1106 1023 1081 948 1032 893 c 256
 983 840 911 808 815 799 c 257
NamedP: "ih01"
 932 788 1017 748 1073 684 c 256
 1130 619 1159 527 1159 409 c 256
NamedP: "sh01"
 1159 122 997 0 606 0 c 258
NamedP: "ab01"
 125 0 l 257
 125 1495 l 257
NamedP: "dh01"
606 913 m 258
NamedP: "hr01"
 686 913 734 926 766 954 c 256
 797 981 813 1018 813 1085 c 256
NamedP: "dh03"
 813 1144 800 1187 765 1218 c 256
 737 1242 693 1260 606 1260 c 258
NamedP: "sv01"
 410 1260 l 257
NamedP: "dh02"
 410 913 l 257
NamedP: "hr02"
 606 913 l 258
NamedP: "hr01"
606 236 m 258
NamedP: "sv02"
 700 236 766 252 804 284 c 256
 841 316 860 372 860 451 c 256
NamedP: "ih02"
 860 612 787 678 606 678 c 258
NamedP: "dv01"
 410 678 l 257
NamedP: "sh02"
 410 236 l 257
 606 236 l 258
NamedP: "sv02"
EndSplineSet
PickledDataWithLists: "(dp1
S'com.schriftgestaltung.Glyphs.lastChange'
p2
S'2017-07-11 17:15:08 +0000'
p3
s."
EndChar

StartChar: Beta
Encoding: 15 914 15
GlifName: B_eta
Width: 1233
VWidth: 0
Flags: W
LayerCount: 2
Fore
SplineSet
125 1495 m 257
NamedP: "dh01"
 606 1495 l 258
 939 1495 1106 1370 1106 1119 c 256
NamedP: "dh03"
 1106 924 1007 816 815 799 c 257
NamedP: "ih01"
 1050 775 1159 643 1159 407 c 256
NamedP: "sh02"
 1159 122 995 0 606 0 c 258
NamedP: "ab01"
 125 0 l 257
 125 1495 l 257
NamedP: "dh01"
606 913 m 258
NamedP: "dv01"
 755 913 813 961 813 1084 c 256
NamedP: "hr01"
 813 1208 753 1260 606 1260 c 258
NamedP: "sv01"
 410 1260 l 257
NamedP: "dh02"
 410 913 l 257
 606 913 l 258
NamedP: "dv01"
606 236 m 258
NamedP: "hr02"
 793 236 860 292 860 449 c 256
NamedP: "sh01"
 860 612 788 678 606 678 c 258
NamedP: "hr03"
 410 678 l 257
NamedP: "sh03"
 410 236 l 257
 606 236 l 258
NamedP: "hr02"
EndSplineSet
PickledDataWithLists: "(dp1
S'com.schriftgestaltung.Glyphs.lastChange'
p2
S'2017-07-11 17:15:08 +0000'
p3
s."
EndChar

StartChar: C
Encoding: 16 67 16
GlifName: C_
Width: 1233
VWidth: 0
Flags: W
LayerCount: 2
Fore
SplineSet
759 -29 m 256
NamedP: "hr00"
 560 -29 407 37 300 170 c 256
 194 303 141 494 141 745 c 256
NamedP: "dh01"
 141 996 194 1188 300 1321 c 256
 407 1454 560 1520 759 1520 c 256
NamedP: "at01"
 819 1520 872 1514 924 1502 c 256
 977 1490 1025 1472 1070 1448 c 257
 1070 1120 l 257
 1010 1176 965 1204 922 1223 c 256
 871 1246 823 1255 774 1255 c 256
NamedP: "sv01"
 667 1255 586 1212 531 1127 c 256
 476 1040 448 913 448 745 c 256
NamedP: "dh02"
 448 577 476 450 531 365 c 256
 586 279 667 236 774 236 c 256
NamedP: "dv01"
 825 236 875 247 923 269 c 256
 970 290 1013 319 1070 371 c 257
 1070 43 l 257
 1023 19 974 1 923 -11 c 256
 872 -23 819 -29 759 -29 c 256
NamedP: "hr00"
EndSplineSet
PickledDataWithLists: "(dp1
S'com.schriftgestaltung.Glyphs.lastChange'
p2
S'2017-07-11 17:15:08 +0000'
p3
s."
EndChar

StartChar: Cacute
Encoding: 18 262 18
GlifName: C_acute
Width: 1233
VWidth: 0
Flags: W
LayerCount: 2
Fore
SplineSet
794 1852 m 257
NamedP: "hr00"
 1078 1852 l 257
 792 1588 l 257
 595 1588 l 257
NamedP: "iv01"
 794 1852 l 257
NamedP: "hr00"
759 -29 m 256
NamedP: "dv01"
 560 -29 407 37 300 170 c 256
 194 303 141 494 141 745 c 256
NamedP: "dh01"
 141 996 194 1188 300 1321 c 256
 407 1454 560 1520 759 1520 c 256
NamedP: "at01"
 819 1520 872 1514 924 1502 c 256
 977 1490 1025 1472 1070 1448 c 257
 1070 1120 l 257
 1010 1176 965 1204 922 1223 c 256
 871 1246 823 1255 774 1255 c 256
NamedP: "sv01"
 667 1255 586 1212 531 1127 c 256
 476 1040 448 913 448 745 c 256
NamedP: "dh02"
 448 577 476 450 531 365 c 256
 586 279 667 236 774 236 c 256
NamedP: "dv02"
 825 236 875 247 923 269 c 256
 970 290 1013 319 1070 371 c 257
 1070 43 l 257
 1023 19 974 1 923 -11 c 256
 872 -23 819 -29 759 -29 c 256
NamedP: "dv01"
EndSplineSet
PickledDataWithLists: "(dp1
S'com.schriftgestaltung.Glyphs.lastChange'
p2
S'2017-07-11 17:15:08 +0000'
p3
s."
EndChar

StartChar: Ccaron
Encoding: 19 268 19
GlifName: C_caron
Width: 1233
VWidth: 0
Flags: W
LayerCount: 2
Fore
SplineSet
366 1852 m 257
NamedP: "hr00"
 544 1852 l 257
 742 1690 l 257
 941 1852 l 257
NamedP: "av01"
 1119 1852 l 257
 896 1588 l 257
 587 1588 l 257
 366 1852 l 257
NamedP: "hr00"
759 -29 m 256
NamedP: "dv01"
 560 -29 407 37 300 170 c 256
 194 303 141 494 141 745 c 256
NamedP: "dh01"
 141 996 194 1188 300 1321 c 256
 407 1454 560 1520 759 1520 c 256
NamedP: "at01"
 819 1520 872 1514 924 1502 c 256
 977 1490 1025 1472 1070 1448 c 257
 1070 1120 l 257
 1010 1176 965 1204 922 1223 c 256
 871 1246 823 1255 774 1255 c 256
NamedP: "sv01"
 667 1255 586 1212 531 1127 c 256
 476 1040 448 913 448 745 c 256
NamedP: "dh02"
 448 577 476 450 531 365 c 256
 586 279 667 236 774 236 c 256
NamedP: "dv02"
 825 236 875 247 923 269 c 256
 970 290 1013 319 1070 371 c 257
 1070 43 l 257
 1023 19 974 1 923 -11 c 256
 872 -23 819 -29 759 -29 c 256
NamedP: "dv01"
EndSplineSet
PickledDataWithLists: "(dp1
S'com.schriftgestaltung.Glyphs.lastChange'
p2
S'2017-07-11 17:15:08 +0000'
p3
s."
EndChar

StartChar: Ccedilla
Encoding: 20 199 20
GlifName: C_cedilla
Width: 1233
VWidth: 0
Flags: W
LayerCount: 2
Fore
SplineSet
774 1255 m 256
NamedP: "hr00"
 667 1255 586 1212 531 1127 c 256
 476 1040 448 913 448 745 c 256
NamedP: "sh02"
 448 577 476 450 531 365 c 256
 586 279 667 236 774 236 c 256
NamedP: "sv01"
 825 236 875 247 923 269 c 256
NamedP: "sh04"
 970 290 1013 319 1070 371 c 257
NamedP: "iv01"
 1070 43 l 257
 1023 19 974 1 923 -11 c 256
NamedP: "sh05"
 895 -18 867 -22 836 -25 c 257
NamedP: "ih01"
 864 -60 885 -91 898 -115 c 256
 916 -149 925 -184 925 -221 c 256
NamedP: "sh03"
 925 -282 902 -327 863 -356 c 256
 828 -383 774 -401 677 -401 c 256
NamedP: "dv01"
 645 -401 610 -399 577 -395 c 256
NamedP: "sv02"
 526 -388 504 -382 473 -375 c 257
 473 -219 l 257
NamedP: "ah01"
 504 -230 532 -238 560 -245 c 256
 588 -251 614 -254 638 -254 c 256
NamedP: "dv02"
 676 -254 706 -246 729 -231 c 256
 750 -216 761 -195 761 -170 c 256
 761 -151 754 -128 740 -101 c 256
 729 -80 714 -55 693 -26 c 257
NamedP: "ab01"
 524 -13 393 53 300 170 c 256
 194 303 141 494 141 745 c 256
NamedP: "sh01"
 141 996 194 1188 300 1321 c 256
 407 1454 560 1520 759 1520 c 256
NamedP: "at01"
 819 1520 872 1514 924 1502 c 256
NamedP: "sh06"
 977 1490 1025 1472 1070 1448 c 257
 1070 1120 l 257
NamedP: "iv02"
 1010 1176 965 1204 922 1223 c 256
NamedP: "sh07"
 871 1246 823 1255 774 1255 c 256
NamedP: "hr00"
EndSplineSet
PickledDataWithLists: "(dp1
S'com.schriftgestaltung.Glyphs.lastChange'
p2
S'2017-07-11 17:15:08 +0000'
p3
s."
EndChar

StartChar: Ccircumflex
Encoding: 21 264 21
GlifName: C_circumflex
Width: 1233
VWidth: 0
Flags: W
LayerCount: 2
Fore
SplineSet
465 1588 m 257
NamedP: "hr00"
 663 1749 l 257
 862 1588 l 257
 1040 1588 l 257
 817 1852 l 257
 508 1852 l 257
 287 1588 l 257
 465 1588 l 257
NamedP: "hr00"
1070 43 m 257
 1070 371 l 257
 1014 320 971 290 923 269 c 256
 875 247 825 236 774 236 c 256
 559 236 448 409 448 745 c 256
 448 1080 561 1255 774 1255 c 256
 878 1255 967 1215 1070 1120 c 257
 1070 1448 l 257
 979 1496 876 1520 759 1520 c 256
 627 1520 515 1490 422 1431 c 256
 237 1311 141 1078 141 745 c 256
 141 579 165 438 213 323 c 256
 308 91 495 -29 759 -29 c 256
 874 -29 977 -5 1070 43 c 257
EndSplineSet
PickledDataWithLists: "(dp1
S'com.schriftgestaltung.Glyphs.lastChange'
p2
S'2017-07-11 17:15:08 +0000'
p3
s."
EndChar

StartChar: Cdotaccent
Encoding: 22 266 22
GlifName: C_dotaccent
Width: 1233
VWidth: 0
Flags: W
LayerCount: 2
Fore
SplineSet
599 1596 m 258
NamedP: "hr00"
 582 1596 568 1610 568 1627 c 258
NamedP: "ah01"
 568 1811 l 258
 568 1828 582 1842 599 1842 c 258
NamedP: "dv03"
 812 1842 l 258
 829 1842 843 1828 843 1811 c 258
 843 1627 l 258
NamedP: "sh01"
 843 1610 829 1596 812 1596 c 258
 599 1596 l 258
NamedP: "hr00"
757 -29 m 256
NamedP: "dv01"
 360 -29 141 244 141 745 c 256
NamedP: "sh02"
 141 1248 360 1520 757 1520 c 256
NamedP: "at01"
 874 1520 979 1496 1070 1448 c 257
 1070 1120 l 257
 969 1213 877 1255 772 1255 c 256
NamedP: "sv01"
 559 1255 448 1084 448 745 c 256
NamedP: "sh03"
 448 406 559 236 772 236 c 256
NamedP: "dv02"
 877 236 969 278 1070 371 c 257
 1070 43 l 257
 977 -5 876 -29 757 -29 c 256
NamedP: "dv01"
EndSplineSet
PickledDataWithLists: "(dp1
S'com.schriftgestaltung.Glyphs.lastChange'
p2
S'2017-07-11 17:15:08 +0000'
p3
s."
EndChar

StartChar: Chi
Encoding: 23 935 23
GlifName: C_hi
Width: 1233
VWidth: 0
Flags: W
LayerCount: 2
Fore
SplineSet
465 758 m 257
NamedP: "hr00"
 39 1493 l 257
NamedP: "at01"
 344 1493 l 257
 616 1018 l 257
NamedP: "iv01"
 889 1493 l 257
NamedP: "at02"
 1194 1493 l 257
 770 758 l 257
 1206 0 l 257
NamedP: "ab01"
 901 0 l 257
 616 494 l 257
NamedP: "iv02"
 332 0 l 257
NamedP: "ab02"
 27 0 l 257
 465 758 l 257
NamedP: "hr00"
EndSplineSet
PickledDataWithLists: "(dp1
S'com.schriftgestaltung.Glyphs.lastChange'
p2
S'2017-07-11 17:15:08 +0000'
p3
s."
EndChar

StartChar: D
Encoding: 24 68 24
GlifName: D_
Width: 1233
VWidth: 0
Flags: W
LayerCount: 2
Fore
SplineSet
137 1493 m 257
NamedP: "hr00"
 453 1493 l 258
 697 1493 873 1435 980 1319 c 256
 1085 1204 1141 1018 1141 747 c 256
NamedP: "sh01"
 1141 484 1087 293 980 176 c 256
 873 59 697 0 453 0 c 258
NamedP: "ab01"
 137 0 l 257
 137 1493 l 257
NamedP: "hr00"
512 266 m 258
NamedP: "sv01"
 744 266 834 399 834 748 c 256
NamedP: "ah01"
 834 921 809 1045 760 1118 c 256
 711 1191 629 1227 512 1227 c 258
NamedP: "sv02"
 432 1227 l 257
NamedP: "sh02"
 432 266 l 257
 512 266 l 258
NamedP: "sv01"
EndSplineSet
PickledDataWithLists: "(dp1
S'com.schriftgestaltung.Glyphs.lastChange'
p2
S'2017-07-11 17:15:08 +0000'
p3
s."
EndChar

StartChar: Dcaron
Encoding: 25 270 25
GlifName: D_caron
Width: 1233
VWidth: 0
Flags: W
LayerCount: 2
Fore
SplineSet
227 1860 m 257
NamedP: "hr00"
 405 1860 l 257
 603 1698 l 257
 802 1860 l 257
NamedP: "av01"
 980 1860 l 257
NamedP: "ih01"
 757 1596 l 257
 448 1596 l 257
 227 1860 l 257
NamedP: "hr00"
137 1493 m 257
NamedP: "sh01"
 453 1493 l 258
 941 1493 1141 1276 1141 748 c 256
NamedP: "sh03"
 1141 219 941 0 453 0 c 258
NamedP: "ab01"
 137 0 l 257
 137 1493 l 257
NamedP: "sh01"
512 266 m 258
NamedP: "sv01"
 744 266 834 398 834 747 c 256
NamedP: "ah01"
 834 1096 744 1227 512 1227 c 258
NamedP: "sv02"
 432 1227 l 257
NamedP: "sh02"
 432 266 l 257
 512 266 l 258
NamedP: "sv01"
EndSplineSet
PickledDataWithLists: "(dp1
S'com.schriftgestaltung.Glyphs.lastChange'
p2
S'2017-07-11 17:15:08 +0000'
p3
s."
EndChar

StartChar: Dcroat
Encoding: 26 272 26
GlifName: D_croat
Width: 1233
VWidth: 0
Flags: W
LayerCount: 2
Fore
SplineSet
137 664 m 257
NamedP: "hr00"
 0 664 l 257
 0 901 l 257
 137 901 l 257
NamedP: "sh01"
 137 1493 l 257
NamedP: "at01"
 453 1493 l 258
 941 1493 1141 1276 1141 748 c 256
NamedP: "sh02"
 1141 219 941 0 453 0 c 258
NamedP: "ab01"
 137 0 l 257
 137 664 l 257
NamedP: "hr00"
512 266 m 258
NamedP: "sv01"
 744 266 834 398 834 747 c 256
NamedP: "ah01"
 834 1096 744 1227 512 1227 c 258
NamedP: "sv02"
 432 1227 l 257
NamedP: "sh04"
 432 901 l 257
NamedP: "sv03"
 643 901 l 257
 643 664 l 257
NamedP: "sv04"
 432 664 l 257
NamedP: "sh03"
 432 266 l 257
 512 266 l 258
NamedP: "sv01"
EndSplineSet
PickledDataWithLists: "(dp1
S'com.schriftgestaltung.Glyphs.lastChange'
p2
S'2017-07-11 17:15:08 +0000'
p3
s."
EndChar

StartChar: E
Encoding: 27 69 27
GlifName: E_
Width: 1233
VWidth: 0
Flags: W
LayerCount: 2
Fore
SplineSet
168 1493 m 257
NamedP: "hr00"
 1098 1493 l 257
 1098 1233 l 257
NamedP: "sv01"
 463 1233 l 257
NamedP: "dh01"
 463 911 l 257
 1038 911 l 257
NamedP: "dv02"
 1038 651 l 257
NamedP: "dv01"
 463 651 l 257
NamedP: "sh01"
 463 260 l 257
NamedP: "sv02"
 1098 260 l 257
 1098 0 l 257
NamedP: "ab01"
 168 0 l 257
 168 1493 l 257
NamedP: "hr00"
EndSplineSet
PickledDataWithLists: "(dp1
S'com.schriftgestaltung.Glyphs.lastChange'
p2
S'2017-07-11 17:15:08 +0000'
p3
s."
EndChar

StartChar: Eacute
Encoding: 28 201 28
GlifName: E_acute
Width: 1233
VWidth: 0
Flags: W
LayerCount: 2
Fore
SplineSet
699 1841 m 257
NamedP: "hr00"
 983 1841 l 257
 697 1577 l 257
 500 1577 l 257
NamedP: "iv01"
 699 1841 l 257
NamedP: "hr00"
168 1493 m 257
NamedP: "dh01"
 1098 1493 l 257
 1098 1233 l 257
NamedP: "sv01"
 463 1233 l 257
NamedP: "dh02"
 463 911 l 257
 1038 911 l 257
NamedP: "dv02"
 1038 651 l 257
NamedP: "dv01"
 463 651 l 257
NamedP: "sh01"
 463 260 l 257
NamedP: "sv02"
 1098 260 l 257
 1098 0 l 257
NamedP: "ab01"
 168 0 l 257
 168 1493 l 257
NamedP: "dh01"
EndSplineSet
PickledDataWithLists: "(dp1
S'com.schriftgestaltung.Glyphs.lastChange'
p2
S'2017-07-11 17:15:08 +0000'
p3
s."
EndChar

StartChar: Ecaron
Encoding: 29 282 29
GlifName: E_caron
Width: 1233
VWidth: 0
Flags: W
LayerCount: 2
Fore
SplineSet
293 1852 m 257
NamedP: "hr00"
 471 1852 l 257
 669 1690 l 257
 868 1852 l 257
NamedP: "av01"
 1046 1852 l 257
 823 1588 l 257
 514 1588 l 257
 293 1852 l 257
NamedP: "hr00"
168 1493 m 257
NamedP: "dh01"
 1098 1493 l 257
 1098 1233 l 257
NamedP: "sv01"
 463 1233 l 257
NamedP: "dh02"
 463 911 l 257
 1038 911 l 257
NamedP: "dv02"
 1038 651 l 257
NamedP: "dv01"
 463 651 l 257
NamedP: "sh01"
 463 260 l 257
NamedP: "sv02"
 1098 260 l 257
 1098 0 l 257
NamedP: "ab01"
 168 0 l 257
 168 1493 l 257
NamedP: "dh01"
EndSplineSet
PickledDataWithLists: "(dp1
S'com.schriftgestaltung.Glyphs.lastChange'
p2
S'2017-07-11 17:15:08 +0000'
p3
s."
EndChar

StartChar: Ecircumflex
Encoding: 30 202 30
GlifName: E_circumflex
Width: 1233
VWidth: 0
Flags: W
LayerCount: 2
Fore
SplineSet
492 1852 m 257
NamedP: "hr00"
 801 1852 l 257
 1024 1588 l 257
NamedP: "iv01"
 846 1588 l 257
 647 1749 l 257
 449 1588 l 257
 271 1588 l 257
NamedP: "ih01"
 492 1852 l 257
NamedP: "hr00"
168 1493 m 257
NamedP: "dh01"
 1098 1493 l 257
 1098 1233 l 257
NamedP: "sv01"
 463 1233 l 257
NamedP: "dh02"
 463 911 l 257
 1038 911 l 257
NamedP: "dv02"
 1038 651 l 257
NamedP: "dv01"
 463 651 l 257
NamedP: "sh01"
 463 260 l 257
NamedP: "sv02"
 1098 260 l 257
 1098 0 l 257
NamedP: "ab01"
 168 0 l 257
 168 1493 l 257
NamedP: "dh01"
EndSplineSet
PickledDataWithLists: "(dp1
S'com.schriftgestaltung.Glyphs.lastChange'
p2
S'2017-07-11 17:15:08 +0000'
p3
s."
EndChar

StartChar: Edieresis
Encoding: 31 203 31
GlifName: E_dieresis
Width: 1233
VWidth: 0
Flags: W
LayerCount: 2
Fore
SplineSet
362 1606 m 258
NamedP: "dv01"
 342 1606 332 1616 332 1636 c 258
NamedP: "ih01"
 332 1822 l 258
 332 1842 342 1852 362 1852 c 258
NamedP: "dv02"
 538 1852 l 258
 558 1852 568 1842 568 1822 c 258
 568 1636 l 258
NamedP: "sh01"
 568 1616 558 1606 538 1606 c 258
 362 1606 l 258
NamedP: "dv01"
757 1606 m 258
NamedP: "sv01"
 737 1606 727 1616 727 1636 c 258
NamedP: "dh03"
 727 1822 l 258
 727 1842 737 1852 757 1852 c 258
NamedP: "sv02"
 933 1852 l 258
 953 1852 963 1842 963 1822 c 258
 963 1636 l 258
NamedP: "dh04"
 963 1616 953 1606 933 1606 c 258
 757 1606 l 258
NamedP: "sv01"
168 1493 m 257
NamedP: "dh01"
 1098 1493 l 257
 1098 1233 l 257
NamedP: "sv03"
 463 1233 l 257
NamedP: "dh02"
 463 911 l 257
 1038 911 l 257
NamedP: "hr01"
 1038 651 l 257
NamedP: "dv03"
 463 651 l 257
NamedP: "sh02"
 463 260 l 257
NamedP: "sv04"
 1098 260 l 257
 1098 0 l 257
NamedP: "ab01"
 168 0 l 257
 168 1493 l 257
NamedP: "dh01"
EndSplineSet
PickledDataWithLists: "(dp1
S'com.schriftgestaltung.Glyphs.lastChange'
p2
S'2017-07-11 17:15:08 +0000'
p3
s."
EndChar

StartChar: Edotaccent
Encoding: 32 278 32
GlifName: E_dotaccent
Width: 1233
VWidth: 0
Flags: W
LayerCount: 2
Fore
SplineSet
541 1606 m 258
NamedP: "hr00"
 524 1606 510 1620 510 1637 c 258
NamedP: "ah01"
 510 1821 l 258
 510 1838 524 1852 541 1852 c 258
NamedP: "dv01"
 754 1852 l 258
 771 1852 785 1838 785 1821 c 258
 785 1637 l 258
NamedP: "sh01"
 785 1620 771 1606 754 1606 c 258
 541 1606 l 258
NamedP: "hr00"
168 1493 m 257
NamedP: "sh02"
 1098 1493 l 257
 1098 1233 l 257
NamedP: "sv01"
 463 1233 l 257
NamedP: "sh03"
 463 911 l 257
 1038 911 l 257
NamedP: "dv03"
 1038 651 l 257
NamedP: "dv02"
 463 651 l 257
NamedP: "sh04"
 463 260 l 257
NamedP: "sv02"
 1098 260 l 257
 1098 0 l 257
NamedP: "ab01"
 168 0 l 257
 168 1493 l 257
NamedP: "sh02"
EndSplineSet
PickledDataWithLists: "(dp1
S'com.schriftgestaltung.Glyphs.lastChange'
p2
S'2017-07-11 17:15:08 +0000'
p3
s."
EndChar

StartChar: Egrave
Encoding: 33 200 33
GlifName: E_grave
Width: 1233
VWidth: 0
Flags: W
LayerCount: 2
Fore
SplineSet
314 1842 m 257
NamedP: "hr00"
 598 1842 l 257
 797 1578 l 257
NamedP: "iv01"
 600 1578 l 257
 314 1842 l 257
NamedP: "hr00"
168 1493 m 257
NamedP: "dh01"
 1098 1493 l 257
 1098 1233 l 257
NamedP: "sv01"
 463 1233 l 257
NamedP: "dh02"
 463 911 l 257
 1038 911 l 257
NamedP: "dv02"
 1038 651 l 257
NamedP: "dv01"
 463 651 l 257
NamedP: "sh01"
 463 260 l 257
NamedP: "sv02"
 1098 260 l 257
 1098 0 l 257
NamedP: "ab01"
 168 0 l 257
 168 1493 l 257
NamedP: "dh01"
EndSplineSet
PickledDataWithLists: "(dp1
S'com.schriftgestaltung.Glyphs.lastChange'
p2
S'2017-07-11 17:15:08 +0000'
p3
s."
EndChar

StartChar: Emacron
Encoding: 34 274 34
GlifName: E_macron
Width: 1233
VWidth: 0
Flags: W
LayerCount: 2
Fore
SplineSet
332 1820 m 257
NamedP: "hr00"
 963 1820 l 257
NamedP: "dv02"
 963 1632 l 257
NamedP: "dv01"
 332 1632 l 257
 332 1820 l 257
NamedP: "hr00"
168 1493 m 257
NamedP: "dh01"
 1098 1493 l 257
 1098 1233 l 257
NamedP: "sv01"
 463 1233 l 257
NamedP: "dh02"
 463 911 l 257
 1038 911 l 257
NamedP: "dv04"
 1038 651 l 257
NamedP: "dv03"
 463 651 l 257
NamedP: "sh01"
 463 260 l 257
NamedP: "sv02"
 1098 260 l 257
 1098 0 l 257
NamedP: "ab01"
 168 0 l 257
 168 1493 l 257
NamedP: "dh01"
EndSplineSet
PickledDataWithLists: "(dp1
S'com.schriftgestaltung.Glyphs.lastChange'
p2
S'2017-07-11 17:15:08 +0000'
p3
s."
EndChar

StartChar: Eng
Encoding: 35 330 35
GlifName: E_ng
Width: 1233
VWidth: 0
Flags: W
LayerCount: 2
Fore
SplineSet
612 -199 m 257
NamedP: "sv01"
 649 -199 l 258
 782 -199 831 -133 831 44 c 258
NamedP: "ah01"
 831 1015 l 258
 831 1182 773 1255 641 1255 c 256
NamedP: "sv02"
 481 1255 401 1145 401 972 c 258
 401 0 l 257
NamedP: "hr01"
 106 0 l 257
NamedP: "sh01"
 106 1493 l 257
NamedP: "at01"
 372 1493 l 257
 401 1253 l 257
NamedP: "sh02"
 452 1426 572 1522 747 1522 c 256
NamedP: "sv03"
 992 1522 1125 1327 1125 942 c 258
 1125 58 l 258
NamedP: "sh03"
 1125 -298 1009 -426 733 -426 c 258
NamedP: "ab01"
 612 -426 l 257
 612 -199 l 257
NamedP: "sv01"
EndSplineSet
PickledDataWithLists: "(dp1
S'com.schriftgestaltung.Glyphs.lastChange'
p2
S'2017-07-11 17:15:08 +0000'
p3
s."
EndChar

StartChar: Eogonek
Encoding: 36 280 36
GlifName: E_ogonek
Width: 1233
VWidth: 0
Flags: W
LayerCount: 2
Fore
SplineSet
951 -254 m 256
NamedP: "dv02"
 992 -254 1046 -244 1099 -223 c 257
NamedP: "sh02"
 1099 -379 l 257
 1027 -394 963 -401 912 -401 c 256
NamedP: "dv01"
 756 -401 671 -339 671 -224 c 256
NamedP: "hr01"
 671 -151 706 -81 782 0 c 257
NamedP: "ab01"
 168 0 l 257
NamedP: "dh01"
 168 1493 l 257
NamedP: "at01"
 1098 1493 l 257
NamedP: "sh03"
 1098 1233 l 257
NamedP: "sv01"
 463 1233 l 257
NamedP: "sh04"
 463 911 l 257
 1038 911 l 257
NamedP: "dv04"
 1038 651 l 257
NamedP: "dv03"
 463 651 l 257
 463 260 l 257
NamedP: "dh02"
 1098 260 l 257
NamedP: "sv02"
 1098 0 l 257
NamedP: "sh01"
 923 0 l 257
 877 -62 863 -87 852 -106 c 256
 839 -130 833 -147 833 -166 c 256
NamedP: "dh03"
 833 -213 868 -254 951 -254 c 256
NamedP: "dv02"
EndSplineSet
PickledDataWithLists: "(dp1
S'com.schriftgestaltung.Glyphs.lastChange'
p2
S'2017-07-11 17:15:08 +0000'
p3
s."
EndChar

StartChar: Epsilon
Encoding: 37 917 37
GlifName: E_psilon
Width: 1233
VWidth: 0
Flags: W
LayerCount: 2
Fore
SplineSet
168 1493 m 257
NamedP: "hr00"
 1098 1493 l 257
 1098 1233 l 257
NamedP: "sv01"
 463 1233 l 257
NamedP: "dh01"
 463 911 l 257
 1038 911 l 257
NamedP: "dv02"
 1038 651 l 257
NamedP: "dv01"
 463 651 l 257
NamedP: "sh01"
 463 260 l 257
NamedP: "sv02"
 1098 260 l 257
 1098 0 l 257
NamedP: "ab01"
 168 0 l 257
 168 1493 l 257
NamedP: "hr00"
EndSplineSet
PickledDataWithLists: "(dp1
S'com.schriftgestaltung.Glyphs.lastChange'
p2
S'2017-07-11 17:15:08 +0000'
p3
s."
EndChar

StartChar: Epsilontonos
Encoding: 38 904 38
GlifName: E_psilontonos
Width: 1233
VWidth: 0
Flags: W
LayerCount: 2
Fore
SplineSet
-68 1638 m 257
NamedP: "hr00"
 214 1638 l 257
NamedP: "ih01"
 -154 1262 l 257
 -351 1262 l 257
NamedP: "iv01"
 -68 1638 l 257
NamedP: "hr00"
168 1493 m 257
NamedP: "dh01"
 1098 1493 l 257
 1098 1233 l 257
NamedP: "sv01"
 463 1233 l 257
NamedP: "dh02"
 463 911 l 257
 1038 911 l 257
NamedP: "dv02"
 1038 651 l 257
NamedP: "dv01"
 463 651 l 257
NamedP: "sh01"
 463 260 l 257
NamedP: "sv02"
 1098 260 l 257
 1098 0 l 257
NamedP: "ab01"
 168 0 l 257
 168 1493 l 257
NamedP: "dh01"
EndSplineSet
PickledDataWithLists: "(dp1
S'com.schriftgestaltung.Glyphs.lastChange'
p2
S'2017-07-11 17:15:08 +0000'
p3
s."
EndChar

StartChar: Eta
Encoding: 39 919 39
GlifName: E_ta
Width: 1233
VWidth: 0
Flags: W
LayerCount: 2
Fore
SplineSet
137 1493 m 257
NamedP: "hr00"
 432 1493 l 257
NamedP: "sh01"
 432 924 l 257
 801 924 l 257
NamedP: "dv02"
 801 1493 l 257
NamedP: "ah01"
 1096 1493 l 257
NamedP: "sh02"
 1096 0 l 257
NamedP: "ab01"
 801 0 l 257
NamedP: "sh03"
 801 664 l 257
NamedP: "dv01"
 432 664 l 257
NamedP: "sh04"
 432 0 l 257
NamedP: "ab02"
 137 0 l 257
 137 1493 l 257
NamedP: "hr00"
EndSplineSet
PickledDataWithLists: "(dp1
S'com.schriftgestaltung.Glyphs.lastChange'
p2
S'2017-07-11 17:15:08 +0000'
p3
s."
EndChar

StartChar: Etatonos
Encoding: 40 905 40
GlifName: E_tatonos
Width: 1233
VWidth: 0
Flags: W
LayerCount: 2
Fore
SplineSet
-108 1638 m 257
NamedP: "hr00"
 174 1638 l 257
NamedP: "ih01"
 -194 1262 l 257
 -391 1262 l 257
NamedP: "iv01"
 -108 1638 l 257
NamedP: "hr00"
137 1493 m 257
NamedP: "sh01"
 432 1493 l 257
NamedP: "sh02"
 432 924 l 257
 801 924 l 257
NamedP: "dv02"
 801 1493 l 257
NamedP: "ah01"
 1096 1493 l 257
NamedP: "sh03"
 1096 0 l 257
NamedP: "ab01"
 801 0 l 257
NamedP: "sh04"
 801 664 l 257
NamedP: "dv01"
 432 664 l 257
NamedP: "sh05"
 432 0 l 257
NamedP: "ab02"
 137 0 l 257
 137 1493 l 257
NamedP: "sh01"
EndSplineSet
PickledDataWithLists: "(dp1
S'com.schriftgestaltung.Glyphs.lastChange'
p2
S'2017-07-11 17:15:08 +0000'
p3
s."
EndChar

StartChar: Eth
Encoding: 41 208 41
GlifName: E_th
Width: 1233
VWidth: 0
Flags: W
LayerCount: 2
Fore
SplineSet
137 664 m 257
NamedP: "hr00"
 0 664 l 257
 0 901 l 257
 137 901 l 257
NamedP: "sh01"
 137 1493 l 257
NamedP: "at01"
 453 1493 l 258
 697 1493 873 1435 980 1319 c 256
 1085 1204 1141 1018 1141 747 c 256
NamedP: "sh02"
 1141 484 1087 293 980 176 c 256
 873 59 697 0 453 0 c 258
NamedP: "ab01"
 137 0 l 257
 137 664 l 257
NamedP: "hr00"
512 266 m 258
NamedP: "sv01"
 744 266 834 399 834 748 c 256
NamedP: "ah01"
 834 921 809 1045 760 1118 c 256
 711 1191 629 1227 512 1227 c 258
NamedP: "sv02"
 432 1227 l 257
NamedP: "sh04"
 432 901 l 257
NamedP: "sv03"
 643 901 l 257
 643 664 l 257
NamedP: "sv04"
 432 664 l 257
NamedP: "sh03"
 432 266 l 257
 512 266 l 258
NamedP: "sv01"
EndSplineSet
PickledDataWithLists: "(dp1
S'com.schriftgestaltung.Glyphs.lastChange'
p2
S'2017-07-11 17:15:08 +0000'
p3
s."
EndChar

StartChar: Euro
Encoding: 42 8364 42
GlifName: E_uro
Width: 1233
VWidth: 0
Flags: W
LayerCount: 2
Fore
SplineSet
779 -29 m 256
NamedP: "hr00"
 623 -29 496 15 399 102 c 256
 301 190 238 317 209 483 c 257
NamedP: "dv02"
 6 483 l 257
 90 670 l 257
 186 670 l 257
NamedP: "dv03"
 185 679 185 689 185 700 c 256
NamedP: "sh01"
 185 703 184 705 184 745 c 256
NamedP: "dh01"
 184 786 185 786 185 790 c 256
NamedP: "sh02"
 185 801 185 810 186 821 c 257
NamedP: "sh03"
 6 821 l 257
 90 1010 l 257
 209 1010 l 257
NamedP: "dv04"
 238 1175 301 1302 399 1390 c 256
 496 1478 623 1520 778 1520 c 256
NamedP: "at01"
 837 1520 887 1514 936 1502 c 256
 985 1490 1032 1472 1077 1448 c 257
 1077 1120 l 257
 1028 1172 980 1210 933 1234 c 256
 886 1258 837 1270 786 1270 c 256
NamedP: "sv01"
 710 1270 652 1244 609 1205 c 256
 566 1165 531 1102 508 1010 c 257
NamedP: "sv02"
 950 1010 l 257
 866 821 l 257
NamedP: "sv03"
 484 821 l 257
 483 810 482 799 482 787 c 256
NamedP: "sh04"
 482 780 481 777 481 742 c 256
NamedP: "dh02"
 481 707 482 707 482 703 c 256
NamedP: "sh05"
 482 692 482 681 483 670 c 257
NamedP: "sh06"
 799 670 l 257
 715 483 l 257
NamedP: "sv04"
 508 483 l 257
 524 399 556 334 604 289 c 256
 655 242 712 221 783 221 c 256
NamedP: "dv01"
 836 221 886 233 933 257 c 256
 980 281 1028 319 1077 371 c 257
 1077 43 l 257
 1033 19 987 1 938 -11 c 256
 889 -23 836 -29 779 -29 c 256
NamedP: "hr00"
EndSplineSet
PickledDataWithLists: "(dp1
S'com.schriftgestaltung.Glyphs.lastChange'
p2
S'2017-07-11 17:15:08 +0000'
p3
s."
EndChar

StartChar: F
Encoding: 43 70 43
GlifName: F_
Width: 1233
VWidth: 0
Flags: W
LayerCount: 2
Fore
SplineSet
182 1493 m 257
NamedP: "hr00"
 1112 1493 l 257
 1112 1233 l 257
NamedP: "sv01"
 477 1233 l 257
NamedP: "dh01"
 477 901 l 257
 1055 901 l 257
NamedP: "dv02"
 1055 641 l 257
NamedP: "dv01"
 477 641 l 257
NamedP: "sh01"
 477 0 l 257
NamedP: "ab01"
 182 0 l 257
 182 1493 l 257
NamedP: "hr00"
EndSplineSet
PickledDataWithLists: "(dp1
S'com.schriftgestaltung.Glyphs.lastChange'
p2
S'2017-07-11 17:15:08 +0000'
p3
s."
EndChar

StartChar: G
Encoding: 44 71 44
GlifName: G_
Width: 1233
VWidth: 0
Flags: W
LayerCount: 2
Fore
SplineSet
720 -29 m 256
NamedP: "dv01"
 529 -29 379 39 275 172 c 256
 175 300 117 487 117 747 c 256
NamedP: "dh01"
 117 995 169 1188 277 1321 c 256
 384 1454 535 1520 732 1520 c 256
NamedP: "at01"
 800 1520 855 1512 914 1495 c 256
 971 1478 1025 1454 1077 1421 c 257
NamedP: "hr01"
 1077 1094 l 257
NamedP: "ih01"
 1036 1147 988 1188 935 1215 c 256
 882 1242 823 1255 759 1255 c 256
NamedP: "sv01"
 646 1255 562 1213 507 1129 c 256
 452 1044 424 916 424 747 c 256
NamedP: "dh02"
 424 580 451 453 504 365 c 256
 555 282 630 236 738 236 c 256
NamedP: "dv02"
 765 236 794 238 817 245 c 257
 846 252 857 259 872 270 c 257
NamedP: "sh01"
 872 555 l 257
 670 555 l 257
NamedP: "dv03"
 670 803 l 257
NamedP: "dh03"
 1130 803 l 257
NamedP: "dh04"
 1130 119 l 257
 1074 71 1012 34 943 9 c 256
 874 -16 804 -29 720 -29 c 256
NamedP: "dv01"
EndSplineSet
PickledDataWithLists: "(dp1
S'com.schriftgestaltung.Glyphs.lastChange'
p2
S'2017-07-11 17:15:08 +0000'
p3
s."
EndChar

StartChar: Gamma
Encoding: 45 915 45
GlifName: G_amma
Width: 1233
VWidth: 0
Flags: W
LayerCount: 2
Fore
SplineSet
182 1493 m 257
NamedP: "hr00"
 1112 1493 l 257
 1112 1233 l 257
NamedP: "sv01"
 477 1233 l 257
NamedP: "dh01"
 477 0 l 257
NamedP: "ab01"
 182 0 l 257
 182 1493 l 257
NamedP: "hr00"
EndSplineSet
PickledDataWithLists: "(dp1
S'com.schriftgestaltung.Glyphs.lastChange'
p2
S'2017-07-11 17:15:08 +0000'
p3
s."
EndChar

StartChar: Gbreve
Encoding: 46 286 46
GlifName: G_breve
Width: 1233
VWidth: 0
Flags: W
LayerCount: 2
Fore
SplineSet
676 1588 m 256
NamedP: "dv03"
 578 1588 500 1611 443 1656 c 256
 387 1699 352 1760 341 1852 c 257
NamedP: "sv02"
 482 1852 l 257
 495 1813 518 1783 551 1762 c 256
 584 1741 625 1731 676 1731 c 256
NamedP: "dv04"
 727 1731 769 1741 801 1761 c 256
NamedP: "hr01"
 834 1782 856 1812 869 1852 c 257
NamedP: "sv01"
 1012 1852 l 257
 1002 1767 968 1701 911 1656 c 256
 851 1609 771 1588 676 1588 c 256
NamedP: "dv03"
720 -29 m 256
NamedP: "dv01"
 529 -29 379 39 275 172 c 256
 175 300 117 487 117 747 c 256
NamedP: "dh01"
 117 995 169 1188 277 1321 c 256
 384 1454 535 1520 732 1520 c 256
NamedP: "at01"
 800 1520 855 1512 914 1495 c 256
 971 1478 1025 1454 1077 1421 c 257
 1077 1094 l 257
NamedP: "ih01"
 1036 1147 988 1188 935 1215 c 256
 882 1242 823 1255 759 1255 c 256
NamedP: "sv03"
 646 1255 562 1213 507 1129 c 256
 452 1044 424 916 424 747 c 256
NamedP: "dh02"
 424 580 451 453 504 365 c 256
 555 282 628 236 739 236 c 256
NamedP: "dv02"
 766 236 792 239 817 245 c 256
 846 252 857 259 872 270 c 257
NamedP: "sh01"
 872 555 l 257
 670 555 l 257
NamedP: "dv05"
 670 803 l 257
NamedP: "hr02"
 1130 803 l 257
NamedP: "dh03"
 1130 119 l 257
NamedP: "hr03"
 1074 71 1012 34 943 9 c 256
 874 -16 804 -29 720 -29 c 256
NamedP: "dv01"
EndSplineSet
PickledDataWithLists: "(dp1
S'com.schriftgestaltung.Glyphs.lastChange'
p2
S'2017-07-11 17:15:08 +0000'
p3
s."
EndChar

StartChar: Gcaron
Encoding: 47 486 47
GlifName: G_caron
Width: 1233
VWidth: 0
Flags: W
LayerCount: 2
Fore
SplineSet
337 1852 m 257
NamedP: "ih01"
 515 1852 l 257
 713 1690 l 257
 912 1852 l 257
NamedP: "av01"
 1090 1852 l 257
NamedP: "ih02"
 867 1588 l 257
NamedP: "hr01"
 558 1588 l 257
 337 1852 l 257
NamedP: "ih01"
719 -29 m 256
NamedP: "dv01"
 338 -29 117 251 117 747 c 256
NamedP: "dh01"
 117 1247 342 1520 727 1520 c 256
NamedP: "at01"
 862 1520 970 1488 1077 1421 c 257
 1077 1094 l 257
NamedP: "ih03"
 994 1201 887 1255 758 1255 c 256
NamedP: "sv01"
 535 1255 424 1086 424 747 c 256
NamedP: "dh02"
 424 411 528 236 743 236 c 256
NamedP: "dv02"
 796 236 844 247 872 270 c 257
NamedP: "sh01"
 872 555 l 257
 670 555 l 257
NamedP: "dv03"
 670 803 l 257
NamedP: "dh03"
 1130 803 l 257
NamedP: "dh04"
 1130 119 l 257
 1015 20 878 -29 719 -29 c 256
NamedP: "dv01"
EndSplineSet
PickledDataWithLists: "(dp1
S'com.schriftgestaltung.Glyphs.lastChange'
p2
S'2017-07-11 17:15:08 +0000'
p3
s."
EndChar

StartChar: Gcircumflex
Encoding: 48 284 48
GlifName: G_circumflex
Width: 1233
VWidth: 0
Flags: W
LayerCount: 2
Fore
SplineSet
472 1588 m 257
NamedP: "hr00"
 670 1749 l 257
 869 1588 l 257
 1047 1588 l 257
 824 1852 l 257
 515 1852 l 257
 294 1588 l 257
 472 1588 l 257
NamedP: "hr00"
1130 119 m 257
 1130 803 l 257
 670 803 l 257
 670 555 l 257
 872 555 l 257
NamedP: "hr01"
 872 270 l 257
 853 257 842 252 817 245 c 256
 797 239 771 236 738 236 c 256
 531 236 424 414 424 747 c 256
 424 1088 532 1255 759 1255 c 256
 888 1255 994 1201 1077 1094 c 257
 1077 1421 l 257
 973 1487 858 1520 732 1520 c 256
 601 1520 489 1491 398 1432 c 256
 214 1313 117 1079 117 747 c 256
 117 583 141 443 188 326 c 256
 283 94 465 -29 720 -29 c 256
 877 -29 1017 22 1130 119 c 257
EndSplineSet
PickledDataWithLists: "(dp1
S'com.schriftgestaltung.Glyphs.lastChange'
p2
S'2017-07-11 17:15:08 +0000'
p3
s."
EndChar

StartChar: Gdotaccent
Encoding: 49 288 49
GlifName: G_dotaccent
Width: 1233
VWidth: 0
Flags: W
LayerCount: 2
Fore
SplineSet
580 1606 m 258
NamedP: "dv03"
 563 1606 549 1620 549 1637 c 258
NamedP: "dh03"
 549 1821 l 258
 549 1838 563 1852 580 1852 c 258
NamedP: "dv04"
 793 1852 l 258
 810 1852 824 1838 824 1821 c 258
 824 1637 l 258
NamedP: "hr01"
 824 1620 810 1606 793 1606 c 258
 580 1606 l 258
NamedP: "dv03"
719 -29 m 256
NamedP: "dv01"
 338 -29 117 251 117 747 c 256
NamedP: "dh01"
 117 1247 342 1520 727 1520 c 256
NamedP: "at01"
 862 1520 970 1488 1077 1421 c 257
 1077 1094 l 257
NamedP: "ih02"
 994 1201 887 1255 758 1255 c 256
NamedP: "sv01"
 534 1255 424 1091 424 748 c 256
NamedP: "dh02"
 424 412 529 236 741 236 c 256
NamedP: "dv02"
 786 236 828 243 853 258 c 256
 865 265 872 273 872 293 c 258
NamedP: "sh02"
 872 525 l 258
 872 545 862 555 842 555 c 258
 670 555 l 257
NamedP: "dv05"
 670 803 l 257
NamedP: "ih01"
 1130 803 l 257
NamedP: "sh01"
 1130 119 l 257
 1015 20 878 -29 719 -29 c 256
NamedP: "dv01"
EndSplineSet
PickledDataWithLists: "(dp1
S'com.schriftgestaltung.Glyphs.lastChange'
p2
S'2017-07-11 17:15:08 +0000'
p3
s."
EndChar

StartChar: H
Encoding: 50 72 50
GlifName: H_
Width: 1233
VWidth: 0
Flags: W
LayerCount: 2
Fore
SplineSet
137 1493 m 257
NamedP: "hr00"
 432 1493 l 257
NamedP: "sh01"
 432 924 l 257
 801 924 l 257
NamedP: "dv02"
 801 1493 l 257
NamedP: "ah01"
 1096 1493 l 257
NamedP: "sh02"
 1096 0 l 257
NamedP: "ab01"
 801 0 l 257
NamedP: "sh03"
 801 664 l 257
NamedP: "dv01"
 432 664 l 257
NamedP: "sh04"
 432 0 l 257
NamedP: "ab02"
 137 0 l 257
 137 1493 l 257
NamedP: "hr00"
EndSplineSet
PickledDataWithLists: "(dp1
S'com.schriftgestaltung.Glyphs.lastChange'
p2
S'2017-07-11 17:15:08 +0000'
p3
s."
EndChar

StartChar: Hbar
Encoding: 51 294 51
GlifName: H_bar
Width: 1233
VWidth: 0
Flags: W
LayerCount: 2
Fore
SplineSet
137 1105 m 257
NamedP: "hr00"
 3 1105 l 257
 3 1269 l 257
 137 1269 l 257
NamedP: "sh01"
 137 1493 l 257
NamedP: "at01"
 432 1493 l 257
NamedP: "sh03"
 432 1269 l 257
NamedP: "sv01"
 801 1269 l 257
NamedP: "ah01"
 801 1493 l 257
NamedP: "at02"
 1095 1493 l 257
 1095 1269 l 257
NamedP: "sh04"
 1230 1269 l 257
 1230 1105 l 257
NamedP: "sv02"
 1095 1105 l 257
NamedP: "sh05"
 1095 0 l 257
NamedP: "ab01"
 801 0 l 257
NamedP: "sh06"
 801 664 l 257
NamedP: "dv01"
 432 664 l 257
NamedP: "sh07"
 432 0 l 257
NamedP: "ab02"
 137 0 l 257
 137 1105 l 257
NamedP: "hr00"
801 924 m 257
NamedP: "sh08"
 801 1105 l 257
NamedP: "sv03"
 432 1105 l 257
NamedP: "sh02"
 432 924 l 257
 801 924 l 257
NamedP: "sh08"
EndSplineSet
PickledDataWithLists: "(dp1
S'com.schriftgestaltung.Glyphs.lastChange'
p2
S'2017-07-11 17:15:08 +0000'
p3
s."
EndChar

StartChar: Hcircumflex
Encoding: 52 292 52
GlifName: H_circumflex
Width: 1233
VWidth: 0
Flags: W
LayerCount: 2
Fore
SplineSet
418 1588 m 257
NamedP: "hr00"
 616 1749 l 257
 815 1588 l 257
 993 1588 l 257
 770 1852 l 257
 461 1852 l 257
 240 1588 l 257
 418 1588 l 257
NamedP: "hr00"
432 0 m 257
 432 664 l 257
 801 664 l 257
 801 0 l 257
 1096 0 l 257
 1096 1493 l 257
 801 1493 l 257
 801 924 l 257
 432 924 l 257
 432 1493 l 257
 137 1493 l 257
 137 0 l 257
 432 0 l 257
EndSplineSet
PickledDataWithLists: "(dp1
S'com.schriftgestaltung.Glyphs.lastChange'
p2
S'2017-07-11 17:15:08 +0000'
p3
s."
EndChar

StartChar: I
Encoding: 53 73 53
GlifName: I_
Width: 1233
VWidth: 0
Flags: W
LayerCount: 2
Fore
SplineSet
172 260 m 257
NamedP: "hr00"
 469 260 l 257
NamedP: "dh01"
 469 1233 l 257
NamedP: "sv01"
 172 1233 l 257
 172 1493 l 257
NamedP: "at01"
 1061 1493 l 257
 1061 1233 l 257
NamedP: "sv02"
 764 1233 l 257
NamedP: "sv03"
 764 260 l 257
NamedP: "dh02"
 1061 260 l 257
NamedP: "sv04"
 1061 0 l 257
NamedP: "ab01"
 172 0 l 257
 172 260 l 257
NamedP: "hr00"
EndSplineSet
PickledDataWithLists: "(dp1
S'com.schriftgestaltung.Glyphs.lastChange'
p2
S'2017-07-11 17:15:08 +0000'
p3
s."
EndChar

StartChar: IJ
Encoding: 54 306 54
GlifName: I_J_
Width: 1233
VWidth: 0
Flags: W
LayerCount: 2
Fore
SplineSet
135 295 m 257
NamedP: "hr00"
 509 295 l 258
 563 295 612 308 657 335 c 256
 748 387 804 483 804 590 c 258
 804 1494 l 257
 1098 1494 l 257
 1099 590 l 257
 1099 483 1073 384 1020 295 c 256
 913 112 721 0 509 0 c 258
 135 0 l 257
NamedP: "hr01"
 135 295 l 257
NamedP: "hr00"
135 1493 m 257
 430 1493 l 257
 430 590 l 257
 135 590 l 257
 135 1493 l 257
EndSplineSet
PickledDataWithLists: "(dp1
S'com.schriftgestaltung.Glyphs.lastChange'
p2
S'2017-07-11 17:15:08 +0000'
p3
s."
EndChar

StartChar: Iacute
Encoding: 55 205 55
GlifName: I_acute
Width: 1233
VWidth: 0
Flags: W
LayerCount: 2
Fore
SplineSet
668 1852 m 257
NamedP: "hr00"
 952 1852 l 257
 666 1588 l 257
 469 1588 l 257
NamedP: "iv01"
 668 1852 l 257
NamedP: "hr00"
172 260 m 257
NamedP: "sv01"
 469 260 l 257
 469 1233 l 257
NamedP: "dh01"
 172 1233 l 257
 172 1493 l 257
NamedP: "at01"
 1061 1493 l 257
 1061 1233 l 257
NamedP: "sv02"
 764 1233 l 257
NamedP: "dh02"
 764 260 l 257
NamedP: "sv03"
 1061 260 l 257
NamedP: "sv04"
 1061 0 l 257
NamedP: "ab01"
 172 0 l 257
 172 260 l 257
NamedP: "sv01"
EndSplineSet
PickledDataWithLists: "(dp1
S'com.schriftgestaltung.Glyphs.lastChange'
p2
S'2017-07-11 17:15:08 +0000'
p3
s."
EndChar

StartChar: Icircumflex
Encoding: 56 206 56
GlifName: I_circumflex
Width: 1233
VWidth: 0
Flags: W
LayerCount: 2
Fore
SplineSet
461 1852 m 257
NamedP: "hr00"
 770 1852 l 257
 993 1588 l 257
NamedP: "iv01"
 815 1588 l 257
 616 1749 l 257
 418 1588 l 257
 240 1588 l 257
NamedP: "iv02"
 461 1852 l 257
NamedP: "hr00"
172 260 m 257
NamedP: "sv01"
 469 260 l 257
NamedP: "dh01"
 469 1233 l 257
NamedP: "sv02"
 172 1233 l 257
 172 1493 l 257
NamedP: "at01"
 1061 1493 l 257
 1061 1233 l 257
NamedP: "sv03"
 764 1233 l 257
NamedP: "sv04"
 764 260 l 257
NamedP: "dh02"
 1061 260 l 257
NamedP: "sv05"
 1061 0 l 257
NamedP: "ab01"
 172 0 l 257
 172 260 l 257
NamedP: "sv01"
EndSplineSet
PickledDataWithLists: "(dp1
S'com.schriftgestaltung.Glyphs.lastChange'
p2
S'2017-07-11 17:15:08 +0000'
p3
s."
EndChar

StartChar: Idieresis
Encoding: 57 207 57
GlifName: I_dieresis
Width: 1233
VWidth: 0
Flags: W
LayerCount: 2
Fore
SplineSet
331 1606 m 258
NamedP: "dv01"
 311 1606 301 1616 301 1636 c 258
NamedP: "sh01"
 301 1822 l 258
 301 1842 311 1852 331 1852 c 258
NamedP: "dv02"
 507 1852 l 258
 527 1852 537 1842 537 1822 c 258
 537 1636 l 258
NamedP: "sh02"
 537 1616 527 1606 507 1606 c 258
 331 1606 l 258
NamedP: "dv01"
726 1606 m 258
NamedP: "sv01"
 706 1606 696 1616 696 1636 c 258
NamedP: "sh04"
 696 1822 l 258
 696 1842 706 1852 726 1852 c 258
NamedP: "sv02"
 902 1852 l 258
 922 1852 932 1842 932 1822 c 258
NamedP: "hr01"
 932 1636 l 258
NamedP: "sh05"
 932 1616 922 1606 902 1606 c 258
 726 1606 l 258
NamedP: "sv01"
172 260 m 257
NamedP: "sv03"
 469 260 l 257
NamedP: "sh03"
 469 1233 l 257
NamedP: "sv04"
 172 1233 l 257
 172 1493 l 257
NamedP: "at01"
 1061 1493 l 257
 1061 1233 l 257
NamedP: "sv05"
 764 1233 l 257
NamedP: "sv06"
 764 260 l 257
NamedP: "sh06"
 1061 260 l 257
NamedP: "sv07"
 1061 0 l 257
NamedP: "ab01"
 172 0 l 257
 172 260 l 257
NamedP: "sv03"
EndSplineSet
PickledDataWithLists: "(dp1
S'com.schriftgestaltung.Glyphs.lastChange'
p2
S'2017-07-11 17:15:08 +0000'
p3
s."
EndChar

StartChar: Idotaccent
Encoding: 58 304 58
GlifName: I_dotaccent
Width: 1233
VWidth: 0
Flags: W
LayerCount: 2
Fore
SplineSet
509 1606 m 258
NamedP: "hr00"
 489 1606 479 1616 479 1636 c 258
NamedP: "sh01"
 479 1822 l 258
 479 1842 489 1852 509 1852 c 258
NamedP: "dv01"
 724 1852 l 258
 744 1852 754 1842 754 1822 c 258
NamedP: "sh02"
 754 1636 l 258
 754 1616 744 1606 724 1606 c 258
 509 1606 l 258
NamedP: "hr00"
172 260 m 257
NamedP: "sv01"
 469 260 l 257
NamedP: "dh01"
 469 1233 l 257
NamedP: "sv02"
 172 1233 l 257
 172 1493 l 257
NamedP: "at01"
 1061 1493 l 257
 1061 1233 l 257
NamedP: "sv03"
 764 1233 l 257
NamedP: "sv04"
 764 260 l 257
NamedP: "dh02"
 1061 260 l 257
NamedP: "sv05"
 1061 0 l 257
NamedP: "ab01"
 172 0 l 257
 172 260 l 257
NamedP: "sv01"
EndSplineSet
PickledDataWithLists: "(dp1
S'com.schriftgestaltung.Glyphs.lastChange'
p2
S'2017-07-11 17:15:08 +0000'
p3
s."
EndChar

StartChar: Igrave
Encoding: 59 204 59
GlifName: I_grave
Width: 1233
VWidth: 0
Flags: W
LayerCount: 2
Fore
SplineSet
283 1852 m 257
NamedP: "hr00"
 567 1852 l 257
 766 1588 l 257
NamedP: "iv01"
 569 1588 l 257
 283 1852 l 257
NamedP: "hr00"
172 260 m 257
NamedP: "sv01"
 469 260 l 257
NamedP: "dh01"
 469 1233 l 257
NamedP: "sv02"
 172 1233 l 257
 172 1493 l 257
NamedP: "at01"
 1061 1493 l 257
 1061 1233 l 257
NamedP: "sv03"
 764 1233 l 257
NamedP: "sv04"
 764 260 l 257
NamedP: "dh02"
 1061 260 l 257
NamedP: "sv05"
 1061 0 l 257
NamedP: "ab01"
 172 0 l 257
 172 260 l 257
NamedP: "sv01"
EndSplineSet
PickledDataWithLists: "(dp1
S'com.schriftgestaltung.Glyphs.lastChange'
p2
S'2017-07-11 17:15:08 +0000'
p3
s."
EndChar

StartChar: Imacron
Encoding: 60 298 60
GlifName: I_macron
Width: 1233
VWidth: 0
Flags: W
LayerCount: 2
Fore
SplineSet
301 1820 m 257
NamedP: "hr00"
 932 1820 l 257
NamedP: "dv02"
 932 1632 l 257
NamedP: "dv01"
 301 1632 l 257
 301 1820 l 257
NamedP: "hr00"
172 260 m 257
NamedP: "sv01"
 469 260 l 257
NamedP: "dh01"
 469 1233 l 257
NamedP: "sv02"
 172 1233 l 257
 172 1493 l 257
NamedP: "at01"
 1061 1493 l 257
 1061 1233 l 257
NamedP: "sv03"
 764 1233 l 257
NamedP: "sv04"
 764 260 l 257
NamedP: "dh02"
 1061 260 l 257
NamedP: "sv05"
 1061 0 l 257
NamedP: "ab01"
 172 0 l 257
 172 260 l 257
NamedP: "sv01"
EndSplineSet
PickledDataWithLists: "(dp1
S'com.schriftgestaltung.Glyphs.lastChange'
p2
S'2017-07-11 17:15:08 +0000'
p3
s."
EndChar

StartChar: Iogonek
Encoding: 61 302 61
GlifName: I_ogonek
Width: 1233
VWidth: 0
Flags: W
LayerCount: 2
Fore
SplineSet
764 1233 m 257
NamedP: "sv01"
 764 260 l 257
NamedP: "dh02"
 1061 260 l 257
NamedP: "sv02"
 1061 0 l 257
NamedP: "ab01"
 764 0 l 257
 718 -62 704 -87 693 -106 c 256
 680 -130 674 -147 674 -166 c 256
NamedP: "sh01"
 674 -213 709 -254 792 -254 c 256
NamedP: "dv02"
 833 -254 887 -244 940 -223 c 257
NamedP: "sh02"
 940 -379 l 257
NamedP: "hr01"
 868 -394 804 -401 753 -401 c 256
NamedP: "dv01"
 597 -401 512 -339 512 -224 c 256
NamedP: "ih01"
 512 -151 547 -81 623 0 c 257
NamedP: "ih02"
 172 0 l 257
 172 260 l 257
NamedP: "hr02"
 469 260 l 257
NamedP: "dh01"
 469 1233 l 257
NamedP: "hr03"
 172 1233 l 257
NamedP: "sv03"
 172 1493 l 257
NamedP: "at01"
 1061 1493 l 257
 1061 1233 l 257
 764 1233 l 257
NamedP: "sv01"
EndSplineSet
PickledDataWithLists: "(dp1
S'com.schriftgestaltung.Glyphs.lastChange'
p2
S'2017-07-11 17:15:08 +0000'
p3
s."
EndChar

StartChar: Iota
Encoding: 62 921 62
GlifName: I_ota
Width: 1233
VWidth: 0
Flags: W
LayerCount: 2
Fore
SplineSet
172 260 m 257
NamedP: "hr00"
 469 260 l 257
NamedP: "dh01"
 469 1233 l 257
NamedP: "sv01"
 172 1233 l 257
 172 1493 l 257
NamedP: "at01"
 1061 1493 l 257
 1061 1233 l 257
NamedP: "sv02"
 764 1233 l 257
NamedP: "sv03"
 764 260 l 257
NamedP: "dh02"
 1061 260 l 257
NamedP: "sv04"
 1061 0 l 257
NamedP: "ab01"
 172 0 l 257
 172 260 l 257
NamedP: "hr00"
EndSplineSet
PickledDataWithLists: "(dp1
S'com.schriftgestaltung.Glyphs.lastChange'
p2
S'2017-07-11 17:15:08 +0000'
p3
s."
EndChar

StartChar: Iotadieresis
Encoding: 63 938 63
GlifName: I_otadieresis
Width: 1233
VWidth: 0
Flags: W
LayerCount: 2
Fore
SplineSet
331 1606 m 258
NamedP: "dv01"
 311 1606 301 1616 301 1636 c 258
NamedP: "sh01"
 301 1822 l 258
 301 1842 311 1852 331 1852 c 258
NamedP: "dv02"
 507 1852 l 258
 527 1852 537 1842 537 1822 c 258
 537 1636 l 258
NamedP: "sh02"
 537 1616 527 1606 507 1606 c 258
 331 1606 l 258
NamedP: "dv01"
726 1606 m 258
NamedP: "sv01"
 706 1606 696 1616 696 1636 c 258
NamedP: "sh04"
 696 1822 l 258
 696 1842 706 1852 726 1852 c 258
NamedP: "sv02"
 902 1852 l 258
 922 1852 932 1842 932 1822 c 258
NamedP: "hr01"
 932 1636 l 258
NamedP: "sh05"
 932 1616 922 1606 902 1606 c 258
 726 1606 l 258
NamedP: "sv01"
172 260 m 257
NamedP: "sv03"
 469 260 l 257
NamedP: "sh03"
 469 1233 l 257
NamedP: "sv04"
 172 1233 l 257
 172 1493 l 257
NamedP: "at01"
 1061 1493 l 257
 1061 1233 l 257
NamedP: "sv05"
 764 1233 l 257
NamedP: "sv06"
 764 260 l 257
NamedP: "sh06"
 1061 260 l 257
NamedP: "sv07"
 1061 0 l 257
NamedP: "ab01"
 172 0 l 257
 172 260 l 257
NamedP: "sv03"
EndSplineSet
PickledDataWithLists: "(dp1
S'com.schriftgestaltung.Glyphs.lastChange'
p2
S'2017-07-11 17:15:08 +0000'
p3
s."
EndChar

StartChar: Iotatonos
Encoding: 64 906 64
GlifName: I_otatonos
Width: 1233
VWidth: 0
Flags: W
LayerCount: 2
Fore
SplineSet
-48 1638 m 257
NamedP: "hr00"
 234 1638 l 257
NamedP: "dv02"
 -134 1262 l 257
 -331 1262 l 257
NamedP: "iv01"
 -48 1638 l 257
NamedP: "hr00"
172 260 m 257
NamedP: "sv02"
 469 260 l 257
NamedP: "dh01"
 469 1233 l 257
NamedP: "sv01"
 172 1233 l 257
NamedP: "dv01"
 172 1493 l 257
NamedP: "at01"
 1061 1493 l 257
 1061 1233 l 257
NamedP: "sv03"
 764 1233 l 257
NamedP: "sv04"
 764 260 l 257
NamedP: "dh02"
 1061 260 l 257
NamedP: "sv05"
 1061 0 l 257
NamedP: "hr01"
 172 0 l 257
 172 260 l 257
NamedP: "sv02"
EndSplineSet
PickledDataWithLists: "(dp1
S'com.schriftgestaltung.Glyphs.lastChange'
p2
S'2017-07-11 17:15:08 +0000'
p3
s."
EndChar

StartChar: Itilde
Encoding: 65 296 65
GlifName: I_tilde
Width: 1233
VWidth: 0
Flags: W
LayerCount: 2
Fore
SplineSet
268 1618 m 258
NamedP: "hr00"
 268 1759 349 1854 463 1854 c 256
NamedP: "dv02"
 514 1854 566 1836 614 1805 c 258
 674 1766 l 258
 701 1749 724 1737 751 1737 c 256
NamedP: "dv04"
 798 1737 825 1778 825 1854 c 257
NamedP: "sv01"
 965 1854 l 257
 965 1849 963 1829 963 1826 c 256
 963 1682 887 1588 765 1588 c 256
NamedP: "dv03"
 718 1588 675 1601 618 1637 c 258
 564 1671 l 257
 552 1678 l 258
 525 1693 503 1704 480 1704 c 256
NamedP: "dv01"
 437 1704 408 1662 408 1594 c 258
 408 1588 l 257
NamedP: "hr01"
 268 1588 l 257
 268 1618 l 258
NamedP: "hr00"
172 260 m 257
NamedP: "sv02"
 469 260 l 257
NamedP: "dh01"
 469 1233 l 257
NamedP: "hr02"
 172 1233 l 257
 172 1493 l 257
NamedP: "at01"
 1061 1493 l 257
NamedP: "hr03"
 1061 1233 l 257
NamedP: "sv03"
 764 1233 l 257
NamedP: "hr04"
 764 260 l 257
NamedP: "dh02"
 1061 260 l 257
NamedP: "sv04"
 1061 0 l 257
NamedP: "hr05"
 172 0 l 257
 172 260 l 257
NamedP: "sv02"
EndSplineSet
PickledDataWithLists: "(dp1
S'com.schriftgestaltung.Glyphs.lastChange'
p2
S'2017-07-11 17:15:08 +0000'
p3
s."
EndChar

StartChar: J
Encoding: 66 74 66
GlifName: J_
Width: 1233
VWidth: 0
Flags: W
LayerCount: 2
Fore
SplineSet
524 -29 m 256
NamedP: "hr00"
 447 -29 387 -20 318 -3 c 256
 250 14 184 38 109 74 c 257
 109 416 l 257
 166 356 228 313 293 282 c 256
 357 251 423 236 490 236 c 256
NamedP: "dv01"
 643 236 713 310 713 479 c 258
NamedP: "dh01"
 713 1233 l 257
NamedP: "sv01"
 352 1233 l 257
 352 1493 l 257
NamedP: "at01"
 1008 1493 l 257
 1008 479 l 258
NamedP: "dh02"
 1008 297 970 167 894 89 c 256
 817 9 685 -29 524 -29 c 256
NamedP: "hr00"
EndSplineSet
PickledDataWithLists: "(dp1
S'com.schriftgestaltung.Glyphs.lastChange'
p2
S'2017-07-11 17:15:08 +0000'
p3
s."
EndChar

StartChar: Jcircumflex
Encoding: 67 308 67
GlifName: J_circumflex
Width: 1233
VWidth: 0
Flags: W
LayerCount: 2
Fore
SplineSet
658 1588 m 257
NamedP: "hr00"
 856 1749 l 257
 1055 1588 l 257
 1233 1588 l 257
 1010 1852 l 257
 701 1852 l 257
 480 1588 l 257
 658 1588 l 257
NamedP: "hr00"
894 89 m 257
 970 167 1008 297 1008 479 c 258
 1008 1493 l 257
 352 1493 l 257
 352 1233 l 257
 713 1233 l 257
 713 479 l 258
 713 311 643 236 490 236 c 256
 355 236 218 303 109 416 c 257
 109 74 l 257
 180 40 250 14 318 -3 c 257
 399 -22 455 -29 524 -29 c 256
 691 -29 819 10 894 89 c 257
EndSplineSet
PickledDataWithLists: "(dp1
S'com.schriftgestaltung.Glyphs.lastChange'
p2
S'2017-07-11 17:15:08 +0000'
p3
s."
EndChar

StartChar: K
Encoding: 68 75 68
GlifName: K_
Width: 1233
VWidth: 0
Flags: W
LayerCount: 2
Fore
SplineSet
117 1493 m 257
NamedP: "hr00"
 412 1493 l 257
NamedP: "dh01"
 412 903 l 257
NamedP: "iv01"
 874 1493 l 257
NamedP: "at01"
 1208 1493 l 257
 737 905 l 257
 1225 0 l 257
NamedP: "ab01"
 897 0 l 257
 543 672 l 257
NamedP: "iv02"
 412 506 l 257
NamedP: "sh01"
 412 0 l 257
NamedP: "ab02"
 117 0 l 257
 117 1493 l 257
NamedP: "hr00"
EndSplineSet
PickledDataWithLists: "(dp1
S'com.schriftgestaltung.Glyphs.lastChange'
p2
S'2017-07-11 17:15:08 +0000'
p3
s."
EndChar

StartChar: Kappa
Encoding: 69 922 69
GlifName: K_appa
Width: 1233
VWidth: 0
Flags: W
LayerCount: 2
Fore
SplineSet
117 1493 m 257
NamedP: "hr00"
 412 1493 l 257
NamedP: "dh01"
 412 903 l 257
NamedP: "iv01"
 874 1493 l 257
NamedP: "at01"
 1208 1493 l 257
 737 905 l 257
 1225 0 l 257
NamedP: "ab01"
 897 0 l 257
 543 672 l 257
NamedP: "iv02"
 412 506 l 257
NamedP: "sh01"
 412 0 l 257
NamedP: "ab02"
 117 0 l 257
 117 1493 l 257
NamedP: "hr00"
EndSplineSet
PickledDataWithLists: "(dp1
S'com.schriftgestaltung.Glyphs.lastChange'
p2
S'2017-07-11 17:15:08 +0000'
p3
s."
EndChar

StartChar: L
Encoding: 70 76 70
GlifName: L_
Width: 1233
VWidth: 0
Flags: W
LayerCount: 2
Fore
SplineSet
225 1493 m 257
NamedP: "hr00"
 520 1493 l 257
NamedP: "dh01"
 520 260 l 257
NamedP: "sv01"
 1151 260 l 257
 1151 0 l 257
NamedP: "ab01"
 225 0 l 257
 225 1493 l 257
NamedP: "hr00"
EndSplineSet
PickledDataWithLists: "(dp1
S'com.schriftgestaltung.Glyphs.lastChange'
p2
S'2017-07-11 17:15:08 +0000'
p3
s."
EndChar

StartChar: Lacute
Encoding: 71 313 71
GlifName: L_acute
Width: 1233
VWidth: 0
Flags: W
LayerCount: 2
Fore
SplineSet
669 1853 m 257
NamedP: "hr00"
 953 1853 l 257
 667 1589 l 257
 470 1589 l 257
NamedP: "ih01"
 669 1853 l 257
NamedP: "hr00"
225 1493 m 257
NamedP: "dh01"
 520 1493 l 257
NamedP: "dh02"
 520 260 l 257
NamedP: "sv01"
 1151 260 l 257
 1151 0 l 257
NamedP: "ab01"
 225 0 l 257
 225 1493 l 257
NamedP: "dh01"
EndSplineSet
PickledDataWithLists: "(dp1
S'com.schriftgestaltung.Glyphs.lastChange'
p2
S'2017-07-11 17:15:08 +0000'
p3
s."
EndChar

StartChar: Lambda
Encoding: 72 923 72
GlifName: L_ambda
Width: 1233
VWidth: 0
Flags: W
LayerCount: 2
Fore
SplineSet
436 1493 m 257
NamedP: "hr00"
 797 1493 l 257
 1200 0 l 257
NamedP: "ab01"
 905 0 l 257
 616 1223 l 257
NamedP: "iv01"
 328 0 l 257
NamedP: "ab02"
 33 0 l 257
 436 1493 l 257
NamedP: "hr00"
EndSplineSet
PickledDataWithLists: "(dp1
S'com.schriftgestaltung.Glyphs.lastChange'
p2
S'2017-07-11 17:15:08 +0000'
p3
s."
EndChar

StartChar: Lcaron
Encoding: 73 317 73
GlifName: L_caron
Width: 1233
VWidth: 0
Flags: W
LayerCount: 2
Fore
SplineSet
225 1493 m 257
NamedP: "hr00"
 520 1493 l 257
NamedP: "dh01"
 520 260 l 257
NamedP: "sv01"
 1151 260 l 257
 1151 0 l 257
NamedP: "ab01"
 225 0 l 257
 225 1493 l 257
NamedP: "hr00"
869 1493 m 257
NamedP: "at01"
 1151 1493 l 257
 990 1117 l 257
NamedP: "sv02"
 793 1117 l 257
 869 1493 l 257
NamedP: "at01"
EndSplineSet
PickledDataWithLists: "(dp1
S'com.schriftgestaltung.Glyphs.lastChange'
p2
S'2017-07-11 17:15:08 +0000'
p3
s."
EndChar

StartChar: Ldot
Encoding: 74 319 74
GlifName: L_dot
Width: 1233
VWidth: 0
Flags: W
LayerCount: 2
Fore
SplineSet
225 1493 m 257
NamedP: "hr00"
 520 1493 l 257
 520 260 l 257
 1151 260 l 257
 1151 0 l 257
 225 0 l 257
 225 1493 l 257
NamedP: "hr00"
698 686 m 258
 698 872 l 258
 698 892 708 902 728 902 c 258
 943 902 l 258
 963 902 973 892 973 872 c 258
 973 686 l 258
 973 666 963 656 943 656 c 258
 728 656 l 258
 708 656 698 666 698 686 c 258
EndSplineSet
PickledDataWithLists: "(dp1
S'com.schriftgestaltung.Glyphs.lastChange'
p2
S'2017-07-11 17:15:08 +0000'
p3
s."
EndChar

StartChar: Lslash
Encoding: 75 321 75
GlifName: L_slash
Width: 1233
VWidth: 0
Flags: W
LayerCount: 2
Fore
SplineSet
225 537 m 257
NamedP: "hr00"
 74 426 l 257
 -39 580 l 257
 225 768 l 257
NamedP: "dh01"
 225 1493 l 257
NamedP: "at01"
 520 1493 l 257
NamedP: "sh01"
 520 973 l 257
NamedP: "iv01"
 795 1167 l 257
 907 1014 l 257
 520 741 l 257
NamedP: "dh02"
 520 260 l 257
NamedP: "sv01"
 1151 260 l 257
 1151 0 l 257
NamedP: "ab01"
 225 0 l 257
 225 537 l 257
NamedP: "hr00"
EndSplineSet
PickledDataWithLists: "(dp1
S'com.schriftgestaltung.Glyphs.lastChange'
p2
S'2017-07-11 17:15:08 +0000'
p3
s."
EndChar

StartChar: M
Encoding: 76 77 76
GlifName: M_
Width: 1233
VWidth: 0
Flags: W
LayerCount: 2
Fore
SplineSet
86 1493 m 257
NamedP: "hr00"
 438 1493 l 257
 616 838 l 257
NamedP: "ih01"
 793 1493 l 257
NamedP: "at01"
 1147 1493 l 257
 1147 0 l 257
NamedP: "sh01"
 893 0 l 257
NamedP: "ah01"
 893 1196 l 257
NamedP: "iv01"
 735 543 l 257
 500 543 l 257
 340 1196 l 257
NamedP: "sh02"
 340 0 l 257
NamedP: "ab01"
 86 0 l 257
 86 1493 l 257
NamedP: "hr00"
EndSplineSet
PickledDataWithLists: "(dp1
S'com.schriftgestaltung.Glyphs.lastChange'
p2
S'2017-07-11 17:15:08 +0000'
p3
s."
EndChar

StartChar: Mu
Encoding: 77 924 77
GlifName: M_u
Width: 1233
VWidth: 0
Flags: W
LayerCount: 2
Fore
SplineSet
86 1493 m 257
NamedP: "hr00"
 438 1493 l 257
 616 838 l 257
NamedP: "ih01"
 793 1493 l 257
NamedP: "at01"
 1147 1493 l 257
 1147 0 l 257
NamedP: "sh01"
 893 0 l 257
NamedP: "ah01"
 893 1196 l 257
NamedP: "iv01"
 735 543 l 257
 500 543 l 257
 340 1196 l 257
NamedP: "sh02"
 340 0 l 257
NamedP: "ab01"
 86 0 l 257
 86 1493 l 257
NamedP: "hr00"
EndSplineSet
PickledDataWithLists: "(dp1
S'com.schriftgestaltung.Glyphs.lastChange'
p2
S'2017-07-11 17:15:08 +0000'
p3
s."
EndChar

StartChar: N
Encoding: 78 78 78
GlifName: N_
Width: 1233
VWidth: 0
Flags: W
LayerCount: 2
Fore
SplineSet
119 1493 m 257
NamedP: "hr00"
 436 1493 l 257
 852 408 l 257
NamedP: "ah01"
 852 1493 l 257
NamedP: "at01"
 1112 1493 l 257
 1112 0 l 257
NamedP: "sh01"
 797 0 l 257
 379 1085 l 257
NamedP: "sh02"
 379 0 l 257
NamedP: "ab01"
 119 0 l 257
 119 1493 l 257
NamedP: "hr00"
EndSplineSet
PickledDataWithLists: "(dp1
S'com.schriftgestaltung.Glyphs.lastChange'
p2
S'2017-07-11 17:15:08 +0000'
p3
s."
EndChar

StartChar: Nacute
Encoding: 80 323 80
GlifName: N_acute
Width: 1233
VWidth: 0
Flags: W
LayerCount: 2
Fore
SplineSet
699 1853 m 257
NamedP: "hr00"
 983 1853 l 257
NamedP: "ih01"
 697 1589 l 257
 500 1589 l 257
NamedP: "ih02"
 699 1853 l 257
NamedP: "hr00"
119 1493 m 257
NamedP: "sh02"
 436 1493 l 257
 852 408 l 257
NamedP: "ah01"
 852 1493 l 257
NamedP: "at01"
 1112 1493 l 257
 1112 0 l 257
NamedP: "sh01"
 797 0 l 257
 379 1085 l 257
NamedP: "sh03"
 379 0 l 257
NamedP: "ab01"
 119 0 l 257
 119 1493 l 257
NamedP: "sh02"
EndSplineSet
PickledDataWithLists: "(dp1
S'com.schriftgestaltung.Glyphs.lastChange'
p2
S'2017-07-11 17:15:08 +0000'
p3
s."
EndChar

StartChar: Ncaron
Encoding: 81 327 81
GlifName: N_caron
Width: 1233
VWidth: 0
Flags: W
LayerCount: 2
Fore
SplineSet
281 1852 m 257
NamedP: "hr00"
 459 1852 l 257
 657 1690 l 257
 856 1852 l 257
NamedP: "sh03"
 1034 1852 l 257
NamedP: "ih01"
 811 1588 l 257
 502 1588 l 257
 281 1852 l 257
NamedP: "hr00"
119 1493 m 257
NamedP: "sh01"
 436 1493 l 257
 852 408 l 257
NamedP: "ah01"
 852 1493 l 257
NamedP: "at01"
 1112 1493 l 257
 1112 0 l 257
NamedP: "sh04"
 797 0 l 257
 379 1085 l 257
NamedP: "sh02"
 379 0 l 257
NamedP: "ab01"
 119 0 l 257
 119 1493 l 257
NamedP: "sh01"
EndSplineSet
PickledDataWithLists: "(dp1
S'com.schriftgestaltung.Glyphs.lastChange'
p2
S'2017-07-11 17:15:08 +0000'
p3
s."
EndChar

StartChar: Ntilde
Encoding: 82 209 82
GlifName: N_tilde
Width: 1233
VWidth: 0
Flags: W
LayerCount: 2
Fore
SplineSet
268 1618 m 258
NamedP: "hr00"
 268 1691 289 1750 322 1789 c 256
 359 1833 411 1854 466 1854 c 256
NamedP: "sv01"
 491 1854 515 1850 539 1842 c 256
 562 1834 589 1821 614 1805 c 258
 674 1766 l 258
 685 1759 700 1752 715 1745 c 256
 728 1740 738 1737 750 1737 c 256
 774 1737 793 1747 806 1767 c 256
 819 1786 825 1815 825 1854 c 257
NamedP: "dv02"
 965 1854 l 257
 965 1851 965 1846 964 1839 c 257
 964 1836 963 1838 963 1822 c 256
 963 1755 945 1696 910 1653 c 256
 871 1606 823 1588 768 1588 c 256
NamedP: "dv01"
 744 1588 720 1592 696 1599 c 256
 669 1607 646 1618 618 1637 c 258
 564 1671 l 258
 559 1674 556 1676 556 1676 c 257
 556 1676 555 1677 552 1678 c 256
 523 1694 500 1704 479 1704 c 256
 458 1704 441 1694 428 1674 c 256
 415 1653 408 1627 408 1594 c 258
 408 1588 l 257
NamedP: "sv02"
 268 1588 l 257
 268 1618 l 258
NamedP: "hr00"
119 1493 m 257
NamedP: "sh01"
 436 1493 l 257
 852 408 l 257
NamedP: "ah01"
 852 1493 l 257
NamedP: "at01"
 1112 1493 l 257
 1112 0 l 257
NamedP: "sh02"
 797 0 l 257
 379 1085 l 257
NamedP: "sh03"
 379 0 l 257
NamedP: "ab01"
 119 0 l 257
 119 1493 l 257
NamedP: "sh01"
EndSplineSet
PickledDataWithLists: "(dp1
S'com.schriftgestaltung.Glyphs.lastChange'
p2
S'2017-07-11 17:15:08 +0000'
p3
s."
EndChar

StartChar: Nu
Encoding: 83 925 83
GlifName: N_u
Width: 1233
VWidth: 0
Flags: W
LayerCount: 2
Fore
SplineSet
119 1493 m 257
NamedP: "hr00"
 436 1493 l 257
 852 408 l 257
NamedP: "ah01"
 852 1493 l 257
NamedP: "at01"
 1112 1493 l 257
 1112 0 l 257
NamedP: "sh01"
 797 0 l 257
 379 1085 l 257
NamedP: "sh02"
 379 0 l 257
NamedP: "ab01"
 119 0 l 257
 119 1493 l 257
NamedP: "hr00"
EndSplineSet
PickledDataWithLists: "(dp1
S'com.schriftgestaltung.Glyphs.lastChange'
p2
S'2017-07-11 17:15:08 +0000'
p3
s."
EndChar

StartChar: O
Encoding: 84 79 84
GlifName: O_
Width: 1233
VWidth: 0
Flags: W
LayerCount: 2
Fore
SplineSet
616 -29 m 256
NamedP: "hr00"
 436 -29 309 41 225 166 c 256
 136 297 92 490 92 745 c 256
NamedP: "sh01"
 92 1000 136 1192 225 1325 c 256
 317 1461 453 1520 616 1520 c 256
NamedP: "at01"
 791 1520 921 1453 1009 1324 c 256
 1097 1193 1141 1000 1141 745 c 256
NamedP: "sh02"
 1141 490 1097 298 1009 167 c 256
 924 40 795 -29 616 -29 c 256
NamedP: "hr00"
616 236 m 256
NamedP: "dv01"
 692 236 747 276 782 357 c 256
 817 436 834 566 834 746 c 256
NamedP: "ah01"
 834 925 817 1055 782 1134 c 256
 747 1215 692 1255 616 1255 c 256
NamedP: "sv01"
 537 1255 486 1214 451 1134 c 256
 416 1055 399 925 399 746 c 256
NamedP: "sh03"
 399 566 416 436 451 357 c 256
 486 276 541 236 616 236 c 256
NamedP: "dv01"
EndSplineSet
PickledDataWithLists: "(dp1
S'com.schriftgestaltung.Glyphs.lastChange'
p2
S'2017-07-11 17:15:08 +0000'
p3
s."
Substitution2: "Single Substitution lookup 15 subtable" ordmasculine
Substitution2: "Single Substitution lookup 12 subtable" ordmasculine
EndChar

StartChar: OE
Encoding: 85 338 85
GlifName: O_E_
Width: 1233
VWidth: 0
Flags: W
LayerCount: 2
Fore
SplineSet
633 0 m 258
NamedP: "hr00"
 417 0 269 52 189 156 c 256
 106 263 68 456 68 745 c 256
NamedP: "sh01"
 68 1036 108 1234 189 1337 c 256
 272 1444 422 1493 633 1493 c 258
NamedP: "sh02"
 1206 1493 l 257
 1206 1233 l 257
NamedP: "sv01"
 874 1233 l 257
NamedP: "sh04"
 874 922 l 257
 1176 922 l 257
NamedP: "dv02"
 1176 662 l 257
NamedP: "dv01"
 874 662 l 257
 874 260 l 257
NamedP: "sh03"
 1217 260 l 257
 1217 0 l 257
 633 0 l 258
NamedP: "hr00"
621 260 m 257
NamedP: "ah01"
 621 1233 l 257
NamedP: "sv02"
 569 1233 l 258
NamedP: "sv03"
 485 1233 428 1200 400 1144 c 256
 369 1084 354 962 354 745 c 256
NamedP: "sh05"
 354 527 370 406 400 347 c 256
 431 286 490 260 569 260 c 258
NamedP: "sv04"
 621 260 l 257
NamedP: "ah01"
EndSplineSet
PickledDataWithLists: "(dp1
S'com.schriftgestaltung.Glyphs.lastChange'
p2
S'2017-07-11 17:15:08 +0000'
p3
s."
EndChar

StartChar: Oacute
Encoding: 86 211 86
GlifName: O_acute
Width: 1233
VWidth: 0
Flags: W
LayerCount: 2
Fore
SplineSet
668 1852 m 257
NamedP: "hr00"
 952 1852 l 257
NamedP: "ih01"
 666 1588 l 257
 469 1588 l 257
NamedP: "ih02"
 668 1852 l 257
NamedP: "hr00"
616 -29 m 256
NamedP: "dv01"
 436 -29 309 41 225 166 c 256
 136 297 92 490 92 745 c 256
NamedP: "sh02"
 92 1000 136 1192 225 1325 c 256
 317 1461 453 1520 616 1520 c 256
NamedP: "at01"
 791 1520 921 1453 1009 1324 c 256
 1097 1193 1141 1000 1141 745 c 256
NamedP: "sh01"
 1141 490 1097 298 1009 167 c 256
 924 40 795 -29 616 -29 c 256
NamedP: "dv01"
616 236 m 256
NamedP: "dv02"
 692 236 747 276 782 357 c 256
 817 436 834 566 834 746 c 256
NamedP: "ah01"
 834 925 817 1055 782 1134 c 256
 747 1215 692 1255 616 1255 c 257
NamedP: "sv01"
 462 1247 402 1113 399 747 c 257
NamedP: "sh03"
 399 566 416 436 451 357 c 256
 486 276 541 236 616 236 c 256
NamedP: "dv02"
EndSplineSet
PickledDataWithLists: "(dp1
S'com.schriftgestaltung.Glyphs.lastChange'
p2
S'2017-07-11 17:15:08 +0000'
p3
s."
EndChar

StartChar: Ocircumflex
Encoding: 87 212 87
GlifName: O_circumflex
Width: 1233
VWidth: 0
Flags: W
LayerCount: 2
Fore
SplineSet
461 1852 m 257
NamedP: "hr00"
 770 1852 l 257
 993 1588 l 257
NamedP: "ih01"
 815 1588 l 257
 616 1749 l 257
 418 1588 l 257
 240 1588 l 257
NamedP: "ih02"
 461 1852 l 257
NamedP: "hr00"
616 -29 m 256
NamedP: "dv01"
 436 -29 309 41 225 166 c 256
 136 297 92 490 92 745 c 256
NamedP: "sh02"
 92 1000 136 1192 225 1325 c 256
 317 1461 453 1520 616 1520 c 256
NamedP: "at01"
 791 1520 921 1453 1009 1324 c 256
 1097 1193 1141 1000 1141 745 c 256
NamedP: "sh01"
 1141 490 1097 298 1009 167 c 256
 924 40 795 -29 616 -29 c 256
NamedP: "dv01"
616 236 m 256
NamedP: "dv02"
 692 236 747 276 782 357 c 256
 817 436 834 566 834 746 c 256
NamedP: "ah01"
 834 925 817 1055 782 1134 c 256
 747 1215 692 1255 616 1255 c 257
NamedP: "sv01"
 462 1247 402 1113 399 747 c 257
NamedP: "sh03"
 399 566 416 436 451 357 c 256
 486 276 541 236 616 236 c 256
NamedP: "dv02"
EndSplineSet
PickledDataWithLists: "(dp1
S'com.schriftgestaltung.Glyphs.lastChange'
p2
S'2017-07-11 17:15:08 +0000'
p3
s."
EndChar

StartChar: Odieresis
Encoding: 88 214 88
GlifName: O_dieresis
Width: 1233
VWidth: 0
Flags: W
LayerCount: 2
Fore
SplineSet
331 1606 m 258
NamedP: "dv03"
 311 1606 301 1616 301 1636 c 258
NamedP: "ih01"
 301 1822 l 258
 301 1842 311 1852 331 1852 c 258
NamedP: "dv04"
 507 1852 l 258
 527 1852 537 1842 537 1822 c 258
 537 1636 l 258
NamedP: "sh01"
 537 1616 527 1606 507 1606 c 258
 331 1606 l 258
NamedP: "dv03"
726 1606 m 258
NamedP: "sv01"
 706 1606 696 1616 696 1636 c 258
NamedP: "dh03"
 696 1822 l 258
 696 1842 706 1852 726 1852 c 258
NamedP: "sv02"
 902 1852 l 258
 922 1852 932 1842 932 1822 c 258
 932 1636 l 258
NamedP: "dh04"
 932 1616 922 1606 902 1606 c 258
 726 1606 l 258
NamedP: "sv01"
616 -29 m 256
NamedP: "dv01"
 436 -29 309 41 225 166 c 256
 136 297 92 490 92 745 c 256
NamedP: "dh01"
 92 1000 136 1192 225 1325 c 256
NamedP: "hr01"
 317 1461 453 1520 616 1520 c 256
NamedP: "at01"
 791 1520 921 1453 1009 1324 c 256
 1097 1193 1141 1000 1141 745 c 256
NamedP: "sh02"
 1141 490 1097 298 1009 167 c 256
 924 40 795 -29 616 -29 c 256
NamedP: "dv01"
616 236 m 256
NamedP: "dv02"
 692 236 747 276 782 357 c 256
 817 436 834 566 834 746 c 256
NamedP: "ih02"
 834 925 817 1055 782 1134 c 256
 747 1215 692 1255 616 1255 c 257
NamedP: "sv03"
 462 1247 402 1113 399 747 c 257
NamedP: "dh02"
 399 566 416 436 451 357 c 256
 486 276 541 236 616 236 c 256
NamedP: "dv02"
EndSplineSet
PickledDataWithLists: "(dp1
S'com.schriftgestaltung.Glyphs.lastChange'
p2
S'2017-07-11 17:15:08 +0000'
p3
s."
EndChar

StartChar: Ograve
Encoding: 89 210 89
GlifName: O_grave
Width: 1233
VWidth: 0
Flags: W
LayerCount: 2
Fore
SplineSet
283 1852 m 257
NamedP: "hr00"
 567 1852 l 257
 766 1588 l 257
NamedP: "ih01"
 569 1588 l 257
 283 1852 l 257
NamedP: "hr00"
616 -29 m 256
NamedP: "dv01"
 436 -29 309 41 225 166 c 256
 136 297 92 490 92 745 c 256
NamedP: "sh01"
 92 1000 136 1192 225 1325 c 256
 317 1461 453 1520 616 1520 c 256
NamedP: "at01"
 791 1520 921 1453 1009 1324 c 256
 1097 1193 1141 1000 1141 745 c 256
NamedP: "sh03"
 1141 490 1097 298 1009 167 c 256
 924 40 795 -29 616 -29 c 256
NamedP: "dv01"
616 236 m 256
NamedP: "dv02"
 692 236 747 276 782 357 c 256
 817 436 834 566 834 746 c 256
NamedP: "ah01"
 834 925 817 1055 782 1134 c 256
 747 1215 692 1255 616 1255 c 257
NamedP: "sv01"
 462 1247 402 1113 399 747 c 257
NamedP: "sh02"
 399 566 416 436 451 357 c 256
 486 276 541 236 616 236 c 256
NamedP: "dv02"
EndSplineSet
PickledDataWithLists: "(dp1
S'com.schriftgestaltung.Glyphs.lastChange'
p2
S'2017-07-11 17:15:08 +0000'
p3
s."
EndChar

StartChar: Ohorn
Encoding: 90 416 90
GlifName: O_horn
Width: 1233
VWidth: 0
Flags: W
LayerCount: 2
Fore
SplineSet
1229 1367 m 256
NamedP: "dh05"
 1229 1211 1167 1127 1052 1127 c 256
NamedP: "sv01"
 1037 1127 1022 1128 1007 1132 c 257
NamedP: "ih01"
 1038 1026 1053 897 1053 746 c 256
NamedP: "dh04"
 1053 235 874 -29 529 -29 c 256
NamedP: "dv01"
 182 -29 4 237 4 746 c 256
NamedP: "dh01"
 4 1255 182 1520 529 1520 c 256
NamedP: "at01"
 707 1520 840 1451 929 1312 c 257
 932 1310 l 258
 955 1297 976 1291 995 1291 c 256
NamedP: "sv02"
 1043 1291 1082 1326 1082 1406 c 256
NamedP: "hr01"
 1082 1446 1072 1503 1051 1555 c 257
NamedP: "ih02"
 1207 1555 l 257
 1222 1482 1229 1419 1229 1367 c 256
NamedP: "dh05"
694 357 m 256
NamedP: "hr02"
 729 436 746 566 746 746 c 256
NamedP: "dh03"
 746 925 729 1055 694 1134 c 256
 659 1215 604 1255 528 1255 c 256
NamedP: "hr03"
 449 1255 398 1214 363 1134 c 256
 328 1055 311 925 311 746 c 256
NamedP: "dh02"
 311 566 328 436 363 357 c 256
 398 276 453 236 528 236 c 256
NamedP: "dv02"
 604 236 659 276 694 357 c 256
NamedP: "hr02"
EndSplineSet
PickledDataWithLists: "(dp1
S'com.schriftgestaltung.Glyphs.lastChange'
p2
S'2017-07-11 17:15:08 +0000'
p3
s."
EndChar

StartChar: Ohungarumlaut
Encoding: 91 336 91
GlifName: O_hungarumlaut
Width: 1233
VWidth: 0
Flags: W
LayerCount: 2
Fore
SplineSet
463 1852 m 257
NamedP: "hr00"
 747 1852 l 257
NamedP: "ih01"
 461 1588 l 257
NamedP: "dv03"
 264 1588 l 257
NamedP: "ih02"
 463 1852 l 257
NamedP: "hr00"
838 1852 m 257
NamedP: "sh04"
 1122 1852 l 257
NamedP: "ih03"
 836 1588 l 257
NamedP: "sh05"
 639 1588 l 257
 838 1852 l 257
NamedP: "sh04"
617 -29 m 256
NamedP: "dv01"
 270 -29 92 237 92 746 c 256
NamedP: "sh01"
 92 1255 270 1520 617 1520 c 256
NamedP: "at01"
 962 1520 1141 1257 1141 746 c 256
NamedP: "sh02"
 1141 235 962 -29 617 -29 c 256
NamedP: "dv01"
616 236 m 256
NamedP: "dv02"
 692 236 747 276 782 357 c 256
 817 436 834 566 834 746 c 256
NamedP: "ah01"
 834 925 817 1055 782 1134 c 256
 747 1215 692 1255 616 1255 c 256
NamedP: "sv01"
 537 1255 486 1214 451 1134 c 256
 416 1055 399 925 399 746 c 256
NamedP: "sh03"
 399 566 416 436 451 357 c 256
 486 276 541 236 616 236 c 256
NamedP: "dv02"
EndSplineSet
PickledDataWithLists: "(dp1
S'com.schriftgestaltung.Glyphs.lastChange'
p2
S'2017-07-11 17:15:08 +0000'
p3
s."
EndChar

StartChar: Omacron
Encoding: 92 332 92
GlifName: O_macron
Width: 1233
VWidth: 0
Flags: W
LayerCount: 2
Fore
SplineSet
301 1830 m 257
NamedP: "hr00"
 932 1830 l 257
NamedP: "dv04"
 932 1642 l 257
NamedP: "dv03"
 301 1642 l 257
 301 1830 l 257
NamedP: "hr00"
617 -29 m 256
NamedP: "dv01"
 270 -29 92 237 92 746 c 256
NamedP: "sh01"
 92 1255 270 1520 617 1520 c 256
NamedP: "at01"
 962 1520 1141 1257 1141 746 c 256
NamedP: "sh02"
 1141 235 962 -29 617 -29 c 256
NamedP: "dv01"
616 236 m 256
NamedP: "dv02"
 692 236 747 276 782 357 c 256
 817 436 834 566 834 746 c 256
NamedP: "ah01"
 834 925 817 1055 782 1134 c 256
 747 1215 692 1255 616 1255 c 256
NamedP: "sv01"
 537 1255 486 1214 451 1134 c 256
 416 1055 399 925 399 746 c 256
NamedP: "sh03"
 399 566 416 436 451 357 c 256
 486 276 541 236 616 236 c 256
NamedP: "dv02"
EndSplineSet
PickledDataWithLists: "(dp1
S'com.schriftgestaltung.Glyphs.lastChange'
p2
S'2017-07-11 17:15:08 +0000'
p3
s."
EndChar

StartChar: Omegatonos
Encoding: 93 911 93
GlifName: O_megatonos
Width: 1233
VWidth: 0
Flags: W
LayerCount: 2
Fore
SplineSet
157 1638 m 257
NamedP: "hr00"
 439 1638 l 257
NamedP: "ih01"
 71 1262 l 257
NamedP: "dv01"
 -126 1262 l 257
NamedP: "hr01"
 157 1638 l 257
NamedP: "hr00"
90 211 m 257
NamedP: "sh02"
 328 211 l 257
NamedP: "ih02"
 173 350 100 523 100 777 c 256
NamedP: "hr02"
 100 1201 301 1460 615 1460 c 256
NamedP: "dv02"
 931 1460 1133 1201 1133 777 c 256
NamedP: "dh03"
 1133 521 1059 349 905 211 c 257
NamedP: "ih03"
 1143 211 l 257
NamedP: "sh03"
 1143 0 l 257
NamedP: "ab01"
 672 0 l 257
 672 268 l 257
NamedP: "dh02"
 780 373 831 524 831 751 c 256
NamedP: "sh04"
 831 1031 752 1194 616 1194 c 256
NamedP: "sv01"
 480 1194 401 1031 401 752 c 256
NamedP: "dh01"
 401 536 447 377 563 268 c 257
NamedP: "sh01"
 563 0 l 257
NamedP: "hr03"
 90 0 l 257
 90 211 l 257
NamedP: "sh02"
EndSplineSet
PickledDataWithLists: "(dp1
S'com.schriftgestaltung.Glyphs.lastChange'
p2
S'2017-07-11 17:15:08 +0000'
p3
s."
EndChar

StartChar: Omicron
Encoding: 94 927 94
GlifName: O_micron
Width: 1233
VWidth: 0
Flags: W
LayerCount: 2
Fore
SplineSet
617 -29 m 256
NamedP: "hr00"
 270 -29 92 237 92 746 c 256
NamedP: "sh01"
 92 1255 270 1520 617 1520 c 256
NamedP: "at01"
 962 1520 1141 1257 1141 746 c 256
NamedP: "sh02"
 1141 235 962 -29 617 -29 c 256
NamedP: "hr00"
616 236 m 256
NamedP: "dv01"
 692 236 747 276 782 357 c 256
 817 436 834 566 834 746 c 256
NamedP: "ah01"
 834 925 817 1055 782 1134 c 256
 747 1215 692 1255 616 1255 c 256
NamedP: "sv01"
 537 1255 486 1214 451 1134 c 256
 416 1055 399 925 399 746 c 256
NamedP: "sh03"
 399 566 416 436 451 357 c 256
 486 276 541 236 616 236 c 256
NamedP: "dv01"
EndSplineSet
PickledDataWithLists: "(dp1
S'com.schriftgestaltung.Glyphs.lastChange'
p2
S'2017-07-11 17:15:08 +0000'
p3
s."
EndChar

StartChar: Omicrontonos
Encoding: 95 908 95
GlifName: O_microntonos
Width: 1233
VWidth: 0
Flags: W
LayerCount: 2
Fore
SplineSet
112 1638 m 257
NamedP: "hr00"
 394 1638 l 257
NamedP: "sh03"
 26 1262 l 257
NamedP: "sv01"
 -171 1262 l 257
 112 1638 l 257
NamedP: "hr00"
617 -29 m 256
NamedP: "dv01"
 270 -29 92 237 92 746 c 256
NamedP: "sh01"
 92 1255 270 1520 617 1520 c 256
NamedP: "at01"
 962 1520 1141 1257 1141 746 c 256
NamedP: "sh04"
 1141 235 962 -29 617 -29 c 256
NamedP: "dv01"
616 236 m 256
NamedP: "dv02"
 692 236 747 276 782 357 c 256
 817 436 834 566 834 746 c 256
NamedP: "ah01"
 834 925 817 1055 782 1134 c 256
 747 1215 692 1255 616 1255 c 256
NamedP: "sv02"
 537 1255 486 1214 451 1134 c 256
 416 1055 399 925 399 746 c 256
NamedP: "sh02"
 399 566 416 436 451 357 c 256
 486 276 541 236 616 236 c 256
NamedP: "dv02"
EndSplineSet
PickledDataWithLists: "(dp1
S'com.schriftgestaltung.Glyphs.lastChange'
p2
S'2017-07-11 17:15:08 +0000'
p3
s."
EndChar

StartChar: Oslash
Encoding: 96 216 96
GlifName: O_slash
Width: 1233
VWidth: 0
Flags: W
LayerCount: 2
Fore
SplineSet
-6 51 m 257
NamedP: "hr00"
 162 289 l 257
 137 354 122 411 110 491 c 256
 99 563 92 639 92 743 c 256
NamedP: "sh01"
 92 1000 136 1193 225 1324 c 256
 313 1455 439 1520 616 1520 c 256
NamedP: "at02"
 686 1520 748 1510 802 1489 c 256
 861 1466 907 1436 946 1397 c 257
 1059 1559 l 257
NamedP: "at01"
 1221 1444 l 257
 1063 1221 l 257
 1090 1156 1109 1085 1122 1008 c 256
 1135 928 1141 841 1141 745 c 256
NamedP: "sh02"
 1141 490 1097 298 1009 167 c 256
 917 31 784 -29 615 -29 c 256
NamedP: "dv01"
 470 -29 365 15 276 104 c 257
 156 -63 l 257
NamedP: "av01"
 -6 51 l 257
NamedP: "hr00"
772 1153 m 257
 755 1187 733 1213 707 1230 c 256
 682 1247 652 1255 617 1255 c 256
NamedP: "sv01"
 538 1255 487 1214 452 1135 c 256
 417 1054 399 928 399 756 c 258
NamedP: "sh03"
 399 629 l 257
NamedP: "iv01"
 772 1153 l 257
618 236 m 256
NamedP: "dv02"
 698 236 748 280 781 357 c 256
 815 436 834 560 834 781 c 257
NamedP: "ah01"
 833 804 l 258
 830 841 832 830 829 888 c 257
NamedP: "sh04"
 451 354 l 257
 466 317 490 286 517 267 c 256
 546 246 579 236 618 236 c 256
NamedP: "dv02"
EndSplineSet
PickledDataWithLists: "(dp1
S'com.schriftgestaltung.Glyphs.lastChange'
p2
S'2017-07-11 17:15:08 +0000'
p3
s."
EndChar

StartChar: Oslashacute
Encoding: 97 510 97
GlifName: O_slashacute
Width: 1233
VWidth: 0
Flags: W
LayerCount: 2
Fore
SplineSet
668 1852 m 257
NamedP: "hr00"
 952 1852 l 257
NamedP: "ih01"
 666 1588 l 257
 469 1588 l 257
NamedP: "ih02"
 668 1852 l 257
NamedP: "hr00"
-6 51 m 257
 162 289 l 257
 115 406 92 557 92 742 c 256
NamedP: "sh02"
 92 1257 271 1520 616 1520 c 256
NamedP: "at01"
 754 1520 864 1479 946 1397 c 257
 1059 1559 l 257
 1221 1444 l 257
 1063 1221 l 257
 1115 1096 1141 936 1141 743 c 256
NamedP: "sh01"
 1141 236 962 -29 617 -29 c 256
NamedP: "dv01"
 475 -29 361 15 276 104 c 257
 156 -63 l 257
NamedP: "av01"
 -6 51 l 257
772 1153 m 257
 737 1221 685 1255 616 1255 c 256
NamedP: "sv01"
 541 1255 487 1215 452 1135 c 256
 417 1054 399 928 399 756 c 258
NamedP: "sh03"
 399 629 l 257
NamedP: "iv01"
 772 1153 l 257
617 236 m 256
NamedP: "dv02"
 692 236 747 276 782 357 c 256
 817 437 834 566 834 741 c 256
NamedP: "ah01"
 834 782 833 817 829 888 c 257
NamedP: "sh04"
 451 354 l 257
 486 274 544 236 617 236 c 256
NamedP: "dv02"
EndSplineSet
PickledDataWithLists: "(dp1
S'com.schriftgestaltung.Glyphs.lastChange'
p2
S'2017-07-11 17:15:08 +0000'
p3
s."
EndChar

StartChar: Otilde
Encoding: 98 213 98
GlifName: O_tilde
Width: 1233
VWidth: 0
Flags: W
LayerCount: 2
Fore
SplineSet
268 1618 m 258
NamedP: "hr00"
 268 1691 289 1750 322 1789 c 256
 359 1833 411 1854 466 1854 c 256
NamedP: "sv01"
 491 1854 515 1850 539 1842 c 256
 559 1835 586 1824 614 1805 c 258
 674 1766 l 258
 685 1759 696 1753 715 1745 c 256
 728 1740 738 1737 750 1737 c 256
 774 1737 793 1747 806 1767 c 256
 819 1786 825 1815 825 1854 c 257
NamedP: "sh01"
 965 1854 l 257
 965 1851 965 1846 964 1839 c 256
 963 1834 963 1830 963 1827 c 256
 963 1754 945 1696 910 1653 c 256
 871 1606 823 1588 768 1588 c 256
NamedP: "dv03"
 744 1588 720 1592 696 1599 c 256
 669 1607 646 1618 618 1637 c 258
 564 1671 l 257
 552 1678 l 258
NamedP: "hr01"
 524 1693 502 1704 479 1704 c 256
 458 1704 441 1694 428 1674 c 256
 415 1653 408 1627 408 1594 c 258
NamedP: "sh02"
 408 1588 l 257
NamedP: "sv02"
 268 1588 l 257
NamedP: "sh03"
 268 1618 l 258
NamedP: "hr00"
616 -29 m 256
NamedP: "dv01"
 436 -29 309 41 225 166 c 256
 136 297 92 490 92 745 c 256
NamedP: "dh01"
 92 1000 136 1192 225 1325 c 256
 317 1461 453 1520 616 1520 c 256
NamedP: "at01"
 791 1520 921 1453 1009 1324 c 256
 1097 1193 1141 1000 1141 745 c 256
NamedP: "dh04"
 1141 490 1097 298 1009 167 c 256
 924 40 795 -29 616 -29 c 256
NamedP: "dv01"
616 236 m 256
NamedP: "dv02"
 692 236 747 276 782 357 c 256
 817 436 834 566 834 746 c 256
NamedP: "dh03"
 834 925 817 1055 782 1134 c 256
 747 1215 692 1255 616 1255 c 257
NamedP: "sv03"
 462 1247 402 1113 399 747 c 257
NamedP: "dh02"
 399 566 416 436 451 357 c 256
 486 276 541 236 616 236 c 256
NamedP: "dv02"
EndSplineSet
PickledDataWithLists: "(dp1
S'com.schriftgestaltung.Glyphs.lastChange'
p2
S'2017-07-11 17:15:08 +0000'
p3
s."
EndChar

StartChar: P
Encoding: 99 80 99
GlifName: P_
Width: 1233
VWidth: 0
Flags: W
LayerCount: 2
Fore
SplineSet
166 1493 m 257
NamedP: "hr00"
 571 1493 l 258
 776 1493 925 1456 1016 1383 c 256
 1106 1310 1151 1191 1151 1026 c 256
NamedP: "sh01"
 1151 861 1106 742 1016 669 c 256
 925 596 776 559 571 559 c 258
NamedP: "dv01"
 461 559 l 257
NamedP: "sh03"
 461 0 l 257
NamedP: "ab01"
 166 0 l 257
 166 1493 l 257
NamedP: "hr00"
582 807 m 258
NamedP: "dv02"
 777 807 844 865 844 1026 c 256
NamedP: "ah01"
 844 1187 777 1245 582 1245 c 258
NamedP: "sv01"
 461 1245 l 257
NamedP: "sh02"
 461 807 l 257
 582 807 l 258
NamedP: "dv02"
EndSplineSet
PickledDataWithLists: "(dp1
S'com.schriftgestaltung.Glyphs.lastChange'
p2
S'2017-07-11 17:15:08 +0000'
p3
s."
EndChar

StartChar: Phi
Encoding: 100 934 100
GlifName: P_hi
Width: 1233
VWidth: 0
Flags: W
LayerCount: 2
Fore
SplineSet
350 260 m 257
NamedP: "hr00"
 469 260 l 257
NamedP: "sh03"
 469 330 l 257
 266 359 92 465 92 746 c 256
NamedP: "sh01"
 92 1027 265 1129 469 1161 c 257
NamedP: "sh04"
 469 1233 l 257
NamedP: "sv01"
 350 1233 l 257
NamedP: "sh05"
 350 1493 l 257
NamedP: "at01"
 883 1493 l 257
NamedP: "sh07"
 883 1233 l 257
NamedP: "sv02"
 764 1233 l 257
NamedP: "sh09"
 764 1161 l 257
 967 1129 1141 1027 1141 746 c 256
NamedP: "sh10"
 1141 465 967 359 764 330 c 257
 764 260 l 257
NamedP: "sh08"
 883 260 l 257
NamedP: "sh11"
 883 0 l 257
NamedP: "ab01"
 350 0 l 257
 350 260 l 257
NamedP: "hr00"
469 965 m 257
NamedP: "sh12"
 434 938 l 258
 379 895 353 828 353 751 c 256
NamedP: "sh02"
 353 671 382 605 434 553 c 256
 445 542 456 533 469 526 c 257
NamedP: "ih01"
 469 965 l 257
NamedP: "sh12"
764 526 m 257
NamedP: "sh13"
 775 532 787 541 800 553 c 256
 843 593 880 668 880 753 c 256
NamedP: "sh06"
 880 822 856 894 799 938 c 256
 767 962 798 939 764 965 c 257
NamedP: "ih02"
 764 526 l 257
NamedP: "sh13"
EndSplineSet
PickledDataWithLists: "(dp1
S'com.schriftgestaltung.Glyphs.lastChange'
p2
S'2017-07-11 17:15:08 +0000'
p3
s."
EndChar

StartChar: Pi
Encoding: 101 928 101
GlifName: P_i
Width: 1233
VWidth: 0
Flags: W
LayerCount: 2
Fore
SplineSet
137 1493 m 257
NamedP: "hr00"
 1096 1493 l 257
 1096 0 l 257
NamedP: "sh01"
 801 0 l 257
NamedP: "ah01"
 801 1233 l 257
NamedP: "sv01"
 432 1233 l 257
NamedP: "sh02"
 432 0 l 257
NamedP: "ab01"
 137 0 l 257
 137 1493 l 257
NamedP: "hr00"
EndSplineSet
PickledDataWithLists: "(dp1
S'com.schriftgestaltung.Glyphs.lastChange'
p2
S'2017-07-11 17:15:08 +0000'
p3
s."
EndChar

StartChar: Psi
Encoding: 102 936 102
GlifName: P_si
Width: 1233
VWidth: 0
Flags: W
LayerCount: 2
Fore
SplineSet
350 260 m 257
NamedP: "hr00"
 469 260 l 257
NamedP: "sh02"
 469 392 l 257
 370 421 288 480 224 568 c 256
 124 705 80 897 80 1146 c 258
NamedP: "sh01"
 80 1493 l 257
NamedP: "at01"
 375 1493 l 257
 375 1146 l 258
NamedP: "sh03"
 375 979 396 849 439 758 c 256
 446 745 460 716 469 705 c 257
NamedP: "sh04"
 469 1493 l 257
NamedP: "at02"
 764 1493 l 257
NamedP: "sh06"
 764 705 l 257
NamedP: "ih01"
 773 717 785 739 794 758 c 256
 837 849 858 979 858 1146 c 258
NamedP: "sh07"
 858 1493 l 257
NamedP: "at03"
 1153 1493 l 257
 1153 1146 l 258
NamedP: "sh08"
 1153 887 1105 701 1008 568 c 256
 943 480 862 421 764 392 c 257
 764 260 l 257
NamedP: "sh05"
 883 260 l 257
NamedP: "sv01"
 883 0 l 257
NamedP: "ab01"
 350 0 l 257
 350 260 l 257
NamedP: "hr00"
EndSplineSet
PickledDataWithLists: "(dp1
S'com.schriftgestaltung.Glyphs.lastChange'
p2
S'2017-07-11 17:15:08 +0000'
p3
s."
EndChar

StartChar: Q
Encoding: 103 81 103
GlifName: Q_
Width: 1233
VWidth: 0
Flags: W
LayerCount: 2
Fore
SplineSet
656 -23 m 257
NamedP: "hr00"
 633 -28 l 258
 626 -29 625 -29 622 -29 c 256
NamedP: "dv01"
 439 -29 312 40 225 167 c 256
 136 298 92 490 92 744 c 256
NamedP: "sh01"
 92 1000 136 1192 225 1325 c 256
 318 1462 453 1520 616 1520 c 256
NamedP: "at01"
 791 1520 921 1453 1009 1324 c 256
 1097 1193 1141 1000 1141 745 c 256
NamedP: "sh02"
 1141 394 1055 154 895 51 c 257
 1181 -281 l 257
NamedP: "av01"
 839 -281 l 257
NamedP: "sh03"
 656 -23 l 257
NamedP: "hr00"
616 236 m 256
NamedP: "dv02"
 692 236 747 276 782 357 c 256
 817 436 834 566 834 746 c 256
NamedP: "ah01"
 834 925 817 1055 782 1134 c 256
 747 1215 692 1255 616 1255 c 256
NamedP: "sv01"
 537 1255 486 1214 451 1134 c 256
 416 1055 399 925 399 746 c 256
NamedP: "sh04"
 399 566 416 436 451 357 c 256
 486 276 541 236 616 236 c 256
NamedP: "dv02"
EndSplineSet
PickledDataWithLists: "(dp1
S'com.schriftgestaltung.Glyphs.lastChange'
p2
S'2017-07-11 17:15:08 +0000'
p3
s."
EndChar

StartChar: R
Encoding: 104 82 104
GlifName: R_
Width: 1233
VWidth: 0
Flags: W
LayerCount: 2
Fore
SplineSet
133 1493 m 257
NamedP: "hr00"
 559 1493 l 258
 751 1493 889 1459 973 1391 c 256
 1057 1323 1098 1209 1098 1064 c 256
NamedP: "sh01"
 1098 952 1074 875 1023 814 c 256
 975 755 907 718 807 705 c 257
NamedP: "sh02"
 838 698 865 683 884 664 c 256
 904 644 930 604 963 537 c 258
 1233 0 l 257
NamedP: "ab01"
 909 0 l 257
 729 377 l 257
 708 421 l 258
 652 536 597 590 522 590 c 258
NamedP: "dv01"
 428 590 l 257
NamedP: "sh04"
 428 0 l 257
NamedP: "ab02"
 133 0 l 257
 133 1493 l 257
NamedP: "hr00"
567 838 m 258
NamedP: "dv02"
 648 838 706 854 741 886 c 256
 773 915 793 962 793 1042 c 256
NamedP: "ah01"
 793 1115 776 1167 741 1198 c 256
 706 1229 648 1245 567 1245 c 258
NamedP: "sv01"
 428 1245 l 257
NamedP: "sh03"
 428 838 l 257
 567 838 l 258
NamedP: "dv02"
EndSplineSet
PickledDataWithLists: "(dp1
S'com.schriftgestaltung.Glyphs.lastChange'
p2
S'2017-07-11 17:15:08 +0000'
p3
s."
EndChar

StartChar: Racute
Encoding: 105 340 105
GlifName: R_acute
Width: 1233
VWidth: 0
Flags: W
LayerCount: 2
Fore
SplineSet
669 1853 m 257
NamedP: "hr00"
 953 1853 l 257
NamedP: "ih01"
 667 1589 l 257
 470 1589 l 257
NamedP: "ih02"
 669 1853 l 257
NamedP: "hr00"
133 1493 m 257
NamedP: "sh02"
 559 1493 l 258
 934 1493 1098 1366 1098 1074 c 256
NamedP: "sh01"
 1098 846 998 732 807 705 c 257
NamedP: "sh03"
 867 691 898 663 963 537 c 257
 1233 0 l 257
NamedP: "ab01"
 909 0 l 257
 729 377 l 257
 708 421 l 258
 652 536 597 590 522 590 c 258
NamedP: "dv01"
 428 590 l 257
NamedP: "sh05"
 428 0 l 257
NamedP: "ab02"
 133 0 l 257
 133 1493 l 257
NamedP: "sh02"
567 838 m 258
NamedP: "dv02"
 728 838 793 896 793 1043 c 256
NamedP: "ah01"
 793 1187 730 1245 567 1245 c 258
NamedP: "sv01"
 428 1245 l 257
NamedP: "sh04"
 428 838 l 257
 567 838 l 258
NamedP: "dv02"
EndSplineSet
PickledDataWithLists: "(dp1
S'com.schriftgestaltung.Glyphs.lastChange'
p2
S'2017-07-11 17:15:08 +0000'
p3
s."
EndChar

StartChar: Rcaron
Encoding: 106 344 106
GlifName: R_caron
Width: 1233
VWidth: 0
Flags: W
LayerCount: 2
Fore
SplineSet
209 1852 m 257
NamedP: "hr00"
 387 1852 l 257
 585 1690 l 257
 784 1852 l 257
NamedP: "sh03"
 962 1852 l 257
NamedP: "ih01"
 739 1588 l 257
 430 1588 l 257
NamedP: "sh05"
 209 1852 l 257
NamedP: "hr00"
133 1493 m 257
NamedP: "sh01"
 559 1493 l 258
 934 1493 1098 1366 1098 1074 c 256
NamedP: "sh04"
 1098 846 998 732 807 705 c 257
NamedP: "sh06"
 867 691 898 663 963 537 c 257
 1233 0 l 257
NamedP: "ab01"
 909 0 l 257
 729 377 l 257
 708 421 l 258
 652 536 597 590 522 590 c 258
NamedP: "dv01"
 428 590 l 257
NamedP: "sh07"
 428 0 l 257
NamedP: "ab02"
 133 0 l 257
 133 1493 l 257
NamedP: "sh01"
567 838 m 258
NamedP: "dv02"
 728 838 793 896 793 1043 c 256
NamedP: "ah01"
 793 1187 730 1245 567 1245 c 258
NamedP: "sv01"
 428 1245 l 257
NamedP: "sh02"
 428 838 l 257
 567 838 l 258
NamedP: "dv02"
EndSplineSet
PickledDataWithLists: "(dp1
S'com.schriftgestaltung.Glyphs.lastChange'
p2
S'2017-07-11 17:15:08 +0000'
p3
s."
EndChar

StartChar: Rho
Encoding: 107 929 107
GlifName: R_ho
Width: 1233
VWidth: 0
Flags: W
LayerCount: 2
Fore
SplineSet
162 1493 m 257
NamedP: "hr00"
 567 1493 l 258
 979 1493 1147 1355 1147 1026 c 256
NamedP: "sh01"
 1147 697 979 559 567 559 c 258
NamedP: "dv01"
 457 559 l 257
NamedP: "sh03"
 457 0 l 257
NamedP: "ab01"
 162 0 l 257
 162 1493 l 257
NamedP: "hr00"
578 807 m 258
NamedP: "dv02"
 770 807 840 865 840 1026 c 256
NamedP: "ah01"
 840 1187 770 1245 578 1245 c 258
NamedP: "sv01"
 457 1245 l 257
NamedP: "sh02"
 457 807 l 257
 578 807 l 258
NamedP: "dv02"
EndSplineSet
PickledDataWithLists: "(dp1
S'com.schriftgestaltung.Glyphs.lastChange'
p2
S'2017-07-11 17:15:08 +0000'
p3
s."
EndChar

StartChar: S
Encoding: 108 83 108
GlifName: S_
Width: 1233
VWidth: 0
Flags: W
LayerCount: 2
Fore
SplineSet
582 -29 m 256
NamedP: "hr00"
 502 -29 427 -22 351 -3 c 256
 275 15 203 41 135 76 c 257
NamedP: "sh02"
 135 381 l 257
NamedP: "ih01"
 218 322 288 284 364 256 c 256
 438 229 510 215 580 215 c 256
NamedP: "dv01"
 656 215 711 232 751 265 c 256
 791 298 811 344 811 403 c 256
NamedP: "ah01"
 811 448 798 488 771 521 c 256
 743 556 703 581 655 600 c 258
 510 655 l 258
 357 714 260 773 208 834 c 256
 155 895 129 979 129 1085 c 256
NamedP: "sh01"
 129 1221 172 1327 259 1404 c 256
 346 1481 465 1520 615 1520 c 256
NamedP: "at01"
 763 1520 883 1493 1026 1427 c 257
 1026 1139 l 257
NamedP: "ih02"
 901 1228 766 1276 638 1276 c 256
NamedP: "sv01"
 567 1276 512 1262 475 1233 c 256
 437 1204 418 1163 418 1111 c 256
NamedP: "sh03"
 418 1069 432 1035 460 1008 c 256
 487 981 534 955 633 918 c 258
 760 870 l 258
 881 825 969 767 1025 696 c 256
 1082 623 1110 530 1110 415 c 256
NamedP: "sh05"
 1110 268 1065 157 976 83 c 256
 886 8 755 -29 582 -29 c 256
NamedP: "hr00"
EndSplineSet
PickledDataWithLists: "(dp1
S'com.schriftgestaltung.Glyphs.lastChange'
p2
S'2017-07-11 17:15:08 +0000'
p3
s."
EndChar

StartChar: Sacute
Encoding: 109 346 109
GlifName: S_acute
Width: 1233
VWidth: 0
Flags: W
LayerCount: 2
Fore
SplineSet
699 1853 m 257
NamedP: "hr00"
 983 1853 l 257
NamedP: "ih01"
 697 1589 l 257
 500 1589 l 257
NamedP: "ih02"
 699 1853 l 257
NamedP: "hr00"
584 -29 m 256
NamedP: "dv01"
 420 -29 280 4 135 76 c 257
NamedP: "sh03"
 135 381 l 257
NamedP: "ih03"
 288 270 439 215 576 215 c 256
NamedP: "dv02"
 729 215 811 283 811 399 c 256
NamedP: "ah01"
 811 495 755 561 655 600 c 258
 510 655 l 258
 219 764 129 876 129 1075 c 256
NamedP: "sh02"
 129 1360 313 1520 616 1520 c 256
NamedP: "at01"
 753 1520 890 1488 1026 1427 c 257
 1026 1139 l 257
NamedP: "ih04"
 898 1228 768 1276 639 1276 c 256
NamedP: "sv01"
 495 1276 418 1216 418 1112 c 256
NamedP: "sh04"
 418 1069 432 1035 460 1008 c 256
 487 981 534 955 633 918 c 258
 760 870 l 258
 1007 777 1110 641 1110 417 c 256
NamedP: "sh01"
 1110 118 925 -29 584 -29 c 256
NamedP: "dv01"
EndSplineSet
PickledDataWithLists: "(dp1
S'com.schriftgestaltung.Glyphs.lastChange'
p2
S'2017-07-11 17:15:08 +0000'
p3
s."
EndChar

StartChar: Scaron
Encoding: 110 352 110
GlifName: S_caron
Width: 1233
VWidth: 0
Flags: W
LayerCount: 2
Fore
SplineSet
240 1852 m 257
NamedP: "hr00"
 418 1852 l 257
NamedP: "sh03"
 616 1690 l 257
 815 1852 l 257
NamedP: "sh04"
 993 1852 l 257
NamedP: "ih01"
 770 1588 l 257
 461 1588 l 257
 240 1852 l 257
NamedP: "hr00"
582 -29 m 256
NamedP: "dv01"
 502 -29 427 -22 351 -3 c 256
 275 15 203 41 135 76 c 257
NamedP: "sh06"
 135 381 l 257
NamedP: "ih02"
 222 320 292 283 364 256 c 256
 438 229 510 215 580 215 c 256
NamedP: "dv02"
 656 215 711 232 751 265 c 256
 791 298 811 344 811 403 c 256
NamedP: "ah01"
 811 448 798 488 771 521 c 256
 743 556 703 581 655 600 c 258
 510 655 l 258
 357 714 260 773 208 834 c 256
 155 895 129 979 129 1085 c 256
NamedP: "sh01"
 129 1221 172 1327 259 1404 c 256
 346 1481 465 1520 615 1520 c 256
NamedP: "at01"
 763 1520 883 1493 1026 1427 c 257
 1026 1139 l 257
NamedP: "ih03"
 901 1228 766 1276 638 1276 c 256
NamedP: "sv01"
 567 1276 512 1262 475 1233 c 256
 437 1204 418 1163 418 1111 c 256
NamedP: "sh02"
 418 1069 432 1035 460 1008 c 256
 487 981 534 955 633 918 c 258
 760 870 l 258
 881 825 969 767 1025 696 c 256
 1082 623 1110 530 1110 415 c 256
NamedP: "sh05"
 1110 268 1065 157 976 83 c 256
 886 8 755 -29 582 -29 c 256
NamedP: "dv01"
EndSplineSet
PickledDataWithLists: "(dp1
S'com.schriftgestaltung.Glyphs.lastChange'
p2
S'2017-07-11 17:15:08 +0000'
p3
s."
EndChar

StartChar: Scedilla
Encoding: 111 350 111
GlifName: S_cedilla
Width: 1233
VWidth: 0
Flags: W
LayerCount: 2
Fore
SplineSet
1025 696 m 256
NamedP: "hr00"
 1082 623 1110 530 1110 415 c 256
NamedP: "sh02"
 1110 268 1065 157 976 83 c 256
 912 31 829 -4 724 -19 c 257
NamedP: "ih02"
 755 -55 777 -88 792 -115 c 256
 810 -149 819 -184 819 -221 c 256
NamedP: "sh01"
 819 -282 796 -327 757 -356 c 256
 722 -383 668 -401 571 -401 c 256
NamedP: "dv01"
 539 -401 504 -399 471 -395 c 256
NamedP: "sv01"
 420 -388 398 -382 367 -375 c 257
 367 -219 l 257
NamedP: "ih01"
 398 -230 426 -238 454 -245 c 256
 482 -251 508 -254 532 -254 c 256
NamedP: "dv02"
 570 -254 600 -246 623 -231 c 256
 644 -216 655 -195 655 -170 c 256
 655 -151 648 -128 634 -101 c 256
 624 -81 609 -57 589 -29 c 257
NamedP: "av01"
 582 -29 l 258
 502 -29 427 -22 351 -3 c 256
 275 15 203 41 135 76 c 257
NamedP: "sh03"
 135 381 l 257
NamedP: "ih03"
 222 320 292 283 364 256 c 256
 438 229 510 215 580 215 c 256
 656 215 711 232 751 265 c 256
 791 298 811 344 811 403 c 256
NamedP: "sh04"
 811 448 798 488 771 521 c 256
 743 556 703 581 655 600 c 258
 510 655 l 258
 357 714 260 773 208 834 c 256
 155 895 129 979 129 1085 c 256
NamedP: "dh01"
 129 1221 172 1327 259 1404 c 256
 346 1481 465 1520 615 1520 c 256
NamedP: "at01"
 763 1520 883 1493 1026 1427 c 257
 1026 1139 l 257
NamedP: "ih04"
 901 1228 766 1276 638 1276 c 256
NamedP: "sv02"
 567 1276 512 1262 475 1233 c 256
 437 1204 418 1163 418 1111 c 256
NamedP: "dh02"
 418 1069 432 1035 460 1008 c 256
 487 981 534 955 633 918 c 258
 760 870 l 258
NamedP: "hr02"
 881 825 969 767 1025 696 c 256
NamedP: "hr00"
EndSplineSet
PickledDataWithLists: "(dp1
S'com.schriftgestaltung.Glyphs.lastChange'
p2
S'2017-07-11 17:15:08 +0000'
p3
s."
Substitution2: "'locl' Localized Forms in Latin lookup 1 subtable" uni0218
Substitution2: "'locl' Localized Forms in Latin lookup 0 subtable" uni0218
EndChar

StartChar: Scircumflex
Encoding: 112 348 112
GlifName: S_circumflex
Width: 1233
VWidth: 0
Flags: W
LayerCount: 2
Fore
SplineSet
408 1588 m 257
NamedP: "hr00"
 606 1749 l 257
 805 1588 l 257
 983 1588 l 257
 760 1852 l 257
 451 1852 l 257
 230 1588 l 257
 408 1588 l 257
NamedP: "hr00"
1110 415 m 256
 1110 642 1004 778 760 870 c 258
 633 918 l 258
 578 939 537 957 510 972 c 256
 449 1005 418 1042 418 1111 c 256
 418 1216 497 1276 638 1276 c 256
 766 1276 901 1228 1026 1139 c 257
 1026 1427 l 257
 893 1489 756 1520 615 1520 c 256
 515 1520 429 1503 357 1468 c 256
 210 1399 129 1264 129 1085 c 256
 129 1012 140 951 163 903 c 256
 208 804 310 732 510 655 c 258
 655 600 l 257
 759 559 811 494 811 403 c 256
 811 286 727 215 580 215 c 256
 440 215 292 270 135 381 c 257
 135 76 l 257
 270 6 419 -29 582 -29 c 256
 930 -29 1110 122 1110 415 c 256
EndSplineSet
PickledDataWithLists: "(dp1
S'com.schriftgestaltung.Glyphs.lastChange'
p2
S'2017-07-11 17:15:08 +0000'
p3
s."
EndChar

StartChar: Sigma
Encoding: 113 931 113
GlifName: S_igma
Width: 1233
VWidth: 0
Flags: W
LayerCount: 2
Fore
SplineSet
98 260 m 257
NamedP: "hr00"
 499 747 l 257
 98 1234 l 257
 98 1493 l 257
NamedP: "at01"
 1144 1493 l 257
 1144 1233 l 257
NamedP: "sv01"
 438 1233 l 257
 840 747 l 257
 438 260 l 257
NamedP: "sv02"
 1144 260 l 257
 1144 0 l 257
NamedP: "ab01"
 98 0 l 257
 98 260 l 257
NamedP: "hr00"
EndSplineSet
PickledDataWithLists: "(dp1
S'com.schriftgestaltung.Glyphs.lastChange'
p2
S'2017-07-11 17:15:08 +0000'
p3
s."
EndChar

StartChar: T
Encoding: 114 84 114
GlifName: T_
Width: 1233
VWidth: 0
Flags: W
LayerCount: 2
Fore
SplineSet
469 1235 m 257
NamedP: "hr00"
 90 1235 l 257
 90 1493 l 257
NamedP: "at01"
 1143 1493 l 257
 1143 1235 l 257
NamedP: "sv01"
 764 1235 l 257
NamedP: "dh01"
 764 0 l 257
NamedP: "ab01"
 469 0 l 257
 469 1235 l 257
NamedP: "hr00"
EndSplineSet
PickledDataWithLists: "(dp1
S'com.schriftgestaltung.Glyphs.lastChange'
p2
S'2017-07-11 17:15:08 +0000'
p3
s."
EndChar

StartChar: Tau
Encoding: 115 932 115
GlifName: T_au
Width: 1233
VWidth: 0
Flags: W
LayerCount: 2
Fore
SplineSet
469 1235 m 257
NamedP: "hr00"
 90 1235 l 257
 90 1493 l 257
NamedP: "at01"
 1143 1493 l 257
 1143 1235 l 257
NamedP: "sv01"
 764 1235 l 257
NamedP: "dh01"
 764 0 l 257
NamedP: "ab01"
 469 0 l 257
 469 1235 l 257
NamedP: "hr00"
EndSplineSet
PickledDataWithLists: "(dp1
S'com.schriftgestaltung.Glyphs.lastChange'
p2
S'2017-07-11 17:15:08 +0000'
p3
s."
EndChar

StartChar: Tbar
Encoding: 116 358 116
GlifName: T_bar
Width: 1233
VWidth: 0
Flags: W
LayerCount: 2
Fore
SplineSet
469 538 m 257
NamedP: "hr00"
 222 538 l 257
 222 730 l 257
 469 730 l 257
NamedP: "sh01"
 469 1235 l 257
NamedP: "sv01"
 90 1235 l 257
 90 1493 l 257
NamedP: "at01"
 1143 1493 l 257
 1143 1235 l 257
NamedP: "sv02"
 764 1235 l 257
NamedP: "sh02"
 764 730 l 257
NamedP: "sv03"
 1011 730 l 257
 1011 538 l 257
NamedP: "sv04"
 764 538 l 257
NamedP: "dh01"
 764 0 l 257
NamedP: "ab01"
 469 0 l 257
 469 538 l 257
NamedP: "hr00"
EndSplineSet
PickledDataWithLists: "(dp1
S'com.schriftgestaltung.Glyphs.lastChange'
p2
S'2017-07-11 17:15:08 +0000'
p3
s."
EndChar

StartChar: Tcaron
Encoding: 117 356 117
GlifName: T_caron
Width: 1233
VWidth: 0
Flags: W
LayerCount: 2
Fore
SplineSet
233 1864 m 257
NamedP: "hr00"
 411 1864 l 257
 609 1702 l 257
 808 1864 l 257
NamedP: "av01"
 986 1864 l 257
 763 1600 l 257
 454 1600 l 257
 233 1864 l 257
NamedP: "hr00"
469 1235 m 257
NamedP: "dh01"
 90 1235 l 257
 90 1493 l 257
NamedP: "at01"
 1143 1493 l 257
 1143 1235 l 257
NamedP: "sv01"
 764 1235 l 257
NamedP: "dh02"
 764 0 l 257
NamedP: "ab01"
 469 0 l 257
 469 1235 l 257
NamedP: "dh01"
EndSplineSet
PickledDataWithLists: "(dp1
S'com.schriftgestaltung.Glyphs.lastChange'
p2
S'2017-07-11 17:15:08 +0000'
p3
s."
EndChar

StartChar: Theta
Encoding: 118 920 118
GlifName: T_heta
Width: 1233
VWidth: 0
Flags: W
LayerCount: 2
Fore
SplineSet
10 680 m 256
NamedP: "hr00"
 10 1154 230 1418 618 1418 c 256
 1005 1418 1223 1157 1223 675 c 256
 1223 199 1011 -24 623 -24 c 256
 220 -24 10 215 10 680 c 256
NamedP: "hr00"
940 686 m 256
 940 991 856 1183 623 1183 c 256
 388 1183 293 987 293 686 c 256
 293 393 385 231 624 231 c 256
 863 231 940 391 940 686 c 256
403 809 m 257
 830 809 l 257
 830 579 l 257
 403 579 l 257
 403 809 l 257
EndSplineSet
PickledDataWithLists: "(dp1
S'com.schriftgestaltung.Glyphs.lastChange'
p2
S'2017-07-11 17:15:08 +0000'
p3
s."
EndChar

StartChar: Thorn
Encoding: 119 222 119
GlifName: T_horn
Width: 1233
VWidth: 0
Flags: W
LayerCount: 2
Fore
SplineSet
162 1493 m 257
NamedP: "hr00"
 457 1493 l 257
NamedP: "sh01"
 457 1255 l 257
 567 1255 l 258
NamedP: "dv04"
 773 1255 921 1219 1012 1146 c 256
 1103 1073 1147 952 1147 791 c 256
NamedP: "sh02"
 1147 630 1101 513 1010 441 c 256
 917 366 770 332 567 332 c 258
NamedP: "dv01"
 457 332 l 257
NamedP: "sh03"
 457 0 l 257
NamedP: "ab01"
 162 0 l 257
 162 1493 l 257
NamedP: "hr00"
578 575 m 258
NamedP: "dv02"
 773 575 840 633 840 793 c 256
NamedP: "ah01"
 840 874 821 931 782 964 c 256
 743 997 675 1014 578 1014 c 258
NamedP: "dv03"
 457 1014 l 257
NamedP: "sh04"
 457 575 l 257
 578 575 l 258
NamedP: "dv02"
EndSplineSet
PickledDataWithLists: "(dp1
S'com.schriftgestaltung.Glyphs.lastChange'
p2
S'2017-07-11 17:15:08 +0000'
p3
s."
EndChar

StartChar: U
Encoding: 120 85 120
GlifName: U_
Width: 1233
VWidth: 0
Flags: W
LayerCount: 2
Fore
SplineSet
616 -29 m 256
NamedP: "hr00"
 438 -29 309 17 228 109 c 256
 147 202 106 349 106 551 c 258
NamedP: "sh01"
 106 1493 l 257
NamedP: "at01"
 401 1493 l 257
 401 477 l 258
NamedP: "sh02"
 401 401 422 341 458 301 c 256
 497 258 552 238 616 238 c 256
NamedP: "dv01"
 680 238 735 258 774 301 c 256
 810 341 831 401 831 477 c 258
NamedP: "ah01"
 831 1493 l 257
NamedP: "at02"
 1126 1493 l 257
 1126 551 l 258
NamedP: "sh03"
 1126 348 1086 200 1005 109 c 256
 924 17 794 -29 616 -29 c 256
NamedP: "hr00"
EndSplineSet
PickledDataWithLists: "(dp1
S'com.schriftgestaltung.Glyphs.lastChange'
p2
S'2017-07-11 17:15:08 +0000'
p3
s."
EndChar

StartChar: Uacute
Encoding: 121 218 121
GlifName: U_acute
Width: 1233
VWidth: 0
Flags: W
LayerCount: 2
Fore
SplineSet
668 1852 m 257
NamedP: "hr00"
 952 1852 l 257
NamedP: "ih01"
 666 1588 l 257
 469 1588 l 257
NamedP: "ih02"
 668 1852 l 257
NamedP: "hr00"
616 -29 m 256
NamedP: "dv01"
 438 -29 309 17 228 109 c 256
 147 202 106 349 106 551 c 258
NamedP: "sh02"
 106 1493 l 257
NamedP: "at01"
 401 1493 l 257
 401 477 l 258
NamedP: "sh03"
 401 401 422 341 458 301 c 256
 497 258 552 238 616 238 c 256
NamedP: "dv02"
 680 238 735 258 774 301 c 256
 810 341 831 401 831 477 c 258
NamedP: "ah01"
 831 1493 l 257
NamedP: "at02"
 1126 1493 l 257
 1126 551 l 258
NamedP: "sh01"
 1126 348 1086 200 1005 109 c 256
 924 17 794 -29 616 -29 c 256
NamedP: "dv01"
EndSplineSet
PickledDataWithLists: "(dp1
S'com.schriftgestaltung.Glyphs.lastChange'
p2
S'2017-07-11 17:15:08 +0000'
p3
s."
EndChar

StartChar: Ubreve
Encoding: 122 364 122
GlifName: U_breve
Width: 1233
VWidth: 0
Flags: W
LayerCount: 2
Fore
SplineSet
952 1852 m 257
NamedP: "hr00"
 809 1852 l 257
 784 1771 720 1731 616 1731 c 256
NamedP: "hr01"
 515 1731 447 1773 422 1852 c 257
NamedP: "hr02"
 281 1852 l 257
 302 1680 420 1588 616 1588 c 256
 813 1588 932 1681 952 1852 c 257
NamedP: "hr00"
907 32 m 256
 1055 113 1126 282 1126 551 c 258
 1126 1493 l 257
 831 1493 l 257
 831 477 l 258
 831 326 751 238 616 238 c 256
 481 238 401 326 401 477 c 258
 401 1493 l 257
 106 1493 l 257
 106 551 l 258
 106 416 124 306 160 221 c 256
 231 52 377 -29 616 -29 c 256
 735 -29 832 -9 907 32 c 256
EndSplineSet
PickledDataWithLists: "(dp1
S'com.schriftgestaltung.Glyphs.lastChange'
p2
S'2017-07-11 17:15:08 +0000'
p3
s."
EndChar

StartChar: Ucircumflex
Encoding: 123 219 123
GlifName: U_circumflex
Width: 1233
VWidth: 0
Flags: W
LayerCount: 2
Fore
SplineSet
461 1852 m 257
NamedP: "hr00"
 770 1852 l 257
 993 1588 l 257
NamedP: "ih01"
 815 1588 l 257
 616 1749 l 257
 418 1588 l 257
 240 1588 l 257
NamedP: "ih02"
 461 1852 l 257
NamedP: "hr00"
616 -29 m 256
NamedP: "dv01"
 438 -29 309 17 228 109 c 256
 147 202 106 349 106 551 c 258
NamedP: "sh02"
 106 1493 l 257
NamedP: "at01"
 401 1493 l 257
 401 477 l 258
NamedP: "sh03"
 401 401 422 341 458 301 c 256
 497 258 552 238 616 238 c 256
NamedP: "dv02"
 680 238 735 258 774 301 c 256
 810 341 831 401 831 477 c 258
NamedP: "ah01"
 831 1493 l 257
NamedP: "at02"
 1126 1493 l 257
 1126 551 l 258
NamedP: "sh01"
 1126 348 1086 200 1005 109 c 256
 924 17 794 -29 616 -29 c 256
NamedP: "dv01"
EndSplineSet
PickledDataWithLists: "(dp1
S'com.schriftgestaltung.Glyphs.lastChange'
p2
S'2017-07-11 17:15:08 +0000'
p3
s."
EndChar

StartChar: Udieresis
Encoding: 124 220 124
GlifName: U_dieresis
Width: 1233
VWidth: 0
Flags: W
LayerCount: 2
Fore
SplineSet
331 1606 m 258
NamedP: "dv02"
 311 1606 301 1616 301 1636 c 258
NamedP: "ih01"
 301 1822 l 258
 301 1842 311 1852 331 1852 c 258
NamedP: "dv03"
 507 1852 l 258
 527 1852 537 1842 537 1822 c 258
 537 1636 l 258
NamedP: "sh01"
 537 1616 527 1606 507 1606 c 258
 331 1606 l 258
NamedP: "dv02"
726 1606 m 258
NamedP: "sv01"
 706 1606 696 1616 696 1636 c 258
NamedP: "dh03"
 696 1822 l 258
 696 1842 706 1852 726 1852 c 258
NamedP: "sv02"
 902 1852 l 258
 922 1852 932 1842 932 1822 c 258
 932 1636 l 258
NamedP: "dh04"
 932 1616 922 1606 902 1606 c 258
 726 1606 l 258
NamedP: "sv01"
616 -29 m 256
NamedP: "hr01"
 438 -29 309 17 228 109 c 256
 147 202 106 349 106 551 c 258
NamedP: "dh01"
 106 1493 l 257
NamedP: "at01"
 401 1493 l 257
 401 477 l 258
NamedP: "dh02"
 401 401 422 341 458 301 c 256
 497 258 552 238 616 238 c 256
NamedP: "dv01"
 680 238 735 258 774 301 c 256
 810 341 831 401 831 477 c 258
NamedP: "ih02"
 831 1493 l 257
NamedP: "at02"
 1126 1493 l 257
 1126 551 l 258
NamedP: "sh02"
 1126 348 1086 200 1005 109 c 256
 924 17 794 -29 616 -29 c 256
NamedP: "hr01"
EndSplineSet
PickledDataWithLists: "(dp1
S'com.schriftgestaltung.Glyphs.lastChange'
p2
S'2017-07-11 17:15:08 +0000'
p3
s."
EndChar

StartChar: Ugrave
Encoding: 125 217 125
GlifName: U_grave
Width: 1233
VWidth: 0
Flags: W
LayerCount: 2
Fore
SplineSet
283 1852 m 257
NamedP: "hr00"
 567 1852 l 257
 766 1588 l 257
NamedP: "ih01"
 569 1588 l 257
 283 1852 l 257
NamedP: "hr00"
616 -29 m 256
NamedP: "dv01"
 438 -29 309 17 228 109 c 256
 147 202 106 349 106 551 c 258
NamedP: "sh01"
 106 1493 l 257
NamedP: "at01"
 401 1493 l 257
 401 477 l 258
NamedP: "sh02"
 401 401 422 341 458 301 c 256
 497 258 552 238 616 238 c 256
NamedP: "dv02"
 680 238 735 258 774 301 c 256
 810 341 831 401 831 477 c 258
NamedP: "ah01"
 831 1493 l 257
NamedP: "at02"
 1126 1493 l 257
 1126 551 l 258
NamedP: "sh03"
 1126 348 1086 200 1005 109 c 256
 924 17 794 -29 616 -29 c 256
NamedP: "dv01"
EndSplineSet
PickledDataWithLists: "(dp1
S'com.schriftgestaltung.Glyphs.lastChange'
p2
S'2017-07-11 17:15:08 +0000'
p3
s."
EndChar

StartChar: Uhorn
Encoding: 126 431 126
GlifName: U_horn
Width: 1233
VWidth: 0
Flags: W
LayerCount: 2
Fore
SplineSet
1206 1555 m 257
NamedP: "at03"
 1221 1482 1228 1419 1228 1367 c 256
NamedP: "dh06"
 1228 1211 1166 1127 1051 1127 c 256
NamedP: "sv01"
 1042 1127 1034 1126 1025 1129 c 257
NamedP: "hr01"
 1025 551 l 258
NamedP: "dh04"
 1025 146 872 -29 515 -29 c 256
NamedP: "dv01"
 159 -29 5 146 5 551 c 258
NamedP: "dh01"
 5 1493 l 257
NamedP: "at01"
 300 1493 l 257
 300 477 l 258
NamedP: "dh02"
 300 328 379 238 515 238 c 256
NamedP: "dv02"
 651 238 730 328 730 477 c 258
NamedP: "dh03"
 730 1493 l 257
NamedP: "at02"
 1025 1493 l 257
NamedP: "sh01"
 1025 1297 l 257
NamedP: "hr02"
 1058 1310 1081 1345 1081 1406 c 256
NamedP: "dh05"
 1081 1446 1071 1503 1050 1555 c 257
NamedP: "ih01"
 1206 1555 l 257
NamedP: "at03"
EndSplineSet
PickledDataWithLists: "(dp1
S'com.schriftgestaltung.Glyphs.lastChange'
p2
S'2017-07-11 17:15:08 +0000'
p3
s."
EndChar

StartChar: Uhungarumlaut
Encoding: 127 368 127
GlifName: U_hungarumlaut
Width: 1233
VWidth: 0
Flags: W
LayerCount: 2
Fore
SplineSet
463 1852 m 257
NamedP: "hr00"
 747 1852 l 257
NamedP: "ih01"
 461 1588 l 257
NamedP: "dv03"
 264 1588 l 257
NamedP: "ih02"
 463 1852 l 257
NamedP: "hr00"
838 1852 m 257
NamedP: "sh04"
 1122 1852 l 257
NamedP: "sh05"
 836 1588 l 257
NamedP: "sh06"
 639 1588 l 257
 838 1852 l 257
NamedP: "sh04"
616 -29 m 256
NamedP: "dv01"
 260 -29 106 146 106 551 c 258
NamedP: "sh01"
 106 1493 l 257
NamedP: "at01"
 401 1493 l 257
 401 477 l 258
NamedP: "sh03"
 401 328 480 238 616 238 c 256
NamedP: "dv02"
 752 238 831 328 831 477 c 258
NamedP: "ah01"
 831 1493 l 257
NamedP: "at02"
 1126 1493 l 257
 1126 551 l 258
NamedP: "sh02"
 1126 146 973 -29 616 -29 c 256
NamedP: "dv01"
EndSplineSet
PickledDataWithLists: "(dp1
S'com.schriftgestaltung.Glyphs.lastChange'
p2
S'2017-07-11 17:15:08 +0000'
p3
s."
EndChar

StartChar: Umacron
Encoding: 128 362 128
GlifName: U_macron
Width: 1233
VWidth: 0
Flags: W
LayerCount: 2
Fore
SplineSet
301 1830 m 257
NamedP: "hr00"
 932 1830 l 257
NamedP: "dv04"
 932 1642 l 257
NamedP: "dv03"
 301 1642 l 257
 301 1830 l 257
NamedP: "hr00"
616 -29 m 256
NamedP: "dv01"
 260 -29 106 146 106 551 c 258
NamedP: "sh01"
 106 1493 l 257
NamedP: "at01"
 401 1493 l 257
 401 477 l 258
NamedP: "sh02"
 401 328 480 238 616 238 c 256
NamedP: "dv02"
 752 238 831 328 831 477 c 258
NamedP: "ah01"
 831 1493 l 257
NamedP: "at02"
 1126 1493 l 257
 1126 551 l 258
NamedP: "sh03"
 1126 146 973 -29 616 -29 c 256
NamedP: "dv01"
EndSplineSet
PickledDataWithLists: "(dp1
S'com.schriftgestaltung.Glyphs.lastChange'
p2
S'2017-07-11 17:15:08 +0000'
p3
s."
EndChar

StartChar: Uogonek
Encoding: 129 370 129
GlifName: U_ogonek
Width: 1233
VWidth: 0
Flags: W
LayerCount: 2
Fore
SplineSet
1126 1493 m 257
NamedP: "at01"
 1126 551 l 258
NamedP: "dh06"
 1126 170 991 -8 678 -27 c 257
NamedP: "ab01"
 637 -81 625 -104 615 -122 c 256
 602 -146 596 -163 596 -182 c 256
NamedP: "dh04"
 596 -229 631 -270 714 -270 c 256
NamedP: "dv02"
 755 -270 809 -260 862 -239 c 257
NamedP: "sh01"
 862 -395 l 257
 790 -410 726 -417 675 -417 c 256
NamedP: "dv01"
 519 -417 434 -355 434 -240 c 256
NamedP: "dh03"
 434 -169 467 -103 536 -26 c 257
NamedP: "hr01"
 236 1 106 178 106 551 c 258
NamedP: "dh01"
 106 1493 l 257
NamedP: "at02"
 401 1493 l 257
NamedP: "hr02"
 401 477 l 258
NamedP: "dh02"
 401 328 480 238 616 238 c 256
NamedP: "sv01"
 752 238 831 328 831 477 c 258
NamedP: "dh05"
 831 1493 l 257
 1126 1493 l 257
NamedP: "at01"
EndSplineSet
PickledDataWithLists: "(dp1
S'com.schriftgestaltung.Glyphs.lastChange'
p2
S'2017-07-11 17:15:08 +0000'
p3
s."
EndChar

StartChar: Upsilon
Encoding: 130 933 130
GlifName: U_psilon
Width: 1233
VWidth: 0
Flags: W
LayerCount: 2
Fore
SplineSet
459 534 m 258
NamedP: "hr00"
 459 846 364 1142 260 1203 c 256
 214 1230 105 1248 24 1229 c 257
 24 1493 l 257
 68 1509 167 1506 251 1490 c 257
 424 1453 542 1343 596 1057 c 257
NamedP: "ih01"
 667 1308 781 1453 940 1490 c 256
 1007 1506 1066 1498 1115 1467 c 256
 1248 1384 1221 1205 1181 1130 c 256
 1113 1003 947 1068 931 1203 c 257
 808 1022 754 803 754 534 c 258
NamedP: "dh01"
 754 0 l 257
NamedP: "ab01"
 459 0 l 257
 459 534 l 258
NamedP: "hr00"
EndSplineSet
PickledDataWithLists: "(dp1
S'com.schriftgestaltung.Glyphs.lastChange'
p2
S'2017-07-11 17:15:08 +0000'
p3
s."
EndChar

StartChar: Upsilondieresis
Encoding: 131 939 131
GlifName: U_psilondieresis
Width: 1233
VWidth: 0
Flags: W
LayerCount: 2
Fore
SplineSet
321 1606 m 258
NamedP: "dv01"
 301 1606 291 1616 291 1636 c 258
NamedP: "sh01"
 291 1822 l 258
 291 1842 301 1852 321 1852 c 258
NamedP: "dv02"
 497 1852 l 258
 517 1852 527 1842 527 1822 c 258
 527 1636 l 258
NamedP: "sh02"
 527 1616 517 1606 497 1606 c 258
 321 1606 l 258
NamedP: "dv01"
716 1606 m 258
NamedP: "sv01"
 696 1606 686 1616 686 1636 c 258
NamedP: "sh04"
 686 1822 l 258
 686 1842 696 1852 716 1852 c 258
NamedP: "sv02"
 892 1852 l 258
 912 1852 922 1842 922 1822 c 258
 922 1636 l 258
NamedP: "hr01"
 922 1616 912 1606 892 1606 c 258
 716 1606 l 258
NamedP: "sv01"
459 534 m 258
NamedP: "sh03"
 459 846 364 1142 260 1203 c 256
 214 1230 105 1248 24 1229 c 257
 24 1493 l 257
 68 1509 167 1506 251 1490 c 257
 424 1453 542 1343 596 1057 c 257
NamedP: "ih01"
 667 1308 781 1453 940 1490 c 256
 1007 1506 1066 1498 1115 1467 c 256
 1248 1384 1221 1205 1181 1130 c 256
 1113 1003 947 1068 931 1203 c 257
NamedP: "sh05"
 808 1022 754 803 754 534 c 258
NamedP: "sh06"
 754 0 l 257
NamedP: "ab01"
 459 0 l 257
 459 534 l 258
NamedP: "sh03"
EndSplineSet
PickledDataWithLists: "(dp1
S'com.schriftgestaltung.Glyphs.lastChange'
p2
S'2017-07-11 17:15:08 +0000'
p3
s."
EndChar

StartChar: Upsilontonos
Encoding: 132 910 132
GlifName: U_psilontonos
Width: 1233
VWidth: 0
Flags: W
LayerCount: 2
Fore
SplineSet
-253 1608 m 257
NamedP: "hr00"
 29 1608 l 257
 -339 1232 l 257
 -536 1232 l 257
NamedP: "iv01"
 -253 1608 l 257
NamedP: "hr00"
469 534 m 258
NamedP: "dh01"
 469 846 374 1142 270 1203 c 256
 224 1230 115 1248 34 1229 c 257
 34 1493 l 257
 78 1509 177 1506 261 1490 c 257
 434 1453 552 1343 606 1057 c 257
NamedP: "ih01"
 677 1308 791 1453 950 1490 c 256
 1017 1506 1076 1498 1125 1467 c 256
 1258 1384 1231 1205 1191 1130 c 256
 1123 1003 957 1068 941 1203 c 257
NamedP: "iv02"
 818 1022 764 803 764 534 c 258
NamedP: "dh02"
 764 0 l 257
NamedP: "ab01"
 469 0 l 257
 469 534 l 258
NamedP: "dh01"
EndSplineSet
PickledDataWithLists: "(dp1
S'com.schriftgestaltung.Glyphs.lastChange'
p2
S'2017-07-11 17:15:08 +0000'
p3
s."
EndChar

StartChar: Uring
Encoding: 133 366 133
GlifName: U_ring
Width: 1233
VWidth: 0
Flags: W
LayerCount: 2
Fore
SplineSet
1126 1493 m 257
NamedP: "at01"
 1126 551 l 258
NamedP: "sh01"
 1126 146 973 -29 616 -29 c 256
NamedP: "dv01"
 260 -29 106 146 106 551 c 258
NamedP: "dh01"
 106 1493 l 257
NamedP: "at02"
 365 1493 l 257
NamedP: "ih02"
 346 1532 337 1573 337 1616 c 256
NamedP: "ih03"
 337 1773 465 1901 622 1901 c 256
NamedP: "dv04"
 780 1901 906 1773 906 1616 c 256
NamedP: "hr01"
 906 1573 897 1532 878 1493 c 257
NamedP: "ih04"
 1126 1493 l 257
NamedP: "at01"
621 1747 m 256
NamedP: "dv03"
 549 1747 490 1688 490 1616 c 256
NamedP: "sh02"
 490 1543 549 1485 621 1485 c 256
NamedP: "hr02"
 693 1485 753 1544 753 1616 c 256
NamedP: "dh03"
 753 1688 693 1747 621 1747 c 256
NamedP: "dv03"
616 238 m 256
NamedP: "dv02"
 752 238 831 328 831 477 c 258
NamedP: "ih01"
 831 1423 l 257
NamedP: "ih05"
 779 1366 706 1331 622 1331 c 256
NamedP: "hr03"
 533 1331 453 1372 401 1436 c 257
NamedP: "iv01"
 401 477 l 258
NamedP: "dh02"
 401 328 480 238 616 238 c 256
NamedP: "dv02"
EndSplineSet
PickledDataWithLists: "(dp1
S'com.schriftgestaltung.Glyphs.lastChange'
p2
S'2017-07-11 17:15:08 +0000'
p3
s."
EndChar

StartChar: Utilde
Encoding: 134 360 134
GlifName: U_tilde
Width: 1233
VWidth: 0
Flags: W
LayerCount: 2
Fore
SplineSet
268 1618 m 258
NamedP: "hr00"
 268 1759 349 1854 463 1854 c 256
NamedP: "dv04"
 514 1854 566 1836 614 1805 c 258
 674 1766 l 258
 701 1749 724 1737 751 1737 c 256
NamedP: "dv06"
 798 1737 825 1778 825 1854 c 257
NamedP: "sh01"
 965 1854 l 257
 965 1849 963 1829 963 1826 c 256
NamedP: "dh02"
 963 1682 887 1588 765 1588 c 256
NamedP: "dv05"
 718 1588 675 1601 618 1637 c 258
 564 1671 l 257
NamedP: "hr01"
 552 1678 l 258
 525 1693 503 1704 480 1704 c 256
NamedP: "dv03"
 437 1704 408 1662 408 1594 c 258
NamedP: "hr02"
 408 1588 l 257
NamedP: "sv01"
 268 1588 l 257
NamedP: "sh02"
 268 1618 l 258
NamedP: "hr00"
616 -29 m 256
NamedP: "dv01"
 260 -29 106 146 106 551 c 258
NamedP: "hr03"
 106 1493 l 257
NamedP: "at01"
 401 1493 l 257
 401 477 l 258
NamedP: "hr04"
 401 328 480 238 616 238 c 256
NamedP: "dv02"
 752 238 831 328 831 477 c 258
NamedP: "hr05"
 831 1493 l 257
NamedP: "dh01"
 1126 1493 l 257
 1126 551 l 258
NamedP: "hr06"
 1126 146 973 -29 616 -29 c 256
NamedP: "dv01"
EndSplineSet
PickledDataWithLists: "(dp1
S'com.schriftgestaltung.Glyphs.lastChange'
p2
S'2017-07-11 17:15:08 +0000'
p3
s."
EndChar

StartChar: V
Encoding: 135 86 135
GlifName: V_
Width: 1233
VWidth: 0
Flags: W
LayerCount: 2
Fore
SplineSet
57 1493 m 257
NamedP: "hr00"
 354 1493 l 257
 616 246 l 257
NamedP: "iv01"
 879 1493 l 257
NamedP: "at01"
 1176 1493 l 257
 821 0 l 257
NamedP: "ab01"
 412 0 l 257
 57 1493 l 257
NamedP: "hr00"
EndSplineSet
PickledDataWithLists: "(dp1
S'com.schriftgestaltung.Glyphs.lastChange'
p2
S'2017-07-11 17:15:08 +0000'
p3
s."
EndChar

StartChar: W
Encoding: 136 87 136
GlifName: W_
Width: 1233
VWidth: 0
Flags: W
LayerCount: 2
Fore
SplineSet
0 1493 m 257
NamedP: "hr00"
 258 1493 l 257
 365 397 l 257
NamedP: "iv01"
 494 1106 l 257
 739 1106 l 257
 889 397 l 257
NamedP: "iv02"
 973 1493 l 257
NamedP: "at01"
 1233 1493 l 257
 1061 0 l 257
NamedP: "ab01"
 786 0 l 257
 616 784 l 257
NamedP: "iv03"
 457 0 l 257
NamedP: "ab02"
 184 0 l 257
 0 1493 l 257
NamedP: "hr00"
EndSplineSet
PickledDataWithLists: "(dp1
S'com.schriftgestaltung.Glyphs.lastChange'
p2
S'2017-07-11 17:15:08 +0000'
p3
s."
EndChar

StartChar: Wacute
Encoding: 137 7810 137
GlifName: W_acute
Width: 1233
VWidth: 0
Flags: W
LayerCount: 2
Fore
SplineSet
668 1859 m 257
NamedP: "hr00"
 952 1859 l 257
 666 1595 l 257
 469 1595 l 257
NamedP: "iv01"
 668 1859 l 257
NamedP: "hr00"
0 1493 m 257
NamedP: "at01"
 258 1493 l 257
 365 397 l 257
NamedP: "iv02"
 494 1106 l 257
 739 1106 l 257
 889 397 l 257
NamedP: "iv03"
 973 1493 l 257
NamedP: "at02"
 1233 1493 l 257
 1061 0 l 257
NamedP: "ab01"
 786 0 l 257
 616 784 l 257
NamedP: "iv04"
 457 0 l 257
NamedP: "ab02"
 184 0 l 257
 0 1493 l 257
NamedP: "at01"
EndSplineSet
PickledDataWithLists: "(dp1
S'com.schriftgestaltung.Glyphs.lastChange'
p2
S'2017-07-11 17:15:08 +0000'
p3
s."
EndChar

StartChar: Wcircumflex
Encoding: 138 372 138
GlifName: W_circumflex
Width: 1233
VWidth: 0
Flags: W
LayerCount: 2
Fore
SplineSet
461 1859 m 257
NamedP: "hr00"
 770 1859 l 257
 993 1595 l 257
NamedP: "iv01"
 815 1595 l 257
 616 1756 l 257
 418 1595 l 257
 240 1595 l 257
NamedP: "iv02"
 461 1859 l 257
NamedP: "hr00"
0 1493 m 257
NamedP: "at01"
 258 1493 l 257
 365 397 l 257
NamedP: "iv03"
 494 1106 l 257
 739 1106 l 257
 889 397 l 257
NamedP: "iv04"
 973 1493 l 257
NamedP: "at02"
 1233 1493 l 257
 1061 0 l 257
NamedP: "ab01"
 786 0 l 257
 616 784 l 257
NamedP: "iv05"
 457 0 l 257
NamedP: "ab02"
 184 0 l 257
 0 1493 l 257
NamedP: "at01"
EndSplineSet
PickledDataWithLists: "(dp1
S'com.schriftgestaltung.Glyphs.lastChange'
p2
S'2017-07-11 17:15:08 +0000'
p3
s."
EndChar

StartChar: Wdieresis
Encoding: 139 7812 139
GlifName: W_dieresis
Width: 1233
VWidth: 0
Flags: W
LayerCount: 2
Fore
SplineSet
331 1595 m 258
NamedP: "hr00"
 311 1595 301 1605 301 1625 c 258
NamedP: "sh01"
 301 1811 l 258
 301 1831 311 1841 331 1841 c 258
NamedP: "dv01"
 507 1841 l 258
 527 1841 537 1831 537 1811 c 258
 537 1625 l 258
NamedP: "sh02"
 537 1605 527 1595 507 1595 c 258
 331 1595 l 258
NamedP: "hr00"
726 1595 m 258
NamedP: "sv01"
 706 1595 696 1605 696 1625 c 258
NamedP: "ah01"
 696 1811 l 258
 696 1831 706 1841 726 1841 c 258
NamedP: "sv02"
 902 1841 l 258
 922 1841 932 1831 932 1811 c 258
 932 1625 l 258
NamedP: "sh03"
 932 1605 922 1595 902 1595 c 258
 726 1595 l 258
NamedP: "sv01"
0 1493 m 257
NamedP: "at01"
 258 1493 l 257
 365 397 l 257
NamedP: "ih01"
 494 1106 l 257
 739 1106 l 257
 889 397 l 257
NamedP: "ih02"
 973 1493 l 257
NamedP: "at02"
 1233 1493 l 257
 1061 0 l 257
NamedP: "ab01"
 786 0 l 257
 616 784 l 257
NamedP: "ih03"
 457 0 l 257
NamedP: "ab02"
 184 0 l 257
 0 1493 l 257
NamedP: "at01"
EndSplineSet
PickledDataWithLists: "(dp1
S'com.schriftgestaltung.Glyphs.lastChange'
p2
S'2017-07-11 17:15:08 +0000'
p3
s."
EndChar

StartChar: Wgrave
Encoding: 140 7808 140
GlifName: W_grave
Width: 1233
VWidth: 0
Flags: W
LayerCount: 2
Fore
SplineSet
283 1859 m 257
NamedP: "hr00"
 567 1859 l 257
 766 1595 l 257
NamedP: "iv01"
 569 1595 l 257
 283 1859 l 257
NamedP: "hr00"
0 1493 m 257
NamedP: "at01"
 258 1493 l 257
 365 397 l 257
NamedP: "iv02"
 494 1106 l 257
 739 1106 l 257
 889 397 l 257
NamedP: "iv03"
 973 1493 l 257
NamedP: "at02"
 1233 1493 l 257
 1061 0 l 257
NamedP: "ab01"
 786 0 l 257
 616 784 l 257
NamedP: "iv04"
 457 0 l 257
NamedP: "ab02"
 184 0 l 257
 0 1493 l 257
NamedP: "at01"
EndSplineSet
PickledDataWithLists: "(dp1
S'com.schriftgestaltung.Glyphs.lastChange'
p2
S'2017-07-11 17:15:08 +0000'
p3
s."
EndChar

StartChar: X
Encoding: 141 88 141
GlifName: X_
Width: 1233
VWidth: 0
Flags: W
LayerCount: 2
Fore
SplineSet
465 758 m 257
NamedP: "hr00"
 39 1493 l 257
NamedP: "at01"
 344 1493 l 257
 616 1018 l 257
NamedP: "iv01"
 889 1493 l 257
NamedP: "at02"
 1194 1493 l 257
 770 758 l 257
 1206 0 l 257
NamedP: "ab01"
 901 0 l 257
 616 494 l 257
NamedP: "iv02"
 332 0 l 257
NamedP: "ab02"
 27 0 l 257
 465 758 l 257
NamedP: "hr00"
EndSplineSet
PickledDataWithLists: "(dp1
S'com.schriftgestaltung.Glyphs.lastChange'
p2
S'2017-07-11 17:15:08 +0000'
p3
s."
EndChar

StartChar: Xi
Encoding: 142 926 142
GlifName: X_i
Width: 1233
VWidth: 0
Flags: W
LayerCount: 2
Fore
SplineSet
137 1493 m 257
NamedP: "hr00"
 1096 1493 l 257
 1096 1233 l 257
NamedP: "sv01"
 137 1233 l 257
 137 1493 l 257
NamedP: "hr00"
377 924 m 257
NamedP: "dh01"
 856 924 l 257
NamedP: "dh02"
 856 664 l 257
NamedP: "dv01"
 377 664 l 257
 377 924 l 257
NamedP: "dh01"
137 260 m 257
NamedP: "sv02"
 1096 260 l 257
 1096 0 l 257
NamedP: "ab01"
 137 0 l 257
 137 260 l 257
NamedP: "sv02"
EndSplineSet
PickledDataWithLists: "(dp1
S'com.schriftgestaltung.Glyphs.lastChange'
p2
S'2017-07-11 17:15:08 +0000'
p3
s."
EndChar

StartChar: Y
Encoding: 143 89 143
GlifName: Y_
Width: 1233
VWidth: 0
Flags: W
LayerCount: 2
Fore
SplineSet
469 588 m 257
NamedP: "hr00"
 8 1493 l 257
NamedP: "at01"
 326 1493 l 257
 616 893 l 257
NamedP: "ih01"
 907 1493 l 257
NamedP: "at02"
 1225 1493 l 257
 764 588 l 257
NamedP: "dh01"
 764 0 l 257
NamedP: "ab01"
 469 0 l 257
 469 588 l 257
NamedP: "hr00"
EndSplineSet
PickledDataWithLists: "(dp1
S'com.schriftgestaltung.Glyphs.lastChange'
p2
S'2017-07-11 17:15:08 +0000'
p3
s."
EndChar

StartChar: Yacute
Encoding: 144 221 144
GlifName: Y_acute
Width: 1233
VWidth: 0
Flags: W
LayerCount: 2
Fore
SplineSet
668 1852 m 257
NamedP: "hr00"
 952 1852 l 257
 666 1588 l 257
 469 1588 l 257
NamedP: "iv01"
 668 1852 l 257
NamedP: "hr00"
469 588 m 257
NamedP: "dh01"
 8 1493 l 257
NamedP: "at01"
 326 1493 l 257
 616 893 l 257
NamedP: "ih01"
 907 1493 l 257
NamedP: "at02"
 1225 1493 l 257
NamedP: "iv02"
 764 588 l 257
NamedP: "dh02"
 764 0 l 257
NamedP: "ab01"
 469 0 l 257
 469 588 l 257
NamedP: "dh01"
EndSplineSet
PickledDataWithLists: "(dp1
S'com.schriftgestaltung.Glyphs.lastChange'
p2
S'2017-07-11 17:15:08 +0000'
p3
s."
EndChar

StartChar: Ycircumflex
Encoding: 145 374 145
GlifName: Y_circumflex
Width: 1233
VWidth: 0
Flags: W
LayerCount: 2
Fore
SplineSet
461 1859 m 257
NamedP: "hr00"
 770 1859 l 257
 993 1595 l 257
NamedP: "iv01"
 815 1595 l 257
 616 1756 l 257
 418 1595 l 257
 240 1595 l 257
NamedP: "iv02"
 461 1859 l 257
NamedP: "hr00"
469 588 m 257
NamedP: "dh01"
 8 1493 l 257
NamedP: "at01"
 326 1493 l 257
 616 893 l 257
NamedP: "ih01"
 907 1493 l 257
NamedP: "at02"
 1225 1493 l 257
NamedP: "iv03"
 764 588 l 257
NamedP: "dh02"
 764 0 l 257
NamedP: "ab01"
 469 0 l 257
 469 588 l 257
NamedP: "dh01"
EndSplineSet
PickledDataWithLists: "(dp1
S'com.schriftgestaltung.Glyphs.lastChange'
p2
S'2017-07-11 17:15:08 +0000'
p3
s."
EndChar

StartChar: Ydieresis
Encoding: 146 376 146
GlifName: Y_dieresis
Width: 1233
VWidth: 0
Flags: W
LayerCount: 2
Fore
SplineSet
331 1606 m 258
NamedP: "dv01"
 311 1606 301 1616 301 1636 c 258
NamedP: "sh01"
 301 1822 l 258
 301 1842 311 1852 331 1852 c 258
NamedP: "dv02"
 507 1852 l 258
 527 1852 537 1842 537 1822 c 258
 537 1636 l 258
NamedP: "sh02"
 537 1616 527 1606 507 1606 c 258
 331 1606 l 258
NamedP: "dv01"
726 1606 m 258
NamedP: "sv01"
 706 1606 696 1616 696 1636 c 258
NamedP: "sh04"
 696 1822 l 258
NamedP: "hr01"
 696 1842 706 1852 726 1852 c 258
NamedP: "sv02"
 902 1852 l 258
 922 1852 932 1842 932 1822 c 258
 932 1636 l 258
NamedP: "sh05"
 932 1616 922 1606 902 1606 c 258
 726 1606 l 258
NamedP: "sv01"
469 588 m 257
NamedP: "sh03"
 8 1493 l 257
NamedP: "at01"
 326 1493 l 257
 616 893 l 257
NamedP: "ih01"
 907 1493 l 257
NamedP: "at02"
 1225 1493 l 257
 764 588 l 257
NamedP: "sh06"
 764 0 l 257
NamedP: "ab01"
 469 0 l 257
 469 588 l 257
NamedP: "sh03"
EndSplineSet
PickledDataWithLists: "(dp1
S'com.schriftgestaltung.Glyphs.lastChange'
p2
S'2017-07-11 17:15:08 +0000'
p3
s."
EndChar

StartChar: Ygrave
Encoding: 147 7922 147
GlifName: Y_grave
Width: 1233
VWidth: 0
Flags: W
LayerCount: 2
Fore
SplineSet
283 1859 m 257
NamedP: "hr00"
 567 1859 l 257
 766 1595 l 257
NamedP: "iv01"
 569 1595 l 257
 283 1859 l 257
NamedP: "hr00"
469 588 m 257
NamedP: "dh01"
 8 1493 l 257
NamedP: "at01"
 326 1493 l 257
 616 893 l 257
NamedP: "ih01"
 907 1493 l 257
NamedP: "at02"
 1225 1493 l 257
NamedP: "iv02"
 764 588 l 257
NamedP: "dh02"
 764 0 l 257
NamedP: "ab01"
 469 0 l 257
 469 588 l 257
NamedP: "dh01"
EndSplineSet
PickledDataWithLists: "(dp1
S'com.schriftgestaltung.Glyphs.lastChange'
p2
S'2017-07-11 17:15:08 +0000'
p3
s."
EndChar

StartChar: Z
Encoding: 148 90 148
GlifName: Z_
Width: 1233
VWidth: 0
Flags: W
LayerCount: 2
Fore
SplineSet
94 244 m 257
NamedP: "hr00"
 765 1233 l 257
NamedP: "sv01"
 116 1233 l 257
 116 1493 l 257
NamedP: "at01"
 1126 1493 l 257
 1126 1249 l 257
 434 260 l 257
NamedP: "sv02"
 1140 260 l 257
 1140 0 l 257
NamedP: "ab01"
 94 0 l 257
 94 244 l 257
NamedP: "hr00"
EndSplineSet
PickledDataWithLists: "(dp1
S'com.schriftgestaltung.Glyphs.lastChange'
p2
S'2017-07-11 17:15:08 +0000'
p3
s."
EndChar

StartChar: Zacute
Encoding: 149 377 149
GlifName: Z_acute
Width: 1233
VWidth: 0
Flags: W
LayerCount: 2
Fore
SplineSet
699 1853 m 257
NamedP: "hr00"
 983 1853 l 257
 697 1589 l 257
 500 1589 l 257
NamedP: "iv01"
 699 1853 l 257
NamedP: "hr00"
115 244 m 257
 786 1233 l 257
NamedP: "sv01"
 137 1233 l 257
 137 1493 l 257
NamedP: "at01"
 1147 1493 l 257
 1147 1249 l 257
 455 260 l 257
NamedP: "sv02"
 1161 260 l 257
 1161 0 l 257
NamedP: "ab01"
 115 0 l 257
 115 244 l 257
EndSplineSet
PickledDataWithLists: "(dp1
S'com.schriftgestaltung.Glyphs.lastChange'
p2
S'2017-07-11 17:15:08 +0000'
p3
s."
EndChar

StartChar: Zcaron
Encoding: 150 381 150
GlifName: Z_caron
Width: 1233
VWidth: 0
Flags: W
LayerCount: 2
Fore
SplineSet
240 1852 m 257
NamedP: "hr00"
 418 1852 l 257
 616 1690 l 257
 815 1852 l 257
NamedP: "av01"
 993 1852 l 257
 770 1588 l 257
 461 1588 l 257
 240 1852 l 257
NamedP: "hr00"
115 244 m 257
 786 1233 l 257
NamedP: "sv01"
 137 1233 l 257
 137 1493 l 257
NamedP: "at01"
 1147 1493 l 257
 1147 1249 l 257
 455 260 l 257
NamedP: "sv02"
 1161 260 l 257
 1161 0 l 257
NamedP: "ab01"
 115 0 l 257
 115 244 l 257
EndSplineSet
PickledDataWithLists: "(dp1
S'com.schriftgestaltung.Glyphs.lastChange'
p2
S'2017-07-11 17:15:08 +0000'
p3
s."
EndChar

StartChar: Zdotaccent
Encoding: 151 379 151
GlifName: Z_dotaccent
Width: 1233
VWidth: 0
Flags: W
LayerCount: 2
Fore
SplineSet
559 1606 m 258
NamedP: "hr00"
 539 1606 529 1616 529 1636 c 258
NamedP: "dh01"
 529 1822 l 258
 529 1842 539 1852 559 1852 c 258
NamedP: "dv01"
 774 1852 l 258
 794 1852 804 1842 804 1822 c 258
 804 1636 l 258
NamedP: "dh02"
 804 1616 794 1606 774 1606 c 258
 559 1606 l 258
NamedP: "hr00"
115 244 m 257
 786 1233 l 257
NamedP: "ih01"
 137 1233 l 257
 137 1493 l 257
NamedP: "at01"
 1147 1493 l 257
 1147 1249 l 257
 455 260 l 257
NamedP: "sv01"
 1161 260 l 257
 1161 0 l 257
NamedP: "ab01"
 115 0 l 257
 115 244 l 257
EndSplineSet
PickledDataWithLists: "(dp1
S'com.schriftgestaltung.Glyphs.lastChange'
p2
S'2017-07-11 17:15:08 +0000'
p3
s."
EndChar

StartChar: Zeta
Encoding: 152 918 152
GlifName: Z_eta
Width: 1233
VWidth: 0
Flags: W
LayerCount: 2
Fore
SplineSet
115 244 m 257
NamedP: "hr00"
 786 1233 l 257
NamedP: "sv01"
 137 1233 l 257
 137 1493 l 257
NamedP: "at01"
 1147 1493 l 257
 1147 1249 l 257
 455 260 l 257
NamedP: "sv02"
 1161 260 l 257
 1161 0 l 257
NamedP: "ab01"
 115 0 l 257
 115 244 l 257
NamedP: "hr00"
EndSplineSet
PickledDataWithLists: "(dp1
S'com.schriftgestaltung.Glyphs.lastChange'
p2
S'2017-07-11 17:15:08 +0000'
p3
s."
EndChar

StartChar: a
Encoding: 154 97 154
GlifName: a
Width: 1233
VWidth: 0
Flags: W
LayerCount: 2
Fore
SplineSet
494 -29 m 256
NamedP: "dv01"
 373 -29 274 4 202 72 c 256
 131 139 95 233 95 354 c 256
NamedP: "sh01"
 95 482 134 580 222 644 c 256
 307 706 438 737 615 737 c 258
 818 737 l 257
NamedP: "ah01"
 818 786 l 258
 818 835 799 871 767 894 c 256
 732 919 679 930 610 930 c 256
NamedP: "dv03"
 546 930 477 921 412 904 c 256
NamedP: "sh03"
 348 887 278 858 206 819 c 257
NamedP: "ih01"
 206 1069 l 257
 262 1092 336 1116 403 1128 c 256
NamedP: "sh04"
 458 1139 540 1148 628 1148 c 256
NamedP: "hr01"
 815 1148 927 1102 997 1035 c 257
 1069 963 1109 852 1109 644 c 256
NamedP: "sh05"
 1109 570 1104 323 1104 274 c 256
NamedP: "sh06"
 1104 246 1105 216 1106 197 c 256
NamedP: "sh07"
 1109 170 1110 142 1113 125 c 256
NamedP: "sh08"
 1117 98 1123 71 1127 58 c 256
 1134 38 1144 15 1155 0 c 257
NamedP: "ab01"
 865 0 l 257
 853 20 842 43 837 58 c 256
 833 71 827 98 824 125 c 257
NamedP: "sh09"
 787 76 740 38 682 11 c 256
NamedP: "ab02"
 626 -16 570 -29 494 -29 c 256
NamedP: "dv01"
576 174 m 256
NamedP: "dv02"
 651 174 711 202 754 262 c 257
 797 319 818 401 818 506 c 258
NamedP: "sh10"
 818 526 l 257
NamedP: "dv04"
 701 526 l 258
 591 526 515 512 472 484 c 256
 429 456 407 409 407 342 c 256
NamedP: "sh02"
 407 287 421 250 452 219 c 256
 482 189 523 174 576 174 c 256
NamedP: "dv02"
EndSplineSet
PickledDataWithLists: "(dp1
S'com.schriftgestaltung.Glyphs.lastChange'
p2
S'2017-07-11 17:15:08 +0000'
p3
s."
Substitution2: "Single Substitution lookup 14 subtable" ordfeminine
Substitution2: "Single Substitution lookup 11 subtable" ordfeminine
EndChar

StartChar: aacute
Encoding: 155 225 155
GlifName: aacute
Width: 1233
VWidth: 0
Flags: W
LayerCount: 2
Fore
SplineSet
752 1673 m 257
NamedP: "av01"
 1034 1673 l 257
NamedP: "ih01"
 666 1297 l 257
 469 1297 l 257
NamedP: "ih02"
 752 1673 l 257
NamedP: "av01"
494 -29 m 256
NamedP: "dv01"
 373 -29 274 4 202 72 c 256
 131 139 95 233 95 354 c 256
NamedP: "sh02"
 95 482 134 580 222 644 c 256
 307 706 438 737 615 737 c 258
 818 737 l 257
NamedP: "ah01"
 818 786 l 258
 818 835 799 871 767 894 c 256
 732 919 679 930 610 930 c 256
NamedP: "dv04"
 546 930 477 921 412 904 c 256
NamedP: "hr01"
 348 887 278 858 206 819 c 257
NamedP: "ih03"
 206 1069 l 257
 262 1092 336 1116 403 1128 c 256
NamedP: "sh05"
 458 1139 540 1148 628 1148 c 256
NamedP: "dv05"
 815 1148 927 1102 997 1035 c 257
 1069 963 1109 852 1109 644 c 256
NamedP: "sh01"
 1109 570 1104 323 1104 274 c 256
NamedP: "sh06"
 1104 246 1105 216 1106 197 c 256
NamedP: "sh07"
 1109 170 1110 142 1113 125 c 256
NamedP: "sh03"
 1117 98 1123 71 1127 58 c 256
 1134 38 1144 15 1155 0 c 257
NamedP: "ab01"
 865 0 l 257
 853 20 842 43 837 58 c 256
 833 71 827 98 824 125 c 257
NamedP: "sh08"
 787 76 740 38 682 11 c 256
NamedP: "ab02"
 626 -16 570 -29 494 -29 c 256
NamedP: "dv01"
576 174 m 256
NamedP: "dv02"
 651 174 711 202 754 262 c 257
 797 319 818 401 818 506 c 258
NamedP: "sh09"
 818 526 l 257
NamedP: "dv03"
 701 526 l 258
 591 526 515 512 472 484 c 256
NamedP: "hr02"
 429 456 407 409 407 342 c 256
NamedP: "sh04"
 407 287 421 250 452 219 c 256
 482 189 523 174 576 174 c 256
NamedP: "dv02"
EndSplineSet
PickledDataWithLists: "(dp1
S'com.schriftgestaltung.Glyphs.lastChange'
p2
S'2017-07-11 17:15:08 +0000'
p3
s."
EndChar

StartChar: abreve
Encoding: 156 259 156
GlifName: abreve
Width: 1233
VWidth: 0
Flags: W
LayerCount: 2
Fore
SplineSet
616 1297 m 256
NamedP: "dv03"
 407 1297 289 1401 281 1594 c 257
NamedP: "sv01"
 422 1594 l 257
 437 1502 504 1450 616 1450 c 256
NamedP: "dv04"
 728 1450 794 1501 809 1594 c 257
NamedP: "sh01"
 952 1594 l 257
 944 1401 827 1297 616 1297 c 256
NamedP: "dv03"
494 -29 m 256
NamedP: "dv01"
 373 -29 274 4 202 72 c 256
 131 139 95 233 95 354 c 256
NamedP: "sh02"
 95 482 134 580 222 644 c 256
 307 706 438 737 615 737 c 258
 818 737 l 257
NamedP: "ah01"
 818 786 l 258
 818 835 799 871 767 894 c 256
NamedP: "hr01"
 732 919 679 930 610 930 c 256
NamedP: "dv05"
 546 930 477 921 412 904 c 256
NamedP: "sh04"
 348 887 278 858 206 819 c 257
NamedP: "ih01"
 206 1069 l 257
 262 1092 336 1116 403 1128 c 256
NamedP: "sh05"
 458 1139 540 1148 628 1148 c 256
NamedP: "dv06"
 815 1148 927 1102 997 1035 c 257
 1069 963 1109 852 1109 644 c 256
NamedP: "sh06"
 1109 570 1104 323 1104 274 c 256
NamedP: "sh07"
 1104 246 1105 216 1106 197 c 256
NamedP: "sh08"
 1109 170 1110 142 1113 125 c 256
NamedP: "sh09"
 1117 98 1123 71 1127 58 c 256
 1134 38 1144 15 1155 0 c 257
NamedP: "ab01"
 865 0 l 257
 853 20 842 43 837 58 c 256
 833 71 827 98 824 125 c 257
NamedP: "sh10"
 787 76 740 38 682 11 c 256
NamedP: "ab02"
 626 -16 570 -29 494 -29 c 256
NamedP: "dv01"
576 174 m 256
NamedP: "dv02"
 651 174 711 202 754 262 c 257
 797 319 818 401 818 506 c 258
NamedP: "sh11"
 818 526 l 257
NamedP: "hr02"
 701 526 l 258
 591 526 515 512 472 484 c 256
 429 456 407 409 407 342 c 256
NamedP: "sh03"
 407 287 421 250 452 219 c 256
NamedP: "hr03"
 482 189 523 174 576 174 c 256
NamedP: "dv02"
EndSplineSet
PickledDataWithLists: "(dp1
S'com.schriftgestaltung.Glyphs.lastChange'
p2
S'2017-07-11 17:15:08 +0000'
p3
s."
EndChar

StartChar: acircumflex
Encoding: 157 226 157
GlifName: acircumflex
Width: 1233
VWidth: 0
Flags: W
LayerCount: 2
Fore
SplineSet
496 1672 m 257
NamedP: "av01"
 737 1672 l 257
 993 1296 l 257
NamedP: "ih01"
 815 1296 l 257
NamedP: "sh02"
 616 1521 l 257
 418 1296 l 257
NamedP: "sh05"
 240 1296 l 257
NamedP: "ih02"
 496 1672 l 257
NamedP: "av01"
494 -29 m 256
NamedP: "dv01"
 373 -29 274 4 202 72 c 256
 131 139 95 233 95 354 c 256
NamedP: "sh03"
 95 482 134 580 222 644 c 256
 307 706 438 737 615 737 c 258
 818 737 l 257
NamedP: "ah01"
 818 786 l 258
NamedP: "hr01"
 818 835 799 871 767 894 c 256
 732 919 679 930 610 930 c 256
NamedP: "dv04"
 546 930 477 921 412 904 c 256
NamedP: "sh06"
 348 887 278 858 206 819 c 257
NamedP: "ih03"
 206 1069 l 257
 262 1092 336 1116 403 1128 c 256
NamedP: "sh07"
 458 1139 540 1148 628 1148 c 256
NamedP: "dv05"
 815 1148 927 1102 997 1035 c 257
 1069 963 1109 852 1109 644 c 256
NamedP: "sh01"
 1109 570 1104 323 1104 274 c 256
NamedP: "sh08"
 1104 246 1105 216 1106 197 c 256
NamedP: "sh09"
 1109 170 1110 142 1113 125 c 256
NamedP: "sh10"
 1117 98 1123 71 1127 58 c 256
 1134 38 1144 15 1155 0 c 257
NamedP: "ab01"
 865 0 l 257
 853 20 842 43 837 58 c 256
 833 71 827 98 824 125 c 257
NamedP: "sh11"
 787 76 740 38 682 11 c 256
NamedP: "ab02"
 626 -16 570 -29 494 -29 c 256
NamedP: "dv01"
576 174 m 256
NamedP: "dv02"
 651 174 711 202 754 262 c 257
 797 319 818 401 818 506 c 258
NamedP: "hr02"
 818 526 l 257
NamedP: "dv03"
 701 526 l 258
 591 526 515 512 472 484 c 256
 429 456 407 409 407 342 c 256
NamedP: "sh04"
 407 287 421 250 452 219 c 256
 482 189 523 174 576 174 c 256
NamedP: "dv02"
EndSplineSet
PickledDataWithLists: "(dp1
S'com.schriftgestaltung.Glyphs.lastChange'
p2
S'2017-07-11 17:15:08 +0000'
p3
s."
EndChar

StartChar: acute
Encoding: 158 180 158
GlifName: acute
Width: 1233
VWidth: 0
Flags: W
LayerCount: 2
Fore
SplineSet
752 1638 m 257
NamedP: "hr00"
 1034 1638 l 257
 666 1262 l 257
NamedP: "av01"
 469 1262 l 257
 752 1638 l 257
NamedP: "hr00"
EndSplineSet
PickledDataWithLists: "(dp1
S'com.schriftgestaltung.Glyphs.lastChange'
p2
S'2017-07-11 17:15:08 +0000'
p3
s."
EndChar

StartChar: acutecomb
Encoding: 159 769 159
GlifName: acutecomb
Width: 0
VWidth: 0
Flags: W
LayerCount: 2
Fore
SplineSet
-481 1638 m 257
NamedP: "hr00"
 -199 1638 l 257
 -567 1262 l 257
NamedP: "av01"
 -764 1262 l 257
 -481 1638 l 257
NamedP: "hr00"
EndSplineSet
PickledDataWithLists: "(dp1
S'com.schriftgestaltung.Glyphs.lastChange'
p2
S'2017-07-11 17:15:08 +0000'
p3
s."
EndChar

StartChar: adieresis
Encoding: 160 228 160
GlifName: adieresis
Width: 1233
VWidth: 0
Flags: W
LayerCount: 2
Fore
SplineSet
331 1349 m 258
NamedP: "dv03"
 311 1349 301 1359 301 1379 c 258
NamedP: "ih01"
 301 1565 l 258
 301 1585 311 1595 331 1595 c 258
NamedP: "dv04"
 507 1595 l 258
 527 1595 537 1585 537 1565 c 258
 537 1379 l 258
NamedP: "sh01"
 537 1359 527 1349 507 1349 c 258
 331 1349 l 258
NamedP: "dv03"
726 1349 m 258
NamedP: "sv01"
 706 1349 696 1359 696 1379 c 258
NamedP: "dh03"
 696 1565 l 258
 696 1585 706 1595 726 1595 c 258
NamedP: "sv02"
 902 1595 l 258
 922 1595 932 1585 932 1565 c 258
NamedP: "hr01"
 932 1379 l 258
NamedP: "dh04"
 932 1359 922 1349 902 1349 c 258
 726 1349 l 258
NamedP: "sv01"
494 -29 m 256
NamedP: "dv01"
 373 -29 274 4 202 72 c 256
 131 139 95 233 95 354 c 256
NamedP: "dh01"
 95 482 134 580 222 644 c 256
 307 706 438 737 615 737 c 258
 818 737 l 257
NamedP: "ih02"
 818 786 l 258
 818 835 799 871 767 894 c 256
 732 919 679 930 610 930 c 256
NamedP: "dv06"
 546 930 477 921 412 904 c 256
 348 887 278 858 206 819 c 257
NamedP: "ih03"
 206 1069 l 257
 262 1092 336 1116 403 1128 c 256
 458 1139 540 1148 628 1148 c 256
NamedP: "dv07"
 815 1148 927 1102 997 1035 c 257
 1069 963 1109 852 1109 644 c 256
NamedP: "sh02"
 1109 570 1104 323 1104 274 c 256
NamedP: "sh03"
 1104 246 1105 216 1106 197 c 256
NamedP: "sh04"
 1109 170 1110 142 1113 125 c 256
NamedP: "hr02"
 1117 98 1123 71 1127 58 c 256
 1134 38 1144 15 1155 0 c 257
NamedP: "ab01"
 865 0 l 257
 853 20 842 43 837 58 c 256
 833 71 827 98 824 125 c 257
NamedP: "sh05"
 787 76 740 38 682 11 c 256
NamedP: "ab02"
 626 -16 570 -29 494 -29 c 256
NamedP: "dv01"
576 174 m 256
NamedP: "dv02"
 651 174 711 202 754 262 c 257
 797 319 818 401 818 506 c 258
NamedP: "sh06"
 818 526 l 257
NamedP: "dv05"
 701 526 l 258
 591 526 515 512 472 484 c 256
 429 456 407 409 407 342 c 256
NamedP: "dh02"
 407 287 421 250 452 219 c 256
 482 189 523 174 576 174 c 256
NamedP: "dv02"
EndSplineSet
PickledDataWithLists: "(dp1
S'com.schriftgestaltung.Glyphs.lastChange'
p2
S'2017-07-11 17:15:08 +0000'
p3
s."
EndChar

StartChar: ae
Encoding: 161 230 161
GlifName: ae
Width: 1233
VWidth: 0
Flags: W
LayerCount: 2
Fore
SplineSet
346 -29 m 256
NamedP: "hr00"
 241 -29 159 2 101 63 c 256
 43 125 14 213 14 326 c 256
NamedP: "dh01"
 14 449 48 542 115 603 c 256
 182 664 283 694 420 694 c 258
 496 694 l 257
NamedP: "dh03"
 496 745 l 258
 496 869 443 932 343 932 c 256
NamedP: "sv01"
 258 932 181 901 76 823 c 257
NamedP: "ih01"
 76 1069 l 257
 176 1122 266 1147 357 1147 c 256
NamedP: "at01"
 418 1147 472 1137 515 1116 c 256
 556 1095 589 1063 612 1020 c 257
NamedP: "ih02"
 631 1061 662 1092 707 1114 c 256
 751 1136 804 1147 865 1147 c 256
NamedP: "at02"
 986 1147 1065 1108 1114 1028 c 256
 1161 952 1188 828 1188 606 c 258
 1188 479 l 257
 737 479 l 257
NamedP: "sh01"
 737 384 754 311 787 260 c 256
 818 213 863 184 932 184 c 256
NamedP: "sv02"
 977 184 1015 195 1052 214 c 256
 1087 231 1126 256 1171 301 c 257
NamedP: "dh06"
 1171 57 l 257
 1138 28 1100 6 1059 -8 c 256
 1016 -23 967 -29 916 -29 c 256
NamedP: "sv03"
 843 -29 786 -15 735 13 c 256
 685 41 646 82 618 135 c 257
NamedP: "ih03"
 591 79 555 38 512 11 c 256
 469 -16 413 -29 346 -29 c 256
NamedP: "hr00"
963 690 m 257
NamedP: "dh05"
 963 713 l 258
 963 797 955 854 938 885 c 256
 921 916 891 932 850 932 c 256
NamedP: "sv04"
 809 932 779 916 762 885 c 256
 745 854 737 797 737 713 c 258
 737 690 l 257
NamedP: "dh04"
 963 690 l 257
NamedP: "dh05"
365 184 m 256
NamedP: "dv01"
 407 184 438 198 459 227 c 256
 479 256 489 299 489 358 c 258
NamedP: "sh02"
 489 483 l 257
NamedP: "sv05"
 416 483 l 258
 301 483 240 430 240 329 c 256
NamedP: "dh02"
 240 237 284 184 365 184 c 256
NamedP: "dv01"
EndSplineSet
PickledDataWithLists: "(dp1
S'com.schriftgestaltung.Glyphs.lastChange'
p2
S'2017-07-11 17:15:08 +0000'
p3
s."
EndChar

StartChar: agrave
Encoding: 162 224 162
GlifName: agrave
Width: 1233
VWidth: 0
Flags: W
LayerCount: 2
Fore
SplineSet
199 1673 m 257
NamedP: "ih01"
 481 1673 l 257
 764 1297 l 257
NamedP: "ih02"
 567 1297 l 257
 199 1673 l 257
NamedP: "ih01"
494 -29 m 256
NamedP: "dv01"
 373 -29 274 4 202 72 c 256
 131 139 95 233 95 354 c 256
NamedP: "sh01"
 95 482 134 580 222 644 c 256
 307 706 438 737 615 737 c 258
 818 737 l 257
NamedP: "ah01"
 818 786 l 258
 818 835 799 871 767 894 c 256
 732 919 679 930 610 930 c 256
NamedP: "dv04"
 546 930 477 921 412 904 c 256
NamedP: "hr01"
 348 887 278 858 206 819 c 257
NamedP: "ih03"
 206 1069 l 257
 262 1092 336 1116 403 1128 c 256
NamedP: "sh05"
 458 1139 540 1148 628 1148 c 256
NamedP: "dv05"
 815 1148 927 1102 997 1035 c 257
 1069 963 1109 852 1109 644 c 256
NamedP: "sh03"
 1109 570 1104 323 1104 274 c 256
NamedP: "sh06"
 1104 246 1105 216 1106 197 c 256
NamedP: "sh07"
 1109 170 1110 142 1113 125 c 256
NamedP: "sh04"
 1117 98 1123 71 1127 58 c 256
 1134 38 1144 15 1155 0 c 257
NamedP: "ab01"
 865 0 l 257
 853 20 842 43 837 58 c 256
 833 71 827 98 824 125 c 257
NamedP: "sh08"
 787 76 740 38 682 11 c 256
NamedP: "ab02"
 626 -16 570 -29 494 -29 c 256
NamedP: "dv01"
576 174 m 256
NamedP: "dv02"
 651 174 711 202 754 262 c 257
 797 319 818 401 818 506 c 258
NamedP: "sh09"
 818 526 l 257
NamedP: "dv03"
 701 526 l 258
 591 526 515 512 472 484 c 256
NamedP: "hr02"
 429 456 407 409 407 342 c 256
NamedP: "sh02"
 407 287 421 250 452 219 c 256
 482 189 523 174 576 174 c 256
NamedP: "dv02"
EndSplineSet
PickledDataWithLists: "(dp1
S'com.schriftgestaltung.Glyphs.lastChange'
p2
S'2017-07-11 17:15:08 +0000'
p3
s."
EndChar

StartChar: alpha
Encoding: 163 945 163
GlifName: alpha
Width: 1233
VWidth: 0
Flags: W
LayerCount: 2
Fore
SplineSet
1062 0 m 258
NamedP: "hr00"
 956 0 876 28 822 84 c 256
 814 92 802 106 799 113 c 257
NamedP: "iv01"
 767 74 727 29 708 16 c 256
 633 -39 319 -79 166 123 c 256
 91 220 54 374 54 559 c 256
NamedP: "dh01"
 54 965 240 1137 500 1145 c 256
 652 1150 769 1100 833 1012 c 257
NamedP: "iv02"
 869 1120 l 257
NamedP: "at01"
 1151 1120 l 257
 958 543 l 257
 985 390 l 258
 1004 280 1036 225 1082 225 c 258
NamedP: "sv01"
 1164 225 l 257
 1164 0 l 257
 1062 0 l 258
NamedP: "hr00"
695 589 m 257
 665 752 l 258
 627 956 461 933 381 814 c 256
 342 755 323 667 323 552 c 256
NamedP: "dh02"
 323 431 344 354 381 299 c 256
 454 194 567 198 596 285 c 258
 695 589 l 257
EndSplineSet
PickledDataWithLists: "(dp1
S'com.schriftgestaltung.Glyphs.lastChange'
p2
S'2017-07-11 17:15:08 +0000'
p3
s."
EndChar

StartChar: alphatonos
Encoding: 164 940 164
GlifName: alphatonos
Width: 1233
VWidth: 0
Flags: W
LayerCount: 2
Fore
SplineSet
752 1671 m 257
NamedP: "hr00"
 1034 1671 l 257
 666 1295 l 257
 469 1295 l 257
NamedP: "iv01"
 752 1671 l 257
NamedP: "hr00"
1062 0 m 258
NamedP: "ab01"
 956 0 876 28 822 84 c 256
 814 92 802 106 799 113 c 257
NamedP: "iv02"
 767 74 727 29 708 16 c 256
 633 -39 319 -79 166 123 c 256
 91 220 54 374 54 559 c 256
NamedP: "dh01"
 54 965 240 1137 500 1145 c 256
 652 1150 769 1100 833 1012 c 257
NamedP: "iv03"
 869 1120 l 257
NamedP: "at01"
 1151 1120 l 257
NamedP: "iv04"
 958 543 l 257
 985 390 l 258
 1004 280 1036 225 1082 225 c 258
NamedP: "sv01"
 1164 225 l 257
 1164 0 l 257
 1062 0 l 258
NamedP: "ab01"
695 589 m 257
 665 752 l 258
 627 956 461 933 381 814 c 256
 342 755 323 667 323 552 c 256
NamedP: "dh02"
 323 431 344 354 381 299 c 256
 454 194 567 198 596 285 c 258
 695 589 l 257
EndSplineSet
PickledDataWithLists: "(dp1
S'com.schriftgestaltung.Glyphs.lastChange'
p2
S'2017-07-11 17:15:08 +0000'
p3
s."
EndChar

StartChar: amacron
Encoding: 165 257 165
GlifName: amacron
Width: 1233
VWidth: 0
Flags: W
LayerCount: 2
Fore
SplineSet
301 1535 m 257
NamedP: "hr00"
 932 1535 l 257
NamedP: "dv04"
 932 1347 l 257
NamedP: "dv03"
 301 1347 l 257
 301 1535 l 257
NamedP: "hr00"
494 -29 m 256
NamedP: "dv01"
 373 -29 274 4 202 72 c 256
 131 139 95 233 95 354 c 256
NamedP: "sh01"
 95 482 134 580 222 644 c 256
 307 706 438 737 615 737 c 258
 818 737 l 257
NamedP: "ah01"
 818 786 l 258
 818 835 799 871 767 894 c 256
 732 919 679 930 610 930 c 256
NamedP: "dv06"
 546 930 477 921 412 904 c 256
NamedP: "hr01"
 348 887 278 858 206 819 c 257
NamedP: "ih01"
 206 1069 l 257
 262 1092 336 1116 403 1128 c 256
NamedP: "sh03"
 458 1139 540 1148 628 1148 c 256
NamedP: "dv07"
 815 1148 927 1102 997 1035 c 257
 1069 963 1109 852 1109 644 c 256
NamedP: "sh04"
 1109 570 1104 323 1104 274 c 256
NamedP: "sh05"
 1104 246 1105 216 1106 197 c 256
NamedP: "sh06"
 1109 170 1110 142 1113 125 c 256
NamedP: "sh07"
 1117 98 1123 71 1127 58 c 256
 1134 38 1144 15 1155 0 c 257
NamedP: "ab01"
 865 0 l 257
 853 20 842 43 837 58 c 256
 833 71 827 98 824 125 c 257
NamedP: "sh08"
 787 76 740 38 682 11 c 256
NamedP: "ab02"
 626 -16 570 -29 494 -29 c 256
NamedP: "dv01"
576 174 m 256
NamedP: "dv02"
 651 174 711 202 754 262 c 257
 797 319 818 401 818 506 c 258
NamedP: "sh09"
 818 526 l 257
NamedP: "dv05"
 701 526 l 258
 591 526 515 512 472 484 c 256
NamedP: "hr02"
 429 456 407 409 407 342 c 256
NamedP: "sh02"
 407 287 421 250 452 219 c 256
 482 189 523 174 576 174 c 256
NamedP: "dv02"
EndSplineSet
PickledDataWithLists: "(dp1
S'com.schriftgestaltung.Glyphs.lastChange'
p2
S'2017-07-11 17:15:08 +0000'
p3
s."
EndChar

StartChar: ampersand
Encoding: 166 38 166
GlifName: ampersand
Width: 1233
VWidth: 0
Flags: W
LayerCount: 2
Fore
SplineSet
537 -29 m 256
NamedP: "dv01"
 390 -29 269 15 176 102 c 256
 83 189 37 302 37 442 c 256
NamedP: "dh01"
 37 546 61 629 108 706 c 256
 156 786 224 853 317 913 c 257
 281 970 258 1018 243 1058 c 256
 227 1102 219 1142 219 1189 c 256
NamedP: "ih01"
 219 1290 255 1374 328 1433 c 256
 401 1491 506 1520 643 1520 c 256
NamedP: "at01"
 694 1520 739 1516 786 1509 c 256
NamedP: "at02"
 839 1501 877 1492 924 1477 c 257
 924 1221 l 257
NamedP: "ih02"
 838 1270 756 1294 663 1294 c 256
NamedP: "hr01"
 612 1294 570 1285 543 1266 c 256
 516 1247 502 1220 502 1186 c 256
NamedP: "sh01"
 502 1159 510 1130 533 1085 c 256
 554 1042 583 993 631 920 c 258
 944 440 l 257
NamedP: "ih03"
 959 466 969 495 976 527 c 256
 983 562 987 597 987 633 c 256
NamedP: "sh02"
 987 652 986 675 985 692 c 256
NamedP: "dh03"
 984 712 983 722 979 745 c 257
NamedP: "sh03"
 1214 745 l 257
 1214 694 l 258
NamedP: "dh04"
 1214 596 1203 512 1180 441 c 256
 1157 367 1121 302 1073 246 c 257
 1235 0 l 257
NamedP: "ab01"
 918 0 l 257
 870 72 l 257
 818 37 770 16 711 -3 c 256
NamedP: "ab02"
 655 -20 604 -29 537 -29 c 256
NamedP: "dv01"
580 207 m 256
NamedP: "dv02"
 600 207 613 209 636 214 c 256
 655 218 669 221 693 232 c 258
 701 236 l 258
 728 250 732 251 748 262 c 257
 440 731 l 257
 396 702 363 668 341 629 c 256
 318 590 307 545 307 494 c 256
NamedP: "dh02"
 307 406 340 339 385 291 c 256
NamedP: "hr02"
 438 235 503 207 580 207 c 256
NamedP: "dv02"
EndSplineSet
PickledDataWithLists: "(dp1
S'com.schriftgestaltung.Glyphs.lastChange'
p2
S'2017-07-11 17:15:08 +0000'
p3
s."
EndChar

StartChar: angle
Encoding: 167 8736 167
GlifName: angle
Width: 1233
VWidth: 0
Flags: W
LayerCount: 2
Fore
SplineSet
887 1306 m 257
NamedP: "hr00"
 1125 1306 l 257
 505 488 l 257
 1145 488 l 257
NamedP: "dv02"
 1145 250 l 257
NamedP: "dv01"
 88 250 l 257
 887 1306 l 257
NamedP: "hr00"
EndSplineSet
PickledDataWithLists: "(dp1
S'com.schriftgestaltung.Glyphs.lastChange'
p2
S'2017-07-11 17:15:08 +0000'
p3
s."
EndChar

StartChar: aogonek
Encoding: 168 261 168
GlifName: aogonek
Width: 1233
VWidth: 0
Flags: W
LayerCount: 2
Fore
SplineSet
1036 -252 m 256
NamedP: "dv02"
 1077 -252 1131 -242 1184 -221 c 257
NamedP: "sh01"
 1184 -377 l 257
 1112 -392 1048 -399 997 -399 c 256
NamedP: "dv01"
 841 -399 756 -337 756 -222 c 256
NamedP: "dh02"
 756 -150 790 -80 865 0 c 257
NamedP: "ab01"
 853 20 842 43 837 58 c 256
 833 71 827 98 824 125 c 257
NamedP: "sh02"
 787 76 740 38 682 11 c 256
NamedP: "ab02"
 626 -16 570 -29 494 -29 c 256
NamedP: "hr01"
 373 -29 274 4 202 72 c 256
 131 139 95 233 95 354 c 256
NamedP: "dh01"
 95 482 134 580 222 644 c 256
 307 706 438 737 615 737 c 258
 818 737 l 257
NamedP: "ih01"
 818 786 l 258
 818 835 799 871 767 894 c 256
 732 919 679 930 610 930 c 256
NamedP: "hr02"
 546 930 477 921 412 904 c 256
 348 887 278 858 206 819 c 257
NamedP: "ih02"
 206 1069 l 257
 262 1092 336 1116 403 1128 c 256
 458 1139 540 1148 628 1148 c 256
NamedP: "dv03"
 815 1148 927 1102 997 1035 c 257
 1069 963 1109 852 1109 644 c 256
NamedP: "sh03"
 1109 570 1104 323 1104 274 c 256
NamedP: "sh04"
 1104 246 1105 216 1106 197 c 256
NamedP: "sh05"
 1109 170 1110 142 1113 125 c 256
 1117 98 1123 71 1127 58 c 256
 1134 38 1144 15 1155 0 c 257
NamedP: "ih03"
 1007 0 l 257
 962 -61 948 -84 937 -104 c 256
 924 -128 918 -145 918 -164 c 256
NamedP: "dh03"
 918 -211 953 -252 1036 -252 c 256
NamedP: "dv02"
818 526 m 257
NamedP: "sh06"
 701 526 l 258
 591 526 515 512 472 484 c 256
 429 456 407 409 407 342 c 256
NamedP: "hr03"
 407 287 421 250 452 219 c 256
 482 189 523 174 576 174 c 256
NamedP: "dv04"
 651 174 711 202 754 262 c 257
 797 319 818 401 818 506 c 258
 818 526 l 257
NamedP: "sh06"
EndSplineSet
PickledDataWithLists: "(dp1
S'com.schriftgestaltung.Glyphs.lastChange'
p2
S'2017-07-11 17:15:08 +0000'
p3
s."
EndChar

StartChar: approxequal
Encoding: 169 8776 169
GlifName: approxequal
Width: 1233
VWidth: 0
Flags: W
LayerCount: 2
Fore
SplineSet
850 672 m 256
NamedP: "dv04"
 770 672 714 694 645 723 c 257
 614 734 615 737 612 737 c 257
 561 760 519 775 484 783 c 256
 449 791 414 795 381 795 c 256
NamedP: "sv01"
 330 795 281 785 233 766 c 256
 194 750 143 721 88 674 c 257
NamedP: "iv01"
 88 903 l 257
 141 944 194 974 239 991 c 256
 287 1010 343 1018 392 1018 c 256
NamedP: "hr01"
 461 1018 533 1000 621 963 c 257
 622 963 l 257
 652 949 l 258
 730 913 801 895 864 895 c 256
NamedP: "dv05"
 959 895 1046 933 1145 1020 c 257
NamedP: "av01"
 1145 786 l 257
 1095 747 1046 719 999 700 c 256
 955 683 907 672 850 672 c 256
NamedP: "dv04"
850 254 m 256
NamedP: "hr02"
 770 254 714 276 645 305 c 257
 614 316 615 319 612 319 c 257
 561 342 519 357 484 365 c 256
 449 373 414 377 381 377 c 256
NamedP: "dv02"
 330 377 281 367 233 348 c 256
 194 332 143 303 88 256 c 257
NamedP: "iv02"
 88 485 l 257
 139 526 190 555 239 573 c 256
 288 592 342 600 391 600 c 256
NamedP: "dv03"
 462 600 533 582 621 545 c 257
NamedP: "hr03"
 622 545 l 257
 653 531 l 258
 728 496 796 477 864 477 c 256
NamedP: "dv01"
 915 477 958 488 1003 508 c 256
 1055 531 1097 559 1145 602 c 257
 1145 369 l 257
 1096 330 1047 301 999 282 c 256
 955 265 907 254 850 254 c 256
NamedP: "hr02"
EndSplineSet
PickledDataWithLists: "(dp1
S'com.schriftgestaltung.Glyphs.lastChange'
p2
S'2017-07-11 17:15:08 +0000'
p3
s."
EndChar

StartChar: aring
Encoding: 170 229 170
GlifName: aring
Width: 1233
VWidth: 0
Flags: W
LayerCount: 2
Fore
SplineSet
617 1249 m 256
NamedP: "dv06"
 541 1249 469 1277 414 1332 c 256
 367 1379 332 1451 332 1535 c 256
NamedP: "ih01"
 332 1620 368 1690 415 1737 c 256
 470 1792 540 1819 616 1819 c 256
NamedP: "dv04"
 699 1819 769 1786 818 1737 c 256
 866 1689 901 1618 901 1534 c 256
NamedP: "dh03"
 901 1458 874 1389 819 1333 c 256
 763 1277 693 1249 617 1249 c 256
NamedP: "dv06"
617 1403 m 256
NamedP: "dv07"
 653 1403 684 1416 710 1442 c 256
 735 1467 748 1498 748 1534 c 256
NamedP: "dh02"
 748 1570 735 1601 709 1627 c 256
 682 1652 651 1665 616 1665 c 256
NamedP: "dv03"
 580 1665 549 1652 524 1627 c 256
NamedP: "hr01"
 498 1601 485 1570 485 1534 c 256
NamedP: "sh01"
 485 1497 498 1466 523 1441 c 256
 544 1420 577 1403 617 1403 c 256
NamedP: "dv07"
494 -29 m 256
NamedP: "dv01"
 373 -29 274 4 202 72 c 256
 131 139 95 233 95 354 c 256
NamedP: "dh01"
 95 482 134 580 222 644 c 256
 307 706 438 737 615 737 c 258
 818 737 l 257
NamedP: "ih02"
 818 786 l 258
 818 835 799 871 767 894 c 256
 732 919 679 930 610 930 c 256
NamedP: "dv08"
 546 930 477 921 412 904 c 256
 348 887 278 858 206 819 c 257
NamedP: "ih03"
 206 1069 l 257
 262 1092 336 1116 403 1128 c 256
 458 1139 540 1148 628 1148 c 256
NamedP: "dv09"
 815 1148 927 1102 997 1035 c 257
 1069 963 1109 852 1109 644 c 256
NamedP: "sh02"
 1109 570 1104 323 1104 274 c 256
NamedP: "sh03"
 1104 246 1105 216 1106 197 c 256
NamedP: "sh04"
 1109 170 1110 142 1113 125 c 256
NamedP: "hr02"
 1117 98 1123 71 1127 58 c 256
 1134 38 1144 15 1155 0 c 257
NamedP: "ab01"
 865 0 l 257
 853 20 842 43 837 58 c 256
 833 71 827 98 824 125 c 257
NamedP: "sh05"
 787 76 740 38 682 11 c 256
NamedP: "ab02"
 626 -16 570 -29 494 -29 c 256
NamedP: "dv01"
576 174 m 256
NamedP: "dv02"
 651 174 711 202 754 262 c 257
 797 319 818 401 818 506 c 258
NamedP: "sh06"
 818 526 l 257
NamedP: "dv05"
 701 526 l 258
 591 526 515 512 472 484 c 256
 429 456 407 409 407 342 c 256
NamedP: "hr03"
 407 287 421 250 452 219 c 256
 482 189 523 174 576 174 c 256
NamedP: "dv02"
EndSplineSet
PickledDataWithLists: "(dp1
S'com.schriftgestaltung.Glyphs.lastChange'
p2
S'2017-07-11 17:15:08 +0000'
p3
s."
EndChar

StartChar: arrowboth
Encoding: 171 8596 171
GlifName: arrowboth
Width: 1233
VWidth: 0
Flags: W
LayerCount: 2
Fore
SplineSet
66 490 m 257
NamedP: "hr00"
 66 632 l 257
 357 923 l 257
NamedP: "av03"
 477 803 l 257
 347 673 l 257
 886 673 l 257
NamedP: "dv02"
 756 803 l 257
 876 923 l 257
NamedP: "av04"
 1167 632 l 257
 1167 490 l 257
 876 199 l 257
NamedP: "av01"
 756 319 l 257
 886 449 l 257
NamedP: "dv01"
 347 449 l 257
 477 319 l 257
 357 199 l 257
NamedP: "av02"
 66 490 l 257
NamedP: "hr00"
EndSplineSet
PickledDataWithLists: "(dp1
S'com.schriftgestaltung.Glyphs.lastChange'
p2
S'2017-07-11 17:15:08 +0000'
p3
s."
EndChar

StartChar: arrowdblboth
Encoding: 172 8660 172
GlifName: arrowdblboth
Width: 1233
VWidth: 0
Flags: W
LayerCount: 2
Fore
SplineSet
66 490 m 257
NamedP: "hr00"
 66 632 l 257
 357 923 l 257
NamedP: "av03"
 477 803 l 257
 409 735 l 257
 824 735 l 257
NamedP: "dv04"
 756 803 l 257
 876 923 l 257
NamedP: "av04"
 1167 632 l 257
 1167 490 l 257
 876 199 l 257
NamedP: "av01"
 756 319 l 257
 824 387 l 257
NamedP: "dv01"
 409 387 l 257
 477 319 l 257
 357 199 l 257
NamedP: "av02"
 66 490 l 257
NamedP: "hr00"
926 489 m 257
NamedP: "dv02"
 998 561 l 257
 926 633 l 257
NamedP: "dv03"
 307 633 l 257
 235 561 l 257
 307 489 l 257
 926 489 l 257
NamedP: "dv02"
EndSplineSet
PickledDataWithLists: "(dp1
S'com.schriftgestaltung.Glyphs.lastChange'
p2
S'2017-07-11 17:15:08 +0000'
p3
s."
EndChar

StartChar: arrowdbldown
Encoding: 173 8659 173
GlifName: arrowdbldown
Width: 1233
VWidth: 0
Flags: W
LayerCount: 2
Fore
SplineSet
254 291 m 257
NamedP: "hr00"
 374 411 l 257
 442 343 l 257
NamedP: "sh01"
 442 1101 l 257
NamedP: "av01"
 544 1101 l 257
 544 241 l 257
NamedP: "sh02"
 616 169 l 257
 689 241 l 257
 688 1101 l 257
NamedP: "ah01"
 790 1101 l 257
NamedP: "sh03"
 790 343 l 257
NamedP: "iv01"
 858 411 l 257
 978 291 l 257
 688 0 l 257
NamedP: "sh04"
 546 0 l 257
NamedP: "sh05"
 254 291 l 257
NamedP: "hr00"
EndSplineSet
PickledDataWithLists: "(dp1
S'com.schriftgestaltung.Glyphs.lastChange'
p2
S'2017-07-11 17:15:08 +0000'
p3
s."
EndChar

StartChar: arrowdblleft
Encoding: 174 8656 174
GlifName: arrowdblleft
Width: 1233
VWidth: 0
Flags: W
LayerCount: 2
Fore
SplineSet
66 490 m 257
NamedP: "hr00"
 66 632 l 257
 357 923 l 257
NamedP: "av02"
 477 803 l 257
 409 735 l 257
 1167 735 l 257
NamedP: "dv04"
 1167 633 l 257
NamedP: "dv03"
 307 633 l 257
 235 561 l 257
 307 489 l 257
 1167 489 l 257
NamedP: "dv02"
 1167 387 l 257
NamedP: "dv01"
 409 387 l 257
 477 319 l 257
 357 199 l 257
NamedP: "av01"
 66 490 l 257
NamedP: "hr00"
EndSplineSet
PickledDataWithLists: "(dp1
S'com.schriftgestaltung.Glyphs.lastChange'
p2
S'2017-07-11 17:15:08 +0000'
p3
s."
EndChar

StartChar: arrowdblright
Encoding: 175 8658 175
GlifName: arrowdblright
Width: 1233
VWidth: 0
Flags: W
LayerCount: 2
Fore
SplineSet
756 319 m 257
NamedP: "hr00"
 824 387 l 257
NamedP: "dv01"
 66 387 l 257
 66 489 l 257
 926 489 l 257
NamedP: "dv02"
 998 561 l 257
 926 633 l 257
NamedP: "dv03"
 66 633 l 257
 66 735 l 257
 824 735 l 257
NamedP: "dv04"
 756 803 l 257
 876 923 l 257
NamedP: "av02"
 1167 632 l 257
 1167 490 l 257
 876 199 l 257
NamedP: "av01"
 756 319 l 257
NamedP: "hr00"
EndSplineSet
PickledDataWithLists: "(dp1
S'com.schriftgestaltung.Glyphs.lastChange'
p2
S'2017-07-11 17:15:08 +0000'
p3
s."
EndChar

StartChar: arrowdblup
Encoding: 176 8657 176
GlifName: arrowdblup
Width: 1233
VWidth: 0
Flags: W
LayerCount: 2
Fore
SplineSet
442 758 m 257
NamedP: "hr00"
 374 690 l 257
 254 810 l 257
 546 1101 l 257
NamedP: "sh02"
 688 1101 l 257
NamedP: "ah01"
 978 810 l 257
 858 690 l 257
 790 758 l 257
NamedP: "sh03"
 790 0 l 257
NamedP: "ab01"
 688 0 l 257
NamedP: "sh04"
 689 860 l 257
 616 932 l 257
 544 860 l 257
NamedP: "sh01"
 544 0 l 257
NamedP: "ab02"
 442 0 l 257
 442 758 l 257
NamedP: "hr00"
EndSplineSet
PickledDataWithLists: "(dp1
S'com.schriftgestaltung.Glyphs.lastChange'
p2
S'2017-07-11 17:15:08 +0000'
p3
s."
EndChar

StartChar: arrowdown
Encoding: 177 8595 177
GlifName: arrowdown
Width: 1233
VWidth: 0
Flags: W
LayerCount: 2
Fore
SplineSet
254 291 m 257
NamedP: "hr00"
 374 411 l 257
 504 281 l 257
NamedP: "dh01"
 504 1101 l 257
NamedP: "av01"
 728 1101 l 257
 728 281 l 257
NamedP: "dh02"
 858 411 l 257
 978 291 l 257
 688 0 l 257
NamedP: "ab01"
 546 0 l 257
 254 291 l 257
NamedP: "hr00"
EndSplineSet
PickledDataWithLists: "(dp1
S'com.schriftgestaltung.Glyphs.lastChange'
p2
S'2017-07-11 17:15:08 +0000'
p3
s."
EndChar

StartChar: arrowleft
Encoding: 178 8592 178
GlifName: arrowleft
Width: 1233
VWidth: 0
Flags: W
LayerCount: 2
Fore
SplineSet
66 490 m 257
NamedP: "hr00"
 66 632 l 257
 357 923 l 257
NamedP: "av02"
 477 803 l 257
 347 673 l 257
 1167 673 l 257
NamedP: "dv02"
 1167 449 l 257
NamedP: "dv01"
 347 449 l 257
 477 319 l 257
 357 199 l 257
NamedP: "av01"
 66 490 l 257
NamedP: "hr00"
EndSplineSet
PickledDataWithLists: "(dp1
S'com.schriftgestaltung.Glyphs.lastChange'
p2
S'2017-07-11 17:15:08 +0000'
p3
s."
EndChar

StartChar: arrowright
Encoding: 179 8594 179
GlifName: arrowright
Width: 1233
VWidth: 0
Flags: W
LayerCount: 2
Fore
SplineSet
756 319 m 257
NamedP: "hr00"
 886 449 l 257
NamedP: "dv01"
 66 449 l 257
 66 673 l 257
 886 673 l 257
NamedP: "dv02"
 756 803 l 257
 876 923 l 257
NamedP: "av02"
 1167 632 l 257
 1167 490 l 257
 876 199 l 257
NamedP: "av01"
 756 319 l 257
NamedP: "hr00"
EndSplineSet
PickledDataWithLists: "(dp1
S'com.schriftgestaltung.Glyphs.lastChange'
p2
S'2017-07-11 17:15:08 +0000'
p3
s."
EndChar

StartChar: arrowup
Encoding: 180 8593 180
GlifName: arrowup
Width: 1233
VWidth: 0
Flags: W
LayerCount: 2
Fore
SplineSet
504 820 m 257
NamedP: "hr00"
 374 690 l 257
 254 810 l 257
 546 1101 l 257
NamedP: "av01"
 688 1101 l 257
 978 810 l 257
 858 690 l 257
 728 820 l 257
NamedP: "dh01"
 728 0 l 257
NamedP: "ab01"
 504 0 l 257
 504 820 l 257
NamedP: "hr00"
EndSplineSet
PickledDataWithLists: "(dp1
S'com.schriftgestaltung.Glyphs.lastChange'
p2
S'2017-07-11 17:15:08 +0000'
p3
s."
EndChar

StartChar: arrowupdn
Encoding: 181 8597 181
GlifName: arrowupdn
Width: 1233
VWidth: 0
Flags: W
LayerCount: 2
Fore
SplineSet
254 291 m 257
NamedP: "hr00"
 374 411 l 257
 504 281 l 257
NamedP: "dh01"
 504 820 l 257
NamedP: "iv01"
 374 690 l 257
 254 810 l 257
 546 1101 l 257
NamedP: "av01"
 688 1101 l 257
 978 810 l 257
 858 690 l 257
 728 820 l 257
NamedP: "iv02"
 728 281 l 257
NamedP: "dh02"
 858 411 l 257
 978 291 l 257
 688 0 l 257
NamedP: "ab01"
 546 0 l 257
 254 291 l 257
NamedP: "hr00"
EndSplineSet
PickledDataWithLists: "(dp1
S'com.schriftgestaltung.Glyphs.lastChange'
p2
S'2017-07-11 17:15:08 +0000'
p3
s."
EndChar

StartChar: arrowupdnbse
Encoding: 182 8616 182
GlifName: arrowupdnbse
Width: 1233
VWidth: 0
Flags: W
LayerCount: 2
Fore
SplineSet
254 194 m 257
NamedP: "hr00"
 546 194 l 257
NamedP: "ih01"
 254 485 l 257
 374 605 l 257
 504 475 l 257
NamedP: "dh01"
 504 820 l 257
NamedP: "iv01"
 374 690 l 257
 254 810 l 257
 546 1101 l 257
NamedP: "av01"
 688 1101 l 257
 978 810 l 257
 858 690 l 257
 728 820 l 257
NamedP: "iv02"
 728 475 l 257
NamedP: "dh02"
 858 605 l 257
 978 485 l 257
 688 194 l 257
NamedP: "ih02"
 978 194 l 257
NamedP: "sv01"
 978 0 l 257
NamedP: "ab01"
 254 0 l 257
 254 194 l 257
NamedP: "hr00"
EndSplineSet
PickledDataWithLists: "(dp1
S'com.schriftgestaltung.Glyphs.lastChange'
p2
S'2017-07-11 17:15:08 +0000'
p3
s."
EndChar

StartChar: asciicircum
Encoding: 183 94 183
GlifName: asciicircum
Width: 1233
VWidth: 0
Flags: W
LayerCount: 2
Fore
SplineSet
494 1493 m 257
NamedP: "hr00"
 739 1493 l 257
 1176 936 l 257
NamedP: "av01"
 934 936 l 257
 616 1237 l 257
 299 936 l 257
NamedP: "av02"
 57 936 l 257
 494 1493 l 257
NamedP: "hr00"
EndSplineSet
PickledDataWithLists: "(dp1
S'com.schriftgestaltung.Glyphs.lastChange'
p2
S'2017-07-11 17:15:08 +0000'
p3
s."
EndChar

StartChar: asciitilde
Encoding: 184 126 184
GlifName: asciitilde
Width: 1233
VWidth: 0
Flags: W
LayerCount: 2
Fore
SplineSet
1165 873 m 257
NamedP: "hr00"
 1160 696 1145 571 1094 483 c 256
 1095 486 l 256
 1042 378 953 324 830 324 c 256
 771 324 721 337 678 362 c 256
 639 385 594 431 545 500 c 256
 499 565 467 604 448 619 c 257
 431 630 417 637 404 637 c 256
 375 637 356 624 345 597 c 257
 345 598 l 257
 326 553 313 463 307 330 c 257
 68 330 l 257
 72 499 96 628 139 717 c 257
 200 824 287 877 399 877 c 256
 454 877 503 864 546 837 c 256
 590 810 640 763 684 702 c 257
 683 703 l 257
NamedP: "hr01"
 717 657 748 620 777 591 c 256
 795 573 812 564 827 564 c 256
 895 564 921 662 924 873 c 257
 1165 873 l 257
NamedP: "hr00"
EndSplineSet
PickledDataWithLists: "(dp1
S'com.schriftgestaltung.Glyphs.lastChange'
p2
S'2017-07-11 17:15:08 +0000'
p3
s."
EndChar

StartChar: asterisk
Encoding: 185 42 185
GlifName: asterisk
Width: 1233
VWidth: 0
Flags: W
LayerCount: 2
Fore
SplineSet
216 455 m 257
NamedP: "hr00"
 455 821 l 257
 97 976 l 257
 148 1124 l 257
 517 1004 l 257
NamedP: "iv01"
 536 1420 l 257
NamedP: "av03"
 692 1420 l 257
 711 1004 l 257
NamedP: "iv02"
 1080 1124 l 257
 1131 976 l 257
 773 821 l 257
 1012 455 l 257
 879 360 l 257
NamedP: "av01"
 614 710 l 257
NamedP: "iv03"
 349 360 l 257
NamedP: "av02"
 216 455 l 257
NamedP: "hr00"
EndSplineSet
PickledDataWithLists: "(dp1
S'com.schriftgestaltung.Glyphs.lastChange'
p2
S'2017-07-11 17:15:08 +0000'
p3
s."
EndChar

StartChar: asteriskmath
Encoding: 186 8727 186
GlifName: asteriskmath
Width: 1233
VWidth: 0
Flags: W
LayerCount: 2
Fore
SplineSet
528 502 m 257
NamedP: "hr00"
 197 318 l 257
 121 459 l 257
 453 633 l 257
NamedP: "iv01"
 121 806 l 257
 197 947 l 257
 528 765 l 257
NamedP: "sh01"
 528 1109 l 257
NamedP: "av01"
 700 1109 l 257
NamedP: "sh02"
 700 765 l 257
NamedP: "iv02"
 1032 947 l 257
 1108 806 l 257
 778 633 l 257
NamedP: "iv03"
 1108 459 l 257
 1032 318 l 257
 700 502 l 257
NamedP: "dh01"
 700 158 l 257
NamedP: "av02"
 528 158 l 257
 528 502 l 257
NamedP: "hr00"
EndSplineSet
PickledDataWithLists: "(dp1
S'com.schriftgestaltung.Glyphs.lastChange'
p2
S'2017-07-11 17:15:08 +0000'
p3
s."
EndChar

StartChar: at
Encoding: 187 64 187
GlifName: at
Width: 1233
VWidth: 0
Flags: W
LayerCount: 2
Fore
SplineSet
767 -319 m 256
NamedP: "hr00"
 539 -319 354 -242 214 -86 c 256
 75 69 6 279 6 546 c 257
NamedP: "dh01"
 -4 1048 291 1406 683 1395 c 257
NamedP: "dv03"
 840 1395 953 1348 1033 1264 c 256
 1117 1176 1159 1056 1159 905 c 258
 1159 135 l 257
NamedP: "dh06"
 963 135 l 257
NamedP: "dh05"
 963 217 l 257
NamedP: "iv01"
 934 177 905 155 874 140 c 256
 840 123 798 115 749 115 c 256
NamedP: "dv04"
 640 115 553 154 486 233 c 256
 419 312 385 417 385 546 c 256
NamedP: "dh03"
 385 678 420 780 485 856 c 256
 552 934 639 973 748 973 c 256
NamedP: "dv07"
 793 973 838 966 875 949 c 256
 910 933 942 906 963 877 c 257
NamedP: "sh01"
 963 918 l 258
 963 1009 938 1079 889 1128 c 256
 838 1177 768 1202 679 1202 c 256
NamedP: "dv02"
 535 1202 419 1136 336 1020 c 256
 255 907 205 743 205 544 c 256
NamedP: "dh02"
 205 329 264 165 356 54 c 256
 460 -70 604 -127 757 -127 c 256
NamedP: "dv01"
 810 -127 866 -120 917 -104 c 256
 965 -89 1014 -64 1061 -33 c 257
 1153 -209 l 257
 1097 -248 1033 -276 977 -292 c 256
 918 -309 848 -319 767 -319 c 256
NamedP: "hr00"
782 303 m 256
NamedP: "dv05"
 901 303 973 393 973 545 c 256
NamedP: "sh02"
 973 620 956 679 922 722 c 256
 888 765 841 786 782 786 c 256
NamedP: "dv06"
 715 786 674 761 643 722 c 256
 609 679 592 620 592 545 c 256
NamedP: "dh04"
 592 469 609 410 643 367 c 256
 674 328 715 303 782 303 c 256
NamedP: "dv05"
EndSplineSet
PickledDataWithLists: "(dp1
S'com.schriftgestaltung.Glyphs.lastChange'
p2
S'2017-07-11 17:15:08 +0000'
p3
s."
EndChar

StartChar: atilde
Encoding: 188 227 188
GlifName: atilde
Width: 1233
VWidth: 0
Flags: W
LayerCount: 2
Fore
SplineSet
768 1317 m 256
NamedP: "sv01"
 720 1317 682 1330 618 1374 c 258
 551 1419 l 258
 522 1438 500 1448 479 1448 c 256
 454 1448 438 1436 427 1417 c 256
 414 1396 408 1366 408 1327 c 258
NamedP: "sh01"
 408 1319 l 257
NamedP: "dv02"
 268 1319 l 257
NamedP: "sh02"
 268 1414 287 1483 320 1530 c 256
 351 1574 398 1603 465 1603 c 256
NamedP: "av01"
 490 1603 514 1599 537 1590 c 256
NamedP: "av02"
 564 1579 586 1566 614 1546 c 258
 676 1503 l 258
NamedP: "hr01"
 693 1491 701 1487 716 1480 c 256
 729 1475 740 1472 751 1472 c 256
 774 1472 793 1483 806 1504 c 256
 819 1525 825 1554 825 1593 c 258
NamedP: "sh03"
 825 1601 l 257
NamedP: "dv03"
 965 1601 l 257
NamedP: "av03"
 965 1510 948 1440 914 1391 c 256
 882 1344 833 1317 768 1317 c 256
NamedP: "sv01"
494 -29 m 256
NamedP: "dv01"
 373 -29 274 4 202 72 c 256
 131 139 95 233 95 354 c 256
NamedP: "dh01"
 95 482 134 580 222 644 c 256
 307 706 438 737 615 737 c 258
 818 737 l 257
NamedP: "dh03"
 818 786 l 258
 818 835 799 871 767 894 c 256
 732 919 679 930 610 930 c 256
NamedP: "dv05"
 546 930 477 921 412 904 c 256
 348 887 278 858 206 819 c 257
NamedP: "ih01"
 206 1069 l 257
 262 1092 336 1116 403 1128 c 256
 458 1139 540 1148 628 1148 c 256
NamedP: "hr02"
 815 1148 927 1102 997 1035 c 257
 1069 963 1109 852 1109 644 c 256
NamedP: "dh04"
 1109 570 1104 323 1104 274 c 256
NamedP: "sh04"
 1104 246 1105 216 1106 197 c 256
NamedP: "sh05"
 1109 170 1110 142 1113 125 c 256
 1117 98 1123 71 1127 58 c 256
 1134 38 1144 15 1155 0 c 257
NamedP: "ab01"
 865 0 l 257
 853 20 842 43 837 58 c 256
 833 71 827 98 824 125 c 257
NamedP: "sh06"
 787 76 740 38 682 11 c 256
NamedP: "ab02"
 626 -16 570 -29 494 -29 c 256
NamedP: "dv01"
576 174 m 256
NamedP: "hr03"
 651 174 711 202 754 262 c 257
 797 319 818 401 818 506 c 258
NamedP: "hr04"
 818 526 l 257
NamedP: "dv04"
 701 526 l 258
 591 526 515 512 472 484 c 256
 429 456 407 409 407 342 c 256
NamedP: "dh02"
 407 287 421 250 452 219 c 256
 482 189 523 174 576 174 c 256
NamedP: "hr03"
EndSplineSet
PickledDataWithLists: "(dp1
S'com.schriftgestaltung.Glyphs.lastChange'
p2
S'2017-07-11 17:15:08 +0000'
p3
s."
EndChar

StartChar: b
Encoding: 189 98 189
GlifName: b
Width: 1233
VWidth: 0
Flags: W
LayerCount: 2
Fore
SplineSet
740 -29 m 256
NamedP: "dv01"
 671 -29 612 -13 563 20 c 256
 513 53 473 101 442 166 c 257
NamedP: "sh02"
 413 0 l 257
NamedP: "ab01"
 150 0 l 257
NamedP: "sh01"
 150 1556 l 257
NamedP: "at01"
 442 1556 l 257
NamedP: "sh03"
 442 961 l 257
NamedP: "ih01"
 478 1024 520 1070 568 1101 c 256
 615 1132 667 1147 735 1147 c 256
NamedP: "at02"
 863 1147 965 1095 1036 995 c 256
 1104 899 1143 755 1143 560 c 256
NamedP: "sh04"
 1143 377 1109 228 1037 124 c 256
 965 21 865 -29 740 -29 c 256
NamedP: "dv01"
647 211 m 256
NamedP: "dv02"
 710 211 760 242 796 303 c 256
 832 364 850 448 850 557 c 256
NamedP: "ah01"
 850 773 774 903 647 903 c 256
NamedP: "sv01"
 584 903 534 872 497 811 c 256
NamedP: "hr01"
 460 750 442 666 442 557 c 256
NamedP: "sh05"
 442 448 460 364 497 303 c 256
 534 242 584 211 647 211 c 256
NamedP: "dv02"
EndSplineSet
PickledDataWithLists: "(dp1
S'com.schriftgestaltung.Glyphs.lastChange'
p2
S'2017-07-11 17:15:08 +0000'
p3
s."
EndChar

StartChar: backslash
Encoding: 190 92 190
GlifName: backslash
Width: 1233
VWidth: 0
Flags: W
LayerCount: 2
Fore
SplineSet
112 1493 m 257
NamedP: "hr00"
 335 1493 l 257
 1121 -190 l 257
NamedP: "av01"
 898 -190 l 257
 112 1493 l 257
NamedP: "hr00"
EndSplineSet
PickledDataWithLists: "(dp1
S'com.schriftgestaltung.Glyphs.lastChange'
p2
S'2017-07-11 17:15:08 +0000'
p3
s."
EndChar

StartChar: bar
Encoding: 191 124 191
GlifName: bar
Width: 1233
VWidth: 0
Flags: W
LayerCount: 2
Fore
SplineSet
502 1565 m 257
NamedP: "hr00"
 729 1565 l 257
NamedP: "dh01"
 729 -483 l 257
NamedP: "av01"
 502 -483 l 257
 502 1565 l 257
NamedP: "hr00"
EndSplineSet
PickledDataWithLists: "(dp1
S'com.schriftgestaltung.Glyphs.lastChange'
p2
S'2017-07-11 17:15:08 +0000'
p3
s."
EndChar

StartChar: beta
Encoding: 192 946 192
GlifName: beta
Width: 1233
VWidth: 0
Flags: W
LayerCount: 2
Fore
SplineSet
132 1113 m 257
NamedP: "hr00"
 132 1418 279 1569 559 1569 c 256
NamedP: "at01"
 1104 1569 1133 984 911 810 c 257
NamedP: "ih01"
 1068 755 1135 640 1135 439 c 256
NamedP: "sh01"
 1135 159 1006 -8 737 -21 c 256
 609 -28 507 4 422 69 c 257
NamedP: "iv01"
 422 -426 l 257
NamedP: "sh03"
 131 -426 l 257
NamedP: "sh02"
 132 1113 l 257
NamedP: "hr00"
422 402 m 257
NamedP: "sh04"
 553 200 834 146 834 438 c 256
NamedP: "ah01"
 834 605 742 665 554 657 c 257
NamedP: "dv01"
 554 880 l 257
NamedP: "dv02"
 802 869 808 1333 567 1333 c 256
NamedP: "sv01"
 470 1333 422 1258 422 1107 c 258
 422 402 l 257
NamedP: "sh04"
EndSplineSet
PickledDataWithLists: "(dp1
S'com.schriftgestaltung.Glyphs.lastChange'
p2
S'2017-07-11 17:15:08 +0000'
p3
s."
EndChar

StartChar: block
Encoding: 193 9608 193
GlifName: block
Width: 1233
VWidth: 0
Flags: W
LayerCount: 2
Fore
SplineSet
0 1950 m 257
NamedP: "hr00"
 1233 1950 l 257
 1233 -512 l 257
 0 -512 l 257
 0 1950 l 257
NamedP: "hr00"
EndSplineSet
PickledDataWithLists: "(dp1
S'com.schriftgestaltung.Glyphs.lastChange'
p2
S'2017-07-11 17:15:08 +0000'
p3
s."
EndChar

StartChar: braceleft
Encoding: 194 123 194
GlifName: braceleft
Width: 1233
VWidth: 0
Flags: W
LayerCount: 2
Fore
SplineSet
853 -334 m 258
NamedP: "hr00"
 688 -334 577 -309 520 -260 c 256
 463 -211 435 -113 435 35 c 258
NamedP: "dh01"
 435 250 l 258
 435 343 419 419 382 459 c 256
 346 498 277 516 188 516 c 258
NamedP: "dv02"
 96 516 l 257
 96 707 l 257
 188 707 l 258
NamedP: "dv03"
 281 707 346 726 382 764 c 256
 417 803 435 872 435 973 c 258
NamedP: "sh01"
 435 1188 l 258
 435 1336 463 1434 520 1483 c 256
 575 1532 686 1556 853 1556 c 258
NamedP: "at01"
 1003 1556 l 257
 1003 1366 l 257
NamedP: "sv01"
 880 1366 l 258
 810 1366 764 1352 741 1324 c 256
 718 1295 706 1234 706 1139 c 258
NamedP: "sh02"
 706 930 l 258
 706 820 690 743 657 698 c 256
 624 654 566 625 482 612 c 257
NamedP: "ih01"
 565 598 624 568 657 523 c 256
 690 478 706 401 706 291 c 258
 706 86 l 258
NamedP: "dh02"
 706 -9 718 -72 741 -101 c 256
 764 -129 810 -143 880 -143 c 258
NamedP: "dv01"
 1003 -143 l 257
 1003 -334 l 257
NamedP: "sv02"
 853 -334 l 258
NamedP: "hr00"
EndSplineSet
PickledDataWithLists: "(dp1
S'com.schriftgestaltung.Glyphs.lastChange'
p2
S'2017-07-11 17:15:08 +0000'
p3
s."
EndChar

StartChar: braceright
Encoding: 195 125 195
GlifName: braceright
Width: 1233
VWidth: 0
Flags: W
LayerCount: 2
Fore
SplineSet
230 -143 m 257
NamedP: "hr00"
 351 -143 l 258
NamedP: "dv02"
 420 -143 467 -129 491 -100 c 256
 515 -71 527 -9 527 86 c 258
NamedP: "dh01"
 527 291 l 258
 527 401 543 478 576 523 c 256
 611 570 671 599 750 612 c 257
NamedP: "ih01"
 665 625 607 654 576 698 c 256
 543 743 527 820 527 930 c 258
NamedP: "sh01"
 527 1139 l 258
 527 1232 515 1294 492 1323 c 256
 467 1354 415 1366 351 1366 c 258
NamedP: "sv01"
 230 1366 l 257
 230 1556 l 257
NamedP: "at01"
 380 1556 l 258
 546 1556 657 1532 712 1483 c 256
 767 1434 795 1335 795 1188 c 258
NamedP: "sh02"
 795 973 l 257
 804 761 847 716 1045 707 c 257
 1137 707 l 257
NamedP: "dv04"
 1137 516 l 257
NamedP: "dv03"
 1045 516 l 258
 951 516 886 497 850 458 c 256
 813 419 795 350 795 250 c 258
 795 35 l 258
NamedP: "dh02"
 795 -112 767 -211 712 -260 c 256
 655 -309 545 -334 380 -334 c 258
NamedP: "dv01"
 230 -334 l 257
 230 -143 l 257
NamedP: "hr00"
EndSplineSet
PickledDataWithLists: "(dp1
S'com.schriftgestaltung.Glyphs.lastChange'
p2
S'2017-07-11 17:15:08 +0000'
p3
s."
EndChar

StartChar: bracketleft
Encoding: 196 91 196
GlifName: bracketleft
Width: 1233
VWidth: 0
Flags: HW
LayerCount: 2
Fore
SplineSet
284 1636 m 257
NamedP: "dh01"
 987 1636 l 261
NamedP: "sh01"
 987 1446 l 261
NamedP: "dv02"
 549 1446 l 257
NamedP: "hr01"
 549 -85 l 257
 987 -85 l 261
NamedP: "hr02"
 987 -270 l 261
NamedP: "dv01"
 284 -270 l 257
 284 1636 l 257
NamedP: "dh01"
EndSplineSet
PickledDataWithLists: "(dp1
S'com.schriftgestaltung.Glyphs.lastChange'
p2
S'2017-07-11 17:15:08 +0000'
p3
s."
EndChar

StartChar: bracketright
Encoding: 197 93 197
GlifName: bracketright
Width: 1233
VWidth: 0
Flags: HWO
LayerCount: 2
Fore
SplineSet
244 -83 m 261
NamedP: "hr00"
 687 -83 l 257
NamedP: "sh01"
 687 1445 l 257
 244 1445 l 261
NamedP: "sh02"
 244 1635 l 261
NamedP: "dv01"
 949 1635 l 257
NamedP: "hr01"
 949 -270 l 257
NamedP: "dh01"
 244 -270 l 261
NamedP: "hr02"
 244 -83 l 261
NamedP: "hr00"
EndSplineSet
PickledDataWithLists: "(dp1
S'com.schriftgestaltung.Glyphs.lastChange'
p2
S'2017-07-11 17:15:08 +0000'
p3
s."
EndChar

StartChar: breve
Encoding: 198 728 198
GlifName: breve
Width: 1233
VWidth: 0
Flags: W
LayerCount: 2
Fore
SplineSet
616 1309 m 256
NamedP: "dv01"
 512 1309 431 1335 374 1386 c 256
 316 1437 285 1511 281 1606 c 257
NamedP: "sv01"
 422 1606 l 257
 429 1561 449 1525 483 1500 c 256
 516 1475 561 1462 616 1462 c 256
NamedP: "hr01"
 672 1462 716 1474 749 1499 c 256
 782 1524 802 1560 809 1606 c 257
NamedP: "hr02"
 952 1606 l 257
 948 1511 917 1437 860 1386 c 256
 801 1335 720 1309 616 1309 c 256
NamedP: "dv01"
EndSplineSet
PickledDataWithLists: "(dp1
S'com.schriftgestaltung.Glyphs.lastChange'
p2
S'2017-07-11 17:15:08 +0000'
p3
s."
EndChar

StartChar: brokenbar
Encoding: 199 166 199
GlifName: brokenbar
Width: 1233
VWidth: 0
Flags: W
LayerCount: 2
Fore
SplineSet
502 1432 m 257
NamedP: "hr00"
 729 1432 l 257
NamedP: "dh01"
 729 674 l 257
 502 674 l 257
 502 1432 l 257
NamedP: "hr00"
502 408 m 257
NamedP: "sh01"
 729 408 l 257
NamedP: "sh02"
 729 -350 l 257
NamedP: "av01"
 502 -350 l 257
 502 408 l 257
NamedP: "sh01"
EndSplineSet
PickledDataWithLists: "(dp1
S'com.schriftgestaltung.Glyphs.lastChange'
p2
S'2017-07-11 17:15:08 +0000'
p3
s."
EndChar

StartChar: bullet
Encoding: 200 8226 200
GlifName: bullet
Width: 1233
VWidth: 0
Flags: W
LayerCount: 2
Fore
SplineSet
614 399 m 256
NamedP: "hr00"
 566 399 520 408 476 427 c 256
 439 443 395 471 360 506 c 256
 294 575 256 664 256 762 c 256
 256 811 265 858 284 902 c 256
 303 945 330 985 362 1016 c 256
 395 1048 439 1077 480 1094 c 256
 519 1110 566 1120 617 1120 c 256
NamedP: "at01"
 665 1120 711 1111 755 1093 c 256
 796 1076 837 1049 870 1016 c 256
 902 984 930 946 950 899 c 256
 968 856 977 810 977 762 c 256
 977 713 968 667 950 624 c 256
 917 543 832 461 754 427 c 256
 715 411 669 399 614 399 c 256
NamedP: "hr00"
EndSplineSet
PickledDataWithLists: "(dp1
S'com.schriftgestaltung.Glyphs.lastChange'
p2
S'2017-07-11 17:15:08 +0000'
p3
s."
EndChar

StartChar: c
Encoding: 201 99 201
GlifName: c
Width: 1233
VWidth: 0
Flags: W
LayerCount: 2
Fore
SplineSet
702 -29 m 256
NamedP: "hr00"
 527 -29 391 23 294 127 c 256
 197 232 148 376 148 559 c 256
NamedP: "dh01"
 148 743 197 888 295 993 c 256
 393 1097 528 1149 699 1149 c 256
NamedP: "dv03"
 760 1149 819 1142 875 1128 c 256
 930 1114 986 1092 1041 1063 c 257
 1041 795 l 257
 954 871 856 909 741 909 c 256
NamedP: "dv02"
 641 909 571 877 522 818 c 256
 471 757 445 670 445 559 c 256
NamedP: "dh02"
 445 448 471 362 522 301 c 256
 573 241 646 211 742 211 c 256
NamedP: "dv01"
 798 211 851 221 901 240 c 256
 944 256 994 283 1041 326 c 257
 1041 57 l 257
 938 -2 834 -29 702 -29 c 256
NamedP: "hr00"
EndSplineSet
PickledDataWithLists: "(dp1
S'com.schriftgestaltung.Glyphs.lastChange'
p2
S'2017-07-11 17:15:08 +0000'
p3
s."
EndChar

StartChar: c6459
Encoding: 202 -1 202
GlifName: c6459
Width: 1233
VWidth: 0
Flags: W
LayerCount: 2
Fore
SplineSet
331 1280 m 258
NamedP: "hr00"
 311 1280 301 1290 301 1310 c 258
NamedP: "sh01"
 301 1496 l 258
 301 1516 311 1526 331 1526 c 258
NamedP: "dv01"
 507 1526 l 258
 527 1526 537 1516 537 1496 c 258
 537 1310 l 258
NamedP: "sh02"
 537 1290 527 1280 507 1280 c 258
 331 1280 l 258
NamedP: "hr00"
726 1280 m 258
NamedP: "sv01"
 706 1280 696 1290 696 1310 c 258
NamedP: "ah01"
 696 1496 l 258
 696 1516 706 1526 726 1526 c 258
NamedP: "sv02"
 902 1526 l 258
 922 1526 932 1516 932 1496 c 258
 932 1310 l 258
NamedP: "sh03"
 932 1290 922 1280 902 1280 c 258
 726 1280 l 258
NamedP: "sv01"
EndSplineSet
PickledDataWithLists: "(dp1
S'com.schriftgestaltung.Glyphs.lastChange'
p2
S'2017-07-11 17:15:08 +0000'
p3
s."
EndChar

StartChar: c6460
Encoding: 203 -1 203
GlifName: c6460
Width: 1233
VWidth: 0
Flags: W
LayerCount: 2
Fore
SplineSet
668 1526 m 257
NamedP: "hr00"
 952 1526 l 257
 666 1262 l 257
NamedP: "av01"
 469 1262 l 257
 668 1526 l 257
NamedP: "hr00"
EndSplineSet
PickledDataWithLists: "(dp1
S'com.schriftgestaltung.Glyphs.lastChange'
p2
S'2017-07-11 17:15:08 +0000'
p3
s."
EndChar

StartChar: c6461
Encoding: 204 -1 204
GlifName: c6461
Width: 1233
VWidth: 0
Flags: W
LayerCount: 2
Fore
SplineSet
268 1292 m 258
NamedP: "hr00"
 268 1365 289 1424 322 1463 c 256
 359 1507 411 1528 466 1528 c 256
NamedP: "sv01"
 489 1528 514 1524 539 1516 c 256
 560 1509 591 1494 614 1479 c 258
 674 1440 l 258
 689 1431 698 1426 715 1419 c 256
 728 1414 738 1411 750 1411 c 256
 774 1411 793 1421 806 1441 c 256
 819 1460 825 1489 825 1528 c 257
NamedP: "dv02"
 965 1528 l 257
 965 1523 963 1503 963 1500 c 256
 963 1425 945 1370 910 1327 c 256
 871 1280 823 1262 768 1262 c 256
NamedP: "dv01"
 744 1262 720 1266 696 1273 c 256
 669 1281 646 1292 618 1311 c 258
 564 1345 l 257
 552 1352 l 258
 524 1367 502 1378 479 1378 c 256
 458 1378 441 1368 428 1348 c 256
 415 1327 408 1301 408 1268 c 258
 408 1262 l 257
NamedP: "sv02"
 268 1262 l 257
 268 1292 l 258
NamedP: "hr00"
EndSplineSet
PickledDataWithLists: "(dp1
S'com.schriftgestaltung.Glyphs.lastChange'
p2
S'2017-07-11 17:15:08 +0000'
p3
s."
EndChar

StartChar: c6468
Encoding: 205 -1 205
GlifName: c6468
Width: 1233
VWidth: 0
Flags: W
LayerCount: 2
Fore
SplineSet
283 1526 m 257
NamedP: "hr00"
 567 1526 l 257
 766 1262 l 257
NamedP: "av01"
 569 1262 l 257
 283 1526 l 257
NamedP: "hr00"
EndSplineSet
PickledDataWithLists: "(dp1
S'com.schriftgestaltung.Glyphs.lastChange'
p2
S'2017-07-11 17:15:08 +0000'
p3
s."
EndChar

StartChar: c6470
Encoding: 206 -1 206
GlifName: c6470
Width: 1233
VWidth: 0
Flags: W
LayerCount: 2
Fore
SplineSet
461 1526 m 257
NamedP: "hr00"
 770 1526 l 257
 993 1262 l 257
NamedP: "av01"
 815 1262 l 257
 616 1423 l 257
 418 1262 l 257
NamedP: "av02"
 240 1262 l 257
 461 1526 l 257
NamedP: "hr00"
EndSplineSet
PickledDataWithLists: "(dp1
S'com.schriftgestaltung.Glyphs.lastChange'
p2
S'2017-07-11 17:15:08 +0000'
p3
s."
EndChar

StartChar: c6472
Encoding: 207 -1 207
GlifName: c6472
Width: 1233
VWidth: 0
Flags: W
LayerCount: 2
Fore
SplineSet
240 1526 m 257
NamedP: "hr00"
 418 1526 l 257
 616 1364 l 257
 815 1526 l 257
NamedP: "av02"
 993 1526 l 257
 770 1262 l 257
NamedP: "av01"
 461 1262 l 257
 240 1526 l 257
NamedP: "hr00"
EndSplineSet
PickledDataWithLists: "(dp1
S'com.schriftgestaltung.Glyphs.lastChange'
p2
S'2017-07-11 17:15:08 +0000'
p3
s."
EndChar

StartChar: c6475
Encoding: 208 -1 208
GlifName: c6475
Width: 1233
VWidth: 0
Flags: W
LayerCount: 2
Fore
SplineSet
616 1262 m 256
NamedP: "dv01"
 518 1262 440 1285 383 1330 c 256
 327 1373 292 1434 281 1526 c 257
NamedP: "sv01"
 422 1526 l 257
 435 1487 458 1457 491 1436 c 256
 524 1415 565 1405 616 1405 c 256
NamedP: "hr01"
 667 1405 709 1415 741 1435 c 256
 774 1456 796 1486 809 1526 c 257
NamedP: "hr02"
 952 1526 l 257
 942 1441 908 1375 851 1330 c 256
 791 1283 711 1262 616 1262 c 256
NamedP: "dv01"
EndSplineSet
PickledDataWithLists: "(dp1
S'com.schriftgestaltung.Glyphs.lastChange'
p2
S'2017-07-11 17:15:08 +0000'
p3
s."
EndChar

StartChar: c6476
Encoding: 209 -1 209
GlifName: c6476
Width: 1233
VWidth: 0
Flags: W
LayerCount: 2
Fore
SplineSet
509 1280 m 258
NamedP: "hr00"
 489 1280 479 1290 479 1310 c 258
NamedP: "dh01"
 479 1496 l 258
 479 1516 489 1526 509 1526 c 258
NamedP: "dv01"
 724 1526 l 258
 744 1526 754 1516 754 1496 c 258
 754 1310 l 258
NamedP: "dh02"
 754 1290 744 1280 724 1280 c 258
NamedP: "sv01"
 509 1280 l 258
NamedP: "hr00"
EndSplineSet
PickledDataWithLists: "(dp1
S'com.schriftgestaltung.Glyphs.lastChange'
p2
S'2017-07-11 17:15:08 +0000'
p3
s."
EndChar

StartChar: c6477
Encoding: 210 -1 210
GlifName: c6477
Width: 1233
VWidth: 0
Flags: W
LayerCount: 2
Fore
SplineSet
47 618 m 257
NamedP: "hr00"
 1106 881 l 257
NamedP: "av01"
 1143 762 l 257
 84 500 l 257
NamedP: "av02"
 47 618 l 257
NamedP: "hr00"
EndSplineSet
PickledDataWithLists: "(dp1
S'com.schriftgestaltung.Glyphs.lastChange'
p2
S'2017-07-11 17:15:08 +0000'
p3
s."
EndChar

StartChar: c6478
Encoding: 211 -1 211
GlifName: c6478
Width: 1233
VWidth: 0
Flags: W
LayerCount: 2
Fore
SplineSet
639 848 m 257
NamedP: "hr00"
 246 848 l 257
 246 1010 l 257
 621 1503 l 257
NamedP: "at01"
 825 1503 l 257
NamedP: "sh01"
 825 991 l 257
NamedP: "sv01"
 934 991 l 257
 934 848 l 257
NamedP: "sv02"
 825 848 l 257
NamedP: "dh01"
 825 668 l 257
NamedP: "av01"
 639 668 l 257
 639 848 l 257
NamedP: "hr00"
639 991 m 257
NamedP: "sh02"
 639 1321 l 257
 389 991 l 257
 639 991 l 257
NamedP: "sh02"
EndSplineSet
PickledDataWithLists: "(dp1
S'com.schriftgestaltung.Glyphs.lastChange'
p2
S'2017-07-11 17:15:08 +0000'
p3
s."
EndChar

StartChar: cacute
Encoding: 212 263 212
GlifName: cacute
Width: 1233
VWidth: 0
Flags: W
LayerCount: 2
Fore
SplineSet
854 1672 m 257
NamedP: "hr00"
 1136 1672 l 257
 768 1296 l 257
 571 1296 l 257
 854 1672 l 257
NamedP: "hr00"
722 -29 m 256
NamedP: "dv01"
 547 -29 411 23 314 127 c 256
 217 232 168 376 168 559 c 256
NamedP: "dh01"
 168 743 217 888 315 993 c 256
 413 1097 548 1149 719 1149 c 256
NamedP: "dv04"
 780 1149 839 1142 895 1128 c 256
 950 1114 1006 1092 1061 1063 c 257
 1061 795 l 257
 974 871 876 909 761 909 c 256
NamedP: "dv03"
 661 909 591 877 542 818 c 256
 491 757 465 670 465 559 c 256
NamedP: "dh02"
 465 448 491 362 542 301 c 256
 593 241 666 211 762 211 c 256
NamedP: "dv02"
 818 211 871 221 921 240 c 256
 964 256 1014 283 1061 326 c 257
 1061 57 l 257
 958 -2 854 -29 722 -29 c 256
NamedP: "dv01"
EndSplineSet
PickledDataWithLists: "(dp1
S'com.schriftgestaltung.Glyphs.lastChange'
p2
S'2017-07-11 17:15:08 +0000'
p3
s."
EndChar

StartChar: caron
Encoding: 213 711 213
GlifName: caron
Width: 1233
VWidth: 0
Flags: W
LayerCount: 2
Fore
SplineSet
240 1638 m 257
NamedP: "hr00"
 418 1638 l 257
 616 1411 l 257
 815 1638 l 257
NamedP: "av02"
 993 1638 l 257
 737 1262 l 257
NamedP: "av01"
 496 1262 l 257
 240 1638 l 257
NamedP: "hr00"
EndSplineSet
PickledDataWithLists: "(dp1
S'com.schriftgestaltung.Glyphs.lastChange'
p2
S'2017-07-11 17:15:08 +0000'
p3
s."
EndChar

StartChar: carriagereturn
Encoding: 214 8629 214
GlifName: carriagereturn
Width: 1233
VWidth: 0
Flags: W
LayerCount: 2
Fore
SplineSet
64 261 m 257
NamedP: "hr00"
 64 403 l 257
 354 694 l 257
 474 574 l 257
 344 444 l 257
 976 444 l 257
NamedP: "dh01"
 976 861 l 257
NamedP: "av01"
 1200 861 l 257
 1200 220 l 257
NamedP: "dh02"
 344 220 l 257
 474 90 l 257
 354 -30 l 257
NamedP: "av02"
 64 261 l 257
NamedP: "hr00"
EndSplineSet
PickledDataWithLists: "(dp1
S'com.schriftgestaltung.Glyphs.lastChange'
p2
S'2017-07-11 17:15:08 +0000'
p3
s."
EndChar

StartChar: ccaron
Encoding: 215 269 215
GlifName: ccaron
Width: 1233
VWidth: 0
Flags: W
LayerCount: 2
Fore
SplineSet
342 1675 m 257
NamedP: "hr00"
 520 1675 l 257
 718 1448 l 257
 917 1675 l 257
NamedP: "av01"
 1095 1675 l 257
 839 1299 l 257
 598 1299 l 257
 342 1675 l 257
NamedP: "hr00"
722 -29 m 256
NamedP: "dv01"
 547 -29 411 23 314 127 c 256
 217 232 168 376 168 559 c 256
NamedP: "dh01"
 168 743 217 888 315 993 c 256
 413 1097 548 1149 719 1149 c 256
NamedP: "dv04"
 780 1149 839 1142 895 1128 c 256
 950 1114 1006 1092 1061 1063 c 257
 1061 795 l 257
 974 871 876 909 761 909 c 256
NamedP: "dv03"
 661 909 591 877 542 818 c 256
 491 757 465 670 465 559 c 256
NamedP: "dh02"
 465 448 491 362 542 301 c 256
 593 241 666 211 762 211 c 256
NamedP: "dv02"
 818 211 871 221 921 240 c 256
 964 256 1014 283 1061 326 c 257
 1061 57 l 257
 958 -2 854 -29 722 -29 c 256
NamedP: "dv01"
EndSplineSet
PickledDataWithLists: "(dp1
S'com.schriftgestaltung.Glyphs.lastChange'
p2
S'2017-07-11 17:15:08 +0000'
p3
s."
EndChar

StartChar: ccedilla
Encoding: 216 231 216
GlifName: ccedilla
Width: 1233
VWidth: 0
Flags: W
LayerCount: 2
Fore
SplineSet
761 909 m 256
NamedP: "dv03"
 661 909 591 877 542 818 c 256
 491 757 465 670 465 559 c 256
NamedP: "dh02"
 465 448 491 362 542 301 c 256
 593 241 666 211 762 211 c 256
NamedP: "sv01"
 818 211 871 221 921 240 c 256
 964 256 1014 283 1061 326 c 257
 1061 57 l 257
 1008 26 958 8 902 -7 c 256
 869 -15 835 -21 801 -25 c 257
NamedP: "ih02"
 830 -60 851 -91 864 -115 c 256
 882 -149 891 -184 891 -221 c 256
NamedP: "sh01"
 891 -282 868 -327 829 -356 c 256
 794 -383 740 -401 643 -401 c 256
NamedP: "dv01"
 611 -401 576 -399 543 -395 c 256
NamedP: "sv02"
 492 -388 470 -382 439 -375 c 257
NamedP: "hr01"
 439 -219 l 257
NamedP: "ih01"
 470 -230 498 -238 526 -245 c 256
 554 -251 580 -254 604 -254 c 256
NamedP: "dv02"
 642 -254 672 -246 695 -231 c 256
 716 -216 727 -195 727 -170 c 256
 727 -151 720 -128 706 -101 c 256
 695 -80 680 -55 659 -27 c 257
NamedP: "ab01"
 512 -16 399 35 314 127 c 256
 217 232 168 376 168 559 c 256
NamedP: "dh01"
 168 743 217 888 315 993 c 256
 413 1097 548 1149 719 1149 c 256
NamedP: "dv04"
 780 1149 839 1142 895 1128 c 256
 950 1114 1006 1092 1061 1063 c 257
 1061 795 l 257
NamedP: "hr02"
 974 871 876 909 761 909 c 256
NamedP: "dv03"
EndSplineSet
PickledDataWithLists: "(dp1
S'com.schriftgestaltung.Glyphs.lastChange'
p2
S'2017-07-11 17:15:08 +0000'
p3
s."
EndChar

StartChar: ccircumflex
Encoding: 217 265 217
GlifName: ccircumflex
Width: 1233
VWidth: 0
Flags: W
LayerCount: 2
Fore
SplineSet
460 1297 m 257
NamedP: "hr00"
 658 1444 l 257
 857 1297 l 257
 1035 1297 l 257
 779 1596 l 257
 538 1596 l 257
 282 1297 l 257
 460 1297 l 257
NamedP: "hr00"
1041 57 m 257
 1041 326 l 257
 958 250 854 211 742 211 c 256
 550 211 445 335 445 559 c 256
 445 783 550 909 741 909 c 256
 854 909 954 871 1041 795 c 257
 1041 1063 l 257
 930 1122 822 1149 699 1149 c 256
 586 1149 488 1126 405 1079 c 256
 238 984 148 803 148 559 c 256
 148 438 170 333 214 245 c 256
 302 68 473 -29 702 -29 c 256
 826 -29 944 2 1041 57 c 257
EndSplineSet
PickledDataWithLists: "(dp1
S'com.schriftgestaltung.Glyphs.lastChange'
p2
S'2017-07-11 17:15:08 +0000'
p3
s."
EndChar

StartChar: cdotaccent
Encoding: 218 267 218
GlifName: cdotaccent
Width: 1233
VWidth: 0
Flags: W
LayerCount: 2
Fore
SplineSet
584 1349 m 258
NamedP: "hr00"
 564 1349 554 1359 554 1379 c 258
NamedP: "ah01"
 554 1565 l 258
 554 1585 564 1595 584 1595 c 258
NamedP: "dv03"
 799 1595 l 258
 819 1595 829 1585 829 1565 c 258
 829 1379 l 258
NamedP: "sh01"
 829 1359 819 1349 799 1349 c 258
 584 1349 l 258
NamedP: "hr00"
722 -29 m 256
NamedP: "dv01"
 373 -29 168 191 168 558 c 256
NamedP: "sh02"
 168 928 376 1149 721 1149 c 256
NamedP: "dv05"
 842 1149 949 1123 1061 1063 c 257
 1061 795 l 257
 976 868 871 909 762 909 c 256
NamedP: "dv04"
 570 909 465 785 465 558 c 256
NamedP: "sh03"
 465 334 569 211 765 211 c 256
NamedP: "dv02"
 878 211 977 251 1061 326 c 257
 1061 57 l 257
 962 0 849 -29 722 -29 c 256
NamedP: "dv01"
EndSplineSet
PickledDataWithLists: "(dp1
S'com.schriftgestaltung.Glyphs.lastChange'
p2
S'2017-07-11 17:15:08 +0000'
p3
s."
EndChar

StartChar: cedilla
Encoding: 219 184 219
GlifName: cedilla
Width: 1233
VWidth: 0
Flags: W
LayerCount: 2
Fore
SplineSet
573 -401 m 256
NamedP: "dv01"
 542 -401 502 -399 471 -395 c 256
NamedP: "sv01"
 422 -390 401 -383 367 -375 c 257
 367 -219 l 257
NamedP: "dh01"
 398 -230 426 -238 454 -245 c 256
 482 -251 508 -254 532 -254 c 256
NamedP: "dv02"
 570 -254 600 -246 623 -231 c 256
 644 -216 655 -195 655 -170 c 256
 655 -151 648 -128 634 -101 c 256
 619 -74 598 -40 567 0 c 257
NamedP: "hr01"
 707 0 l 257
 747 -43 776 -84 792 -115 c 256
 810 -149 819 -184 819 -221 c 256
NamedP: "dh02"
 819 -282 796 -327 757 -356 c 256
 722 -383 668 -401 573 -401 c 256
NamedP: "dv01"
EndSplineSet
PickledDataWithLists: "(dp1
S'com.schriftgestaltung.Glyphs.lastChange'
p2
S'2017-07-11 17:15:08 +0000'
p3
s."
EndChar

StartChar: cent
Encoding: 220 162 220
GlifName: cent
Width: 1233
VWidth: 0
Flags: W
LayerCount: 2
Fore
SplineSet
655 -25 m 257
NamedP: "dh03"
 498 -10 375 49 284 154 c 256
 193 259 147 395 147 562 c 256
NamedP: "dh01"
 147 735 195 870 284 973 c 256
 375 1077 498 1134 655 1145 c 257
NamedP: "sh01"
 655 1432 l 257
NamedP: "av01"
 797 1432 l 257
NamedP: "sh02"
 797 1145 l 257
 838 1142 878 1135 917 1124 c 256
 964 1111 997 1096 1036 1077 c 257
NamedP: "hr01"
 1036 809 l 257
NamedP: "iv01"
 997 838 952 863 920 876 c 256
 885 891 840 902 797 907 c 257
NamedP: "hr02"
 797 215 l 257
 841 218 884 229 921 244 c 256
 960 260 999 282 1036 311 c 257
NamedP: "hr03"
 1036 43 l 257
NamedP: "sh03"
 997 22 964 8 924 -3 c 256
 882 -15 840 -22 797 -25 c 257
NamedP: "hr04"
 797 -313 l 257
NamedP: "av02"
 655 -313 l 257
 655 -25 l 257
NamedP: "dh03"
655 907 m 257
NamedP: "sh04"
 580 898 521 864 480 804 c 256
 440 745 418 665 418 560 c 256
NamedP: "dh02"
 418 460 438 378 481 314 c 256
 523 252 581 219 655 215 c 257
 655 907 l 257
NamedP: "sh04"
EndSplineSet
PickledDataWithLists: "(dp1
S'com.schriftgestaltung.Glyphs.lastChange'
p2
S'2017-07-11 17:15:08 +0000'
p3
s."
EndChar

StartChar: chi
Encoding: 221 967 221
GlifName: chi
Width: 1233
VWidth: 0
Flags: W
LayerCount: 2
Fore
SplineSet
468 348 m 257
NamedP: "hr00"
 286 752 l 258
 264 801 240 836 214 856 c 256
 194 872 170 885 151 885 c 258
 72 885 l 257
 72 1120 l 257
NamedP: "at01"
 189 1120 l 258
 321 1120 447 1046 554 808 c 258
 621 660 l 257
NamedP: "iv01"
 846 1120 l 257
NamedP: "at02"
 1143 1120 l 257
 764 345 l 257
 946 -58 l 258
 970 -111 991 -139 1018 -162 c 256
 1038 -178 1062 -191 1081 -191 c 258
 1161 -191 l 257
 1161 -426 l 257
NamedP: "ab01"
 1043 -426 l 258
 900 -426 785 -346 678 -114 c 258
 611 32 l 257
NamedP: "iv02"
 387 -426 l 257
NamedP: "ab02"
 90 -426 l 257
 468 348 l 257
NamedP: "hr00"
EndSplineSet
PickledDataWithLists: "(dp1
S'com.schriftgestaltung.Glyphs.lastChange'
p2
S'2017-07-11 17:15:08 +0000'
p3
s."
EndChar

StartChar: circle
Encoding: 222 9675 222
GlifName: circle
Width: 1233
VWidth: 0
Flags: W
LayerCount: 2
Fore
SplineSet
617 -84 m 256
NamedP: "hr00"
 524 -84 413 -55 310 2 c 256
 118 109 6 301 6 532 c 256
NamedP: "sh01"
 6 765 118 953 310 1062 c 256
 413 1119 524 1148 617 1148 c 256
NamedP: "dv03"
 710 1148 818 1120 922 1061 c 256
 1117 952 1227 772 1227 532 c 256
NamedP: "sh02"
 1227 292 1117 112 922 3 c 256
 818 -56 710 -84 617 -84 c 256
NamedP: "hr00"
616 79 m 256
NamedP: "dv01"
 691 79 766 100 841 143 c 256
 990 228 1066 357 1066 532 c 256
NamedP: "ah01"
 1066 619 1047 695 1010 760 c 256
 972 825 916 878 841 921 c 256
 766 964 691 985 616 985 c 256
NamedP: "dv02"
 541 985 467 964 392 921 c 256
 243 836 167 707 167 532 c 256
NamedP: "sh03"
 167 445 186 369 224 304 c 256
 261 239 317 186 392 143 c 256
 467 100 541 79 616 79 c 256
NamedP: "dv01"
EndSplineSet
PickledDataWithLists: "(dp1
S'com.schriftgestaltung.Glyphs.lastChange'
p2
S'2017-07-11 17:15:08 +0000'
p3
s."
EndChar

StartChar: circlemultiply
Encoding: 223 8855 223
GlifName: circlemultiply
Width: 1233
VWidth: 0
Flags: W
LayerCount: 2
Fore
SplineSet
617 52 m 256
NamedP: "hr00"
 448 52 302 121 198 225 c 256
 82 341 26 488 26 643 c 256
NamedP: "sh01"
 26 810 90 954 198 1061 c 256
 254 1117 320 1160 391 1191 c 256
 461 1220 536 1235 615 1235 c 256
NamedP: "dv03"
 772 1235 922 1175 1035 1062 c 256
 1140 957 1207 810 1207 643 c 256
NamedP: "sh02"
 1207 487 1150 340 1035 225 c 256
 931 121 786 52 617 52 c 256
NamedP: "hr00"
616 246 m 256
NamedP: "dv01"
 721 246 822 289 897 362 c 256
 969 434 1012 533 1012 646 c 256
NamedP: "ah01"
 1012 747 977 844 896 924 c 256
 853 967 809 992 768 1011 c 256
 721 1031 671 1041 619 1041 c 256
NamedP: "dv02"
 515 1041 412 1001 336 925 c 256
 259 848 221 746 221 642 c 256
NamedP: "sh03"
 221 530 264 434 337 362 c 256
 412 289 509 246 616 246 c 256
NamedP: "dv01"
313 458 m 257
 497 642 l 257
 312 827 l 257
 432 948 l 257
 617 762 l 257
 802 947 l 257
 922 827 l 257
 737 642 l 257
 921 459 l 257
 800 339 l 257
 617 522 l 257
 433 338 l 257
 313 458 l 257
EndSplineSet
PickledDataWithLists: "(dp1
S'com.schriftgestaltung.Glyphs.lastChange'
p2
S'2017-07-11 17:15:08 +0000'
p3
s."
EndChar

StartChar: circleplus
Encoding: 224 8853 224
GlifName: circleplus
Width: 1233
VWidth: 0
Flags: W
LayerCount: 2
Fore
SplineSet
617 52 m 256
NamedP: "hr00"
 448 52 302 121 198 225 c 256
 82 341 26 488 26 643 c 256
NamedP: "dh01"
 26 810 90 954 198 1061 c 256
 254 1117 320 1160 391 1191 c 256
 461 1220 536 1235 615 1235 c 256
NamedP: "dv03"
 772 1235 922 1175 1035 1062 c 256
 1140 957 1207 810 1207 643 c 256
NamedP: "dh06"
 1207 487 1150 340 1035 225 c 256
 931 121 786 52 617 52 c 256
NamedP: "hr00"
616 246 m 256
NamedP: "dv01"
 721 246 822 289 897 362 c 256
 969 434 1012 533 1012 646 c 256
NamedP: "dh05"
 1012 747 977 844 896 924 c 256
 853 967 809 992 768 1011 c 256
 721 1031 671 1041 619 1041 c 256
NamedP: "dv02"
 515 1041 412 1001 336 925 c 256
 259 848 221 746 221 642 c 256
NamedP: "dh02"
 221 530 264 434 337 362 c 256
 412 289 509 246 616 246 c 256
NamedP: "dv01"
531 557 m 257
NamedP: "dh03"
 271 557 l 257
 271 727 l 257
 531 727 l 257
NamedP: "sh01"
 531 989 l 257
 701 989 l 257
NamedP: "sh02"
 701 727 l 257
NamedP: "sv01"
 962 727 l 257
 962 557 l 257
NamedP: "sv02"
 701 557 l 257
NamedP: "dh04"
 701 298 l 257
 531 298 l 257
 531 557 l 257
NamedP: "dh03"
EndSplineSet
PickledDataWithLists: "(dp1
S'com.schriftgestaltung.Glyphs.lastChange'
p2
S'2017-07-11 17:15:08 +0000'
p3
s."
EndChar

StartChar: circumflex
Encoding: 225 710 225
GlifName: circumflex
Width: 1233
VWidth: 0
Flags: W
LayerCount: 2
Fore
SplineSet
496 1638 m 257
NamedP: "hr00"
 737 1638 l 257
 993 1262 l 257
NamedP: "av01"
 815 1262 l 257
 616 1487 l 257
 418 1262 l 257
NamedP: "av02"
 240 1262 l 257
 496 1638 l 257
NamedP: "hr00"
EndSplineSet
PickledDataWithLists: "(dp1
S'com.schriftgestaltung.Glyphs.lastChange'
p2
S'2017-07-11 17:15:08 +0000'
p3
s."
EndChar

StartChar: colon
Encoding: 226 58 226
GlifName: colon
Width: 1233
VWidth: 0
Flags: W
LayerCount: 2
Fore
SplineSet
619 752 m 256
NamedP: "hr00"
 567 752 524 774 495 803 c 256
 459 839 443 885 443 936 c 256
NamedP: "dh01"
 443 993 463 1038 494 1069 c 256
 529 1104 574 1120 621 1120 c 256
NamedP: "dv01"
 668 1120 711 1104 746 1069 c 256
 777 1038 797 993 797 937 c 256
NamedP: "dh02"
 797 825 721 752 619 752 c 256
NamedP: "hr00"
620 36 m 256
NamedP: "ab01"
 571 36 529 53 495 87 c 256
 460 122 443 166 443 220 c 256
NamedP: "sh01"
 443 274 460 318 495 353 c 256
 529 387 571 404 620 404 c 256
NamedP: "sv01"
 668 404 711 388 746 353 c 256
 777 322 797 277 797 220 c 256
NamedP: "sh02"
 797 164 778 119 746 87 c 256
 711 52 668 36 620 36 c 256
NamedP: "ab01"
EndSplineSet
PickledDataWithLists: "(dp1
S'com.schriftgestaltung.Glyphs.lastChange'
p2
S'2017-07-11 17:15:08 +0000'
p3
s."
EndChar

StartChar: colonmonetary
Encoding: 227 8353 227
GlifName: colonmonetary
Width: 1233
VWidth: 0
Flags: W
LayerCount: 2
Fore
SplineSet
583 -10 m 257
NamedP: "hr00"
 544 -1 507 11 472 26 c 257
 443 -89 l 257
NamedP: "av03"
 302 -89 l 257
 350 99 l 257
 322 122 295 149 268 180 c 256
 149 319 89 507 89 742 c 256
NamedP: "dh01"
 89 1223 343 1503 715 1519 c 257
 734 1593 l 257
NamedP: "av01"
 874 1593 l 257
 854 1513 l 257
 886 1508 918 1501 950 1492 c 257
 955 1489 960 1488 967 1487 c 257
 994 1593 l 257
NamedP: "av02"
 1135 1593 l 257
 1093 1431 l 257
 1107 1424 1119 1416 1130 1409 c 257
 1130 1100 l 257
NamedP: "iv01"
 1095 1129 1062 1154 1027 1173 c 257
 791 250 l 257
NamedP: "dv02"
 908 253 1013 294 1130 391 c 257
NamedP: "iv02"
 1130 82 l 257
 1014 9 890 -29 753 -29 c 256
NamedP: "dv01"
 742 -29 730 -29 718 -28 c 257
NamedP: "sv01"
 702 -90 l 257
NamedP: "av04"
 563 -90 l 257
 583 -10 l 257
NamedP: "hr00"
900 1226 m 257
 863 1235 825 1240 784 1241 c 257
 551 336 l 257
 582 307 616 286 655 271 c 257
 900 1226 l 257
636 1212 m 257
NamedP: "hr01"
 588 1190 547 1156 512 1109 c 256
 449 1025 416 904 416 745 c 256
NamedP: "hr02"
 416 649 428 566 453 497 c 257
NamedP: "iv03"
 636 1212 l 257
NamedP: "hr01"
EndSplineSet
PickledDataWithLists: "(dp1
S'com.schriftgestaltung.Glyphs.lastChange'
p2
S'2017-07-11 17:15:08 +0000'
p3
s."
EndChar

StartChar: comma
Encoding: 228 44 228
GlifName: comma
Width: 1233
VWidth: 0
Flags: W
LayerCount: 2
Fore
SplineSet
380 -275 m 257
NamedP: "hr00"
 394 -269 l 258
 530 -210 625 -106 636 34 c 257
NamedP: "sh01"
 627 33 621 32 609 32 c 256
 566 32 524 46 492 75 c 256
 461 102 443 139 443 196 c 256
NamedP: "dh01"
 443 215 445 229 449 244 c 256
 459 278 466 297 494 319 c 256
 513 335 528 345 551 353 c 256
NamedP: "av02"
 571 360 591 364 618 364 c 256
NamedP: "av03"
 641 364 657 361 676 356 c 256
NamedP: "av04"
 694 351 711 342 726 331 c 256
 742 319 753 306 764 289 c 257
 797 242 813 174 813 93 c 256
NamedP: "dh02"
 813 34 805 -20 789 -71 c 256
 774 -118 753 -164 718 -211 c 256
NamedP: "hr01"
 653 -300 564 -358 451 -401 c 258
 438 -406 l 257
NamedP: "av01"
 380 -275 l 257
NamedP: "hr00"
EndSplineSet
PickledDataWithLists: "(dp1
S'com.schriftgestaltung.Glyphs.lastChange'
p2
S'2017-07-11 17:15:08 +0000'
p3
s."
EndChar

